<?xml version="1.0" standalone="no"?>
<!DOCTYPE svg PUBLIC "-//W3C//DTD SVG 20010904//EN"
 "http://www.w3.org/TR/2001/REC-SVG-20010904/DTD/svg10.dtd">
<svg version="1.0" xmlns="http://www.w3.org/2000/svg"
 width="735.000000pt" height="531.000000pt" viewBox="0 0 735.000000 531.000000"
 preserveAspectRatio="xMidYMid meet">

<g transform="translate(0.000000,531.000000) scale(0.100000,-0.100000)"
fill="#000000" stroke="none">
<path d="M3505 4380 c-11 -18 17 -21 175 -18 112 2 154 6 158 16 5 15 -323 18
-333 2z"/>
<path d="M1220 4370 c0 -6 64 -10 171 -10 111 0 168 3 164 10 -4 6 -72 10
-171 10 -103 0 -164 -4 -164 -10z"/>
<path d="M5790 4370 c0 -6 64 -10 171 -10 111 0 168 3 164 10 -4 6 -72 10
-171 10 -103 0 -164 -4 -164 -10z"/>
<path d="M5045 3670 c0 -349 1 -492 2 -317 2 174 2 460 0 635 -1 174 -2 31 -2
-318z"/>
<path d="M474 4150 c0 -58 1 -81 3 -52 2 28 2 76 0 105 -2 28 -3 5 -3 -53z"/>
<path d="M2753 4155 c0 -38 2 -53 4 -32 2 20 2 52 0 70 -2 17 -4 1 -4 -38z"/>
<path d="M2847 4173 c-4 -3 -6 -101 -5 -217 l2 -211 6 210 5 210 130 3 c72 2
158 0 193 -3 55 -6 64 -10 72 -31 13 -32 22 -30 18 4 l-3 27 155 2 c121 1 146
-1 112 -9 -54 -12 -50 -28 11 -49 26 -9 56 -25 68 -37 11 -12 25 -22 32 -22 8
0 8 3 -2 9 -8 5 -9 11 -3 15 5 3 -5 22 -24 43 -19 20 -34 41 -34 45 0 5 206 7
458 6 l457 -3 0 -124 c0 -123 0 -124 -27 -144 -20 -15 -45 -21 -85 -22 -32 -1
-71 -3 -88 -3 l-30 -2 30 -29 c26 -26 35 -28 68 -23 21 4 37 12 37 17 0 6 9
11 20 13 12 2 24 10 26 17 3 8 12 11 20 8 8 -3 15 1 15 8 1 8 5 -4 10 -26 4
-22 8 -93 8 -158 -1 -100 -3 -117 -16 -113 -8 3 -18 6 -23 6 -4 0 -10 9 -13
19 -3 13 -21 24 -53 34 -44 12 -49 17 -52 45 l-3 30 -49 -36 -49 -36 41 -23
c22 -13 46 -23 54 -23 15 0 38 -36 30 -49 -3 -4 13 -8 35 -9 22 -1 48 -6 57
-11 9 -4 23 -6 30 -4 17 6 17 -108 0 -125 -10 -10 -10 -14 -1 -20 10 -6 13
-105 16 -408 1 -219 2 -39 2 401 l0 800 -826 3 c-454 1 -829 -1 -832 -5z"/>
<path d="M562 4123 l1 -48 4 43 4 42 360 0 359 0 0 -115 0 -115 40 0 c27 0 39
4 38 13 -2 7 9 13 25 15 18 2 25 7 20 15 -5 9 -3 9 8 1 8 -7 33 -12 57 -12 36
-1 42 2 42 19 0 25 -21 47 -39 41 -11 -4 -11 -6 0 -13 7 -4 10 -11 6 -15 -4
-4 -15 1 -26 10 -16 14 -38 21 -83 25 -15 2 27 41 43 41 15 0 33 44 32 78 -1
9 33 12 141 11 77 0 135 -3 128 -6 -18 -7 -4 -23 22 -23 12 0 27 -5 34 -12 18
-18 15 -65 -4 -72 -14 -5 -15 -4 -4 9 11 13 8 15 -18 15 -41 0 -39 -33 3 -41
l30 -6 -35 -2 c-19 -1 -43 -8 -53 -16 -11 -7 -25 -11 -33 -8 -12 5 -12 7 1 17
13 9 10 11 -17 10 -39 -2 -114 -31 -105 -41 4 -3 2 -12 -5 -20 -22 -27 7 -34
143 -31 l134 3 0 113 0 112 28 0 27 0 0 -115 0 -115 170 0 170 0 0 -198 c0
-141 -3 -201 -12 -210 -9 -9 -9 -12 0 -12 8 0 12 -21 12 -64 0 -51 -3 -64 -15
-62 -8 1 -18 5 -21 9 -14 13 -64 8 -58 -6 3 -9 16 -12 34 -9 27 4 30 2 30 -23
0 -20 4 -26 15 -21 12 4 15 -3 15 -34 0 -45 0 -46 -41 -24 -32 16 -46 14 -34
-5 3 -6 15 -11 25 -11 22 0 39 -22 22 -28 -6 -2 -8 -10 -5 -18 3 -8 0 -14 -6
-14 -6 0 -11 5 -11 10 0 6 -7 10 -15 10 -8 0 -15 -7 -15 -16 0 -8 5 -12 10 -9
6 3 10 1 10 -4 0 -6 8 -11 19 -11 29 0 42 -22 26 -44 -14 -18 -10 -45 8 -57 5
-4 7 -15 5 -25 -4 -16 -6 -15 -16 7 -15 36 -34 41 -49 11 -20 -37 -16 -52 12
-52 18 0 25 -5 25 -19 0 -10 7 -21 15 -25 8 -3 15 -13 15 -22 0 -13 -3 -14
-15 -4 -11 9 -15 9 -15 1 0 -7 -4 -9 -10 -6 -5 3 -10 1 -10 -5 0 -6 6 -10 13
-9 31 4 36 -3 40 -58 2 -32 3 246 3 617 l-1 675 -827 3 -828 2 2 -47z m1458
18 c0 -3 43 -5 95 -4 79 2 95 0 95 -12 0 -8 -3 -15 -7 -16 -5 0 -19 -2 -33 -3
-14 -2 -28 2 -32 8 -5 6 -8 7 -8 1 0 -10 -190 -11 -216 -1 -8 3 -14 11 -14 18
0 9 19 13 60 14 33 1 60 -1 60 -5z m-230 -151 c0 -5 -5 -10 -11 -10 -5 0 -7 5
-4 10 3 6 8 10 11 10 2 0 4 -4 4 -10z m180 -26 c9 -10 -22 -21 -46 -16 -38 7
-30 31 9 25 17 -3 34 -7 37 -9z m240 -5 c0 -18 -4 -20 -27 -15 -16 4 -35 7
-43 7 -8 -1 -42 -2 -75 -4 -64 -3 -85 0 -85 13 0 11 30 14 143 18 83 2 87 1
87 -19z m-583 5 c-3 -3 -12 -4 -19 -1 -8 3 -5 6 6 6 11 1 17 -2 13 -5z m100
-5 c-14 -8 -22 -8 -30 0 -8 8 -3 11 19 11 25 -1 27 -2 11 -11z"/>
<path d="M5130 4163 c0 -5 371 -7 825 -5 l825 2 3 -482 2 -483 3 488 2 487
-830 0 c-456 0 -830 -3 -830 -7z"/>
<path d="M2918 4153 c6 -2 12 -18 12 -33 0 -16 5 -32 10 -35 6 -3 10 -19 10
-34 0 -34 28 -61 62 -61 21 0 25 -4 23 -31 -1 -17 4 -37 12 -44 7 -8 13 -18
13 -24 0 -6 11 -11 25 -11 18 0 25 -5 25 -20 0 -13 -5 -17 -14 -14 -11 4 -13
0 -9 -16 3 -12 9 -17 12 -12 3 5 15 1 26 -10 19 -18 19 -19 -12 -16 -32 2 -67
-18 -57 -33 3 -5 1 -9 -3 -9 -5 0 -14 -26 -22 -57 -15 -66 -26 -84 -47 -76
-12 4 -12 8 -2 22 7 9 8 13 4 9 -13 -11 -36 11 -36 33 0 11 -4 19 -10 19 -17
0 -11 19 10 30 18 10 19 8 14 -20 -5 -23 -3 -30 9 -30 10 0 14 6 11 15 -4 10
0 15 14 15 15 0 22 9 27 33 4 17 11 37 15 42 4 6 12 25 18 43 10 28 8 35 -12
59 l-23 27 0 -27 c0 -20 5 -27 21 -28 16 -1 17 -2 4 -6 -9 -2 -19 -12 -21 -21
-4 -15 -5 -15 -6 1 0 9 -6 17 -12 17 -7 0 -9 12 -7 30 3 23 1 30 -9 26 -16 -7
-17 6 -1 22 7 7 10 12 6 12 -12 0 -68 -61 -68 -75 0 -8 -5 -15 -11 -15 -22 0
-37 -28 -40 -78 -2 -29 0 -53 6 -55 6 -2 -2 -2 -16 0 -26 4 -26 4 -28 -72 -2
-73 -1 -75 25 -85 31 -12 539 -12 649 0 56 6 73 13 90 33 22 25 34 107 16 107
-5 0 -16 3 -24 6 -8 3 -17 -2 -21 -12 -4 -11 -2 -15 8 -11 14 5 26 -20 26 -53
-1 -11 -5 -10 -16 5 -14 19 -15 19 -12 1 2 -10 -4 -22 -12 -26 -8 -4 -24 -11
-35 -16 -28 -14 -70 -3 -71 19 -1 12 6 17 25 18 l26 1 -25 8 c-25 8 -24 8 5 9
18 1 25 4 18 9 -7 4 -25 7 -40 6 -20 0 -28 -6 -28 -20 -1 -10 4 -22 10 -26 6
-5 5 -11 -4 -17 -7 -5 -10 -14 -7 -20 9 -14 0 -14 -25 -1 -14 8 -19 7 -19 -2
0 -9 -2 -10 -8 -2 -4 6 -22 15 -39 19 -18 3 -33 12 -33 18 0 8 -3 8 -8 -1 -11
-17 -39 -5 -45 20 -3 11 -10 17 -16 13 -6 -3 -11 1 -11 9 0 8 5 18 10 21 17
10 11 25 -7 18 -17 -5 -17 -5 0 13 10 10 23 19 30 20 6 0 20 2 30 2 9 1 17 9
17 17 0 14 29 35 50 35 6 0 10 -8 9 -17 -3 -40 2 -50 34 -60 22 -6 40 -6 55 0
31 14 28 24 -13 37 -19 6 -35 15 -35 18 0 4 -9 13 -21 20 -26 17 -76 7 -83
-16 -4 -11 -18 -18 -42 -19 -21 -1 -41 -8 -45 -15 -5 -7 -9 -8 -9 -3 0 6 11
23 25 39 14 16 25 34 25 40 0 6 -5 4 -11 -4 -9 -13 -10 -13 -6 0 2 8 9 16 15
16 7 1 17 2 22 3 14 2 12 28 -2 34 -7 3 -3 6 10 6 12 1 22 7 22 16 0 8 7 15
15 15 8 0 15 4 15 9 0 11 -119 33 -132 24 -13 -7 -28 16 -28 45 0 27 -13 28
-55 2 -19 -12 -40 -17 -50 -14 -22 9 -5 20 52 35 23 6 50 20 60 31 18 21 18
21 -12 15 -16 -3 -39 0 -50 6 -11 6 -29 12 -40 13 -83 9 -144 45 -145 87 0 11
-8 17 -22 16 -13 0 -17 -3 -10 -6z m159 -224 c2 -17 -1 -18 -13 -9 -17 15 -18
30 -1 30 7 0 13 -9 14 -21z m49 5 c-3 -9 -6 -18 -6 -20 0 -2 -5 -4 -11 -4 -8
0 -9 4 0 13 6 8 8 17 4 20 -3 4 -1 7 6 7 8 0 11 -6 7 -16z m173 -41 c3 -2 -4
-10 -15 -17 -16 -13 -19 -13 -22 0 -4 17 -22 19 -22 2 0 -6 -2 -9 -5 -6 -3 3
-3 12 1 21 4 12 13 15 33 11 14 -4 28 -8 30 -11z m-41 -58 c-3 -3 -9 2 -12 12
-6 14 -5 15 5 6 7 -7 10 -15 7 -18z m-298 -65 c0 -11 -7 -20 -15 -20 -18 0
-19 12 -3 28 16 16 18 15 18 -8z m44 -3 c-3 -8 -12 -14 -21 -14 -13 0 -13 2 3
14 10 7 19 13 21 13 1 0 0 -6 -3 -13z m226 -7 c0 -5 -4 -10 -10 -10 -5 0 -10
5 -10 10 0 6 5 10 10 10 6 0 10 -4 10 -10z m-87 -60 c-3 -11 -7 -20 -9 -20 -2
0 -4 9 -4 20 0 11 4 20 9 20 5 0 7 -9 4 -20z m67 6 c0 -8 -9 -18 -20 -21 -11
-3 -20 -10 -20 -15 0 -4 -7 -11 -16 -14 -17 -7 -13 2 19 38 25 29 37 33 37 12z
m-36 -71 c-4 -8 -8 -15 -10 -15 -2 0 -4 7 -4 15 0 8 4 15 10 15 5 0 7 -7 4
-15z m60 -40 c3 -9 0 -15 -9 -15 -8 0 -15 5 -15 11 0 8 -5 7 -15 -1 -13 -11
-14 -10 -9 4 8 20 40 21 48 1z"/>
<path d="M3307 4143 c-4 -3 -7 -15 -7 -25 0 -10 -7 -18 -17 -18 -11 0 -13 -3
-7 -9 5 -6 33 -7 69 -2 33 5 65 7 70 5 6 -3 16 5 23 16 11 18 10 21 -13 30
-30 11 -108 13 -118 3z"/>
<path d="M3760 4130 c-13 -8 -12 -11 5 -24 24 -18 51 -20 60 -5 7 10 -22 38
-40 39 -5 0 -17 -5 -25 -10z"/>
<path d="M2883 4110 c-9 -13 -9 -21 -2 -26 6 -3 11 -4 12 -3 1 2 8 14 15 27
16 29 -7 32 -25 2z"/>
<path d="M3911 4083 c-6 -20 -9 -38 -8 -39 1 -1 20 6 41 15 l40 17 -22 22
c-30 30 -39 28 -51 -15z"/>
<path d="M1560 4095 c-7 -9 -11 -17 -9 -20 7 -6 98 -9 104 -3 3 3 -6 6 -21 6
-15 0 -33 7 -39 16 -15 20 -19 20 -35 1z"/>
<path d="M4152 4090 c-13 -10 -48 -28 -78 -40 -31 -11 -68 -27 -84 -35 -20
-10 -76 -16 -187 -20 -87 -3 -193 -12 -237 -21 -66 -13 -88 -14 -145 -3 -36 7
-77 19 -89 26 -35 22 -39 8 -6 -21 17 -15 52 -30 86 -37 32 -6 63 -18 69 -25
15 -19 49 -18 63 2 11 15 15 15 50 0 51 -21 79 -20 101 4 27 29 41 25 76 -22
27 -38 30 -49 27 -94 -3 -32 -13 -63 -28 -84 -23 -32 -23 -32 -1 -21 13 8 39
10 66 5 30 -4 45 -3 45 5 0 6 -11 11 -25 11 -19 0 -25 5 -25 21 0 17 3 19 14
10 23 -19 28 4 6 24 -11 10 -20 25 -20 33 0 12 14 14 79 10 55 -3 84 -1 97 9
24 17 19 20 -55 32 -35 6 -66 13 -69 16 -9 9 31 34 55 35 12 0 26 7 30 15 13
23 112 23 128 1 11 -14 14 -6 20 50 9 90 12 94 50 94 28 0 32 3 28 20 -7 25
-12 25 -41 0z m-257 -110 c-3 -5 -16 -10 -28 -9 -21 0 -21 1 -2 9 28 12 37 12
30 0z"/>
<path d="M4264 4065 c-18 -14 -18 -14 7 -15 15 0 32 7 39 15 10 12 9 15 -7 15
-10 0 -28 -7 -39 -15z"/>
<path d="M5421 4064 c0 -11 3 -14 6 -6 3 7 2 16 -1 19 -3 4 -6 -2 -5 -13z"/>
<path d="M1051 4048 c-7 -19 -5 -24 11 -26 22 -4 39 8 21 15 -7 2 -9 11 -6 19
3 8 0 14 -6 14 -7 0 -15 -10 -20 -22z"/>
<path d="M1101 4054 c14 -17 52 -19 47 -3 -2 7 -16 13 -32 15 -23 2 -25 0 -15
-12z"/>
<path d="M3676 4055 c4 -9 19 -15 38 -15 29 1 30 1 12 15 -26 20 -57 20 -50 0z"/>
<path d="M1573 4045 c0 -8 4 -15 9 -15 4 0 8 7 8 15 0 8 -4 15 -8 15 -5 0 -9
-7 -9 -15z"/>
<path d="M1601 4044 c0 -11 3 -14 6 -6 3 7 2 16 -1 19 -3 4 -6 -2 -5 -13z"/>
<path d="M1651 4044 c0 -11 3 -14 6 -6 3 7 2 16 -1 19 -3 4 -6 -2 -5 -13z"/>
<path d="M3375 4051 c-5 -9 62 -31 96 -31 20 0 21 2 9 14 -17 15 -97 28 -105
17z"/>
<path d="M3575 4050 c-3 -5 1 -10 10 -10 9 0 13 5 10 10 -3 6 -8 10 -10 10 -2
0 -7 -4 -10 -10z"/>
<path d="M4388 4053 c7 -3 16 -2 19 1 4 3 -2 6 -13 5 -11 0 -14 -3 -6 -6z"/>
<path d="M977 4036 c-4 -10 -1 -13 8 -9 8 3 12 9 9 14 -7 12 -11 11 -17 -5z"/>
<path d="M4206 4009 c-3 -17 -6 -47 -6 -65 0 -27 4 -34 19 -34 24 0 36 16 19
23 -10 4 -11 7 0 18 9 10 15 10 24 1 18 -18 45 -15 68 8 30 30 25 39 -30 46
-27 4 -55 13 -61 20 -18 21 -26 17 -33 -17z"/>
<path d="M4400 4021 c8 -6 28 -11 44 -11 39 0 31 6 -19 14 -29 5 -36 4 -25 -3z"/>
<path d="M2890 4000 c-13 -9 -13 -11 0 -20 26 -17 62 -12 58 8 -4 20 -36 27
-58 12z"/>
<path d="M3250 3981 c0 -17 18 -21 24 -6 3 9 0 15 -9 15 -8 0 -15 -4 -15 -9z"/>
<path d="M3377 3889 c3 -12 11 -18 19 -15 8 3 14 -1 14 -9 0 -9 -6 -12 -15 -9
-8 4 -15 2 -15 -4 0 -5 7 -15 15 -22 10 -9 15 -9 15 -1 0 6 10 11 23 11 16 0
28 -10 40 -32 10 -21 16 -27 16 -15 1 19 16 23 26 7 3 -5 12 -10 18 -10 7 0 6
4 -3 10 -11 7 -12 10 -2 10 13 0 48 29 41 33 -2 1 -14 8 -26 15 -27 14 -83 16
-83 2 0 -5 -4 -10 -10 -10 -5 0 -10 9 -10 20 0 13 -10 24 -26 30 -37 14 -43
13 -37 -11z"/>
<path d="M3324 3837 c-10 -12 -12 -16 -4 -10 11 10 17 9 32 -4 16 -14 18 -14
18 -1 0 9 -6 21 -13 27 -11 8 -18 6 -33 -12z"/>
<path d="M3573 3803 c-7 -2 -13 -9 -13 -14 0 -4 7 -6 15 -3 8 4 15 2 15 -4 0
-14 -31 -20 -73 -16 -20 3 -38 0 -42 -6 -3 -5 -2 -10 3 -10 5 0 15 -13 22 -29
6 -16 21 -31 32 -34 11 -3 17 -10 13 -16 -3 -6 -1 -11 4 -11 18 0 12 18 -10
34 -20 14 -21 16 -5 31 9 10 25 15 36 12 11 -3 18 -1 14 4 -3 5 4 9 15 9 23 0
26 12 11 41 -11 19 -16 21 -37 12z"/>
<path d="M5125 3265 c0 -302 1 -428 2 -278 2 149 2 397 0 550 -1 153 -2 31 -2
-272z"/>
<path d="M3673 3766 c9 -7 17 -18 17 -25 0 -17 17 -13 24 5 9 23 -2 34 -32 34
-25 -1 -25 -2 -9 -14z"/>
<path d="M602 3745 c0 -16 2 -22 5 -12 2 9 2 23 0 30 -3 6 -5 -1 -5 -18z"/>
<path d="M742 3745 c0 -16 2 -22 5 -12 2 9 2 23 0 30 -3 6 -5 -1 -5 -18z"/>
<path d="M1052 3740 c0 -19 2 -27 5 -17 2 9 2 25 0 35 -3 9 -5 1 -5 -18z"/>
<path d="M5743 3763 c43 -2 110 -2 150 0 40 1 5 3 -78 3 -82 0 -115 -2 -72 -3z"/>
<path d="M710 3736 c0 -8 4 -17 9 -20 5 -4 7 3 4 14 -6 23 -13 26 -13 6z"/>
<path d="M1132 3730 c0 -14 2 -19 5 -12 2 6 2 18 0 25 -3 6 -5 1 -5 -13z"/>
<path d="M3945 3740 c3 -5 10 -10 16 -10 5 0 9 5 9 10 0 6 -7 10 -16 10 -8 0
-12 -4 -9 -10z"/>
<path d="M888 3713 c7 -3 16 -2 19 1 4 3 -2 6 -13 5 -11 0 -14 -3 -6 -6z"/>
<path d="M3320 3690 c0 -17 3 -18 25 -8 19 8 22 14 13 20 -22 14 -38 9 -38
-12z"/>
<path d="M3660 3670 c0 -5 7 -10 16 -10 8 0 12 -4 9 -10 -3 -5 -2 -10 3 -10 5
0 12 9 15 20 4 16 0 20 -19 20 -13 0 -24 -4 -24 -10z"/>
<path d="M472 3640 c0 -19 2 -27 5 -17 2 9 2 25 0 35 -3 9 -5 1 -5 -18z"/>
<path d="M3976 3641 c-3 -4 1 -17 9 -27 14 -18 14 -17 13 9 -2 27 -12 35 -22
18z"/>
<path d="M4033 3636 c9 -7 28 -11 42 -8 32 6 30 8 -20 15 -35 5 -38 4 -22 -7z"/>
<path d="M3647 3573 c-9 -27 -17 -59 -20 -73 -2 -14 -8 -33 -12 -42 -4 -11 -3
-18 4 -18 6 0 11 5 11 12 0 6 8 20 17 31 10 10 18 26 18 35 0 10 5 16 12 15 6
-1 17 5 25 14 10 13 11 17 0 21 -10 3 -10 7 -2 18 15 17 5 34 -20 34 -13 0
-23 -13 -33 -47z"/>
<path d="M474 3385 c0 -121 2 -169 3 -107 2 62 2 161 0 220 -1 59 -3 8 -3
-113z"/>
<path d="M860 3570 c-8 -5 -23 -7 -32 -4 -26 8 -23 -21 5 -38 40 -27 73 -30
92 -8 16 18 16 20 1 26 -9 3 -25 4 -36 1 -22 -6 -29 18 -7 26 6 3 8 6 2 6 -5
0 -17 -4 -25 -9z"/>
<path d="M1897 3574 c-4 -4 -7 -31 -7 -61 0 -46 3 -53 19 -53 11 0 22 8 24 18
3 9 4 5 4 -9 -1 -19 -5 -25 -15 -21 -8 3 -18 -1 -23 -9 -4 -8 -8 -125 -8 -261
l0 -248 29 0 c35 0 35 -2 13 41 -13 25 -18 58 -18 119 0 61 5 94 18 119 9 19
17 39 17 45 0 7 29 42 65 80 36 37 65 72 65 78 0 5 6 8 13 7 13 -2 33 4 82 27
l30 14 -30 0 c-30 0 -122 57 -138 86 -5 8 -13 11 -19 8 -7 -5 -9 -2 -6 8 5 12
-5 15 -51 17 -31 1 -60 -1 -64 -5z m91 -66 c-6 -18 -28 -21 -28 -4 0 9 7 16
16 16 9 0 14 -5 12 -12z m-13 -48 c3 -5 1 -10 -4 -10 -6 0 -11 5 -11 10 0 6 2
10 4 10 3 0 8 -4 11 -10z m-35 -55 c0 -8 -7 -15 -15 -15 -8 0 -15 7 -15 15 0
8 7 15 15 15 8 0 15 -7 15 -15z"/>
<path d="M3720 3550 c0 -5 7 -10 15 -10 8 0 15 5 15 10 0 6 -7 10 -15 10 -8 0
-15 -4 -15 -10z"/>
<path d="M1080 3540 c0 -5 7 -10 16 -10 8 0 12 5 9 10 -3 6 -10 10 -16 10 -5
0 -9 -4 -9 -10z"/>
<path d="M3941 3536 c-6 -7 -8 -21 -5 -31 5 -12 -1 -24 -17 -37 -23 -19 -22
-19 11 0 26 16 36 29 38 52 3 32 -8 39 -27 16z"/>
<path d="M1005 3520 c4 -6 11 -8 16 -5 14 9 11 15 -7 15 -8 0 -12 -5 -9 -10z"/>
<path d="M4336 3522 c-3 -5 1 -9 9 -9 8 0 15 4 15 9 0 4 -4 8 -9 8 -6 0 -12
-4 -15 -8z"/>
<path d="M555 2965 c0 -308 1 -435 2 -283 2 152 2 404 0 560 -1 156 -2 31 -2
-277z"/>
<path d="M1093 3502 c-24 -4 -32 -22 -10 -22 6 0 25 -7 41 -15 37 -19 39 -16
13 15 -15 17 -30 25 -44 22z"/>
<path d="M939 3478 c-8 -15 -5 -18 18 -18 37 0 73 10 73 20 0 4 -18 10 -41 12
-31 3 -43 0 -50 -14z"/>
<path d="M1250 3480 c0 -13 28 -25 38 -16 3 4 0 11 -8 16 -20 13 -30 12 -30 0z"/>
<path d="M1347 3454 c-3 -19 -1 -24 10 -20 8 3 19 6 24 6 16 0 10 19 -10 29
-16 9 -20 6 -24 -15z"/>
<path d="M4240 3471 c0 -18 18 -21 30 -6 10 13 9 15 -9 15 -11 0 -21 -4 -21
-9z"/>
<path d="M1515 3460 c-3 -5 1 -10 9 -10 9 0 16 5 16 10 0 6 -4 10 -9 10 -6 0
-13 -4 -16 -10z"/>
<path d="M707 3436 c-4 -10 7 -22 29 -36 31 -17 41 -19 74 -10 58 16 56 26 -8
39 -31 7 -64 14 -73 17 -9 3 -19 -2 -22 -10z"/>
<path d="M1476 3439 c-43 -25 -176 -68 -173 -56 2 14 -91 12 -185 -4 -56 -10
-126 -4 -163 13 -16 7 -16 5 4 -11 13 -12 30 -21 38 -21 8 0 30 -7 49 -16 27
-13 37 -14 49 -4 11 9 22 9 49 -1 31 -11 38 -11 57 7 21 19 21 19 45 -9 31
-37 35 -82 10 -122 -12 -19 -11 -20 26 -21 33 0 37 2 24 12 -19 13 -22 39 -3
28 8 -6 8 -3 -1 9 -22 27 -4 40 47 34 25 -2 52 -3 59 0 24 9 12 23 -20 24 -18
0 -42 4 -52 8 -16 6 -14 10 17 24 19 9 42 17 50 17 9 0 18 4 22 10 3 6 15 6
29 0 22 -8 24 -6 33 41 6 27 10 49 9 49 -1 0 -9 -5 -20 -11z"/>
<path d="M1590 3440 c-13 -8 -13 -10 2 -10 9 0 20 5 23 10 8 13 -5 13 -25 0z"/>
<path d="M3803 3443 c9 -2 25 -2 35 0 9 3 1 5 -18 5 -19 0 -27 -2 -17 -5z"/>
<path d="M1195 3430 c3 -5 10 -10 16 -10 5 0 9 5 9 10 0 6 -7 10 -16 10 -8 0
-12 -4 -9 -10z"/>
<path d="M5482 3420 c0 -14 2 -19 5 -12 2 6 2 18 0 25 -3 6 -5 1 -5 -13z"/>
<path d="M1005 3420 c28 -12 47 -12 40 0 -3 6 -18 10 -33 9 -24 0 -25 -1 -7
-9z"/>
<path d="M2754 3305 c0 -71 1 -99 3 -62 2 37 2 96 0 130 -2 34 -3 4 -3 -68z"/>
<path d="M1550 3396 c0 -13 -3 -31 -6 -40 -4 -10 -1 -16 10 -16 9 0 13 6 10
15 -5 12 2 14 32 12 30 -1 39 2 42 16 3 14 -4 17 -32 17 -20 0 -36 5 -36 10 0
6 -4 10 -10 10 -5 0 -10 -11 -10 -24z"/>
<path d="M665 3390 c-3 -5 1 -10 9 -10 9 0 16 5 16 10 0 6 -4 10 -9 10 -6 0
-13 -4 -16 -10z"/>
<path d="M833 3383 c-7 -2 -13 -13 -13 -24 0 -11 -10 -24 -22 -29 -18 -7 -19
-9 -5 -9 19 -1 24 -31 5 -31 -7 0 -5 -5 4 -11 16 -9 17 -12 2 -34 -8 -13 -21
-22 -28 -19 -7 3 -17 -13 -25 -41 -17 -57 -24 -62 -46 -28 -24 36 -29 82 -10
89 8 4 12 10 9 15 -7 13 19 7 28 -6 12 -15 9 -25 -6 -25 -13 0 -30 -39 -21
-48 9 -9 34 28 51 76 16 43 16 54 5 64 -11 11 -13 9 -9 -8 3 -12 2 -28 -3 -35
-6 -10 -10 -5 -15 19 -8 40 -22 41 -58 0 -21 -25 -27 -40 -24 -65 3 -23 0 -32
-8 -29 -8 3 -14 -12 -19 -42 -10 -65 3 -72 135 -72 125 0 263 10 254 19 -3 3
-9 6 -12 7 -42 5 -82 19 -86 31 -3 8 -10 11 -16 8 -5 -3 -10 0 -10 9 0 26 12
46 27 46 8 0 12 4 9 9 -3 5 -15 7 -25 4 -10 -3 -22 0 -25 6 -4 6 0 11 10 11
13 0 15 6 10 33 -4 17 -7 42 -7 54 1 15 -4 20 -17 16 -10 -2 -25 4 -33 14 -12
16 -12 17 1 6 13 -10 16 -8 16 8 0 20 -2 21 -23 12z m2 -183 c-3 -5 -11 -10
-16 -10 -6 0 -7 5 -4 10 3 6 11 10 16 10 6 0 7 -4 4 -10z m22 -18 c-10 -10
-15 -22 -12 -25 3 -4 0 -3 -7 2 -12 11 6 41 25 41 5 0 3 -8 -6 -18z m33 -62
c0 -5 -7 -7 -15 -4 -8 4 -15 8 -15 10 0 2 7 4 15 4 8 0 15 -4 15 -10z"/>
<path d="M2835 2800 c0 -311 1 -438 2 -283 2 156 2 410 0 565 -1 156 -2 29 -2
-282z"/>
<path d="M1740 3342 c0 -14 -53 -34 -81 -31 -13 1 -35 1 -48 1 -23 -2 -24 -3
-6 -22 23 -25 29 -25 83 1 36 18 46 19 53 8 4 -7 11 -10 16 -6 4 5 1 12 -7 18
-13 7 -13 10 -1 18 9 6 10 11 2 15 -6 4 -11 3 -11 -2z"/>
<path d="M934 3331 c3 -5 -1 -14 -9 -21 -17 -14 -20 -30 -4 -30 5 0 8 3 6 8
-6 10 30 42 39 34 4 -4 4 -1 0 6 -4 6 -14 12 -22 12 -8 0 -13 -4 -10 -9z"/>
<path d="M990 3320 c0 -6 5 -8 10 -5 6 3 10 -1 10 -10 0 -10 -5 -13 -12 -9 -7
4 -8 3 -4 -4 10 -16 38 -2 34 17 -4 18 -38 28 -38 11z"/>
<path d="M3002 3295 c0 -16 2 -22 5 -12 2 9 2 23 0 30 -3 6 -5 -1 -5 -18z"/>
<path d="M1050 3300 c-9 -6 -11 -10 -3 -10 7 0 10 -7 7 -15 -4 -11 -1 -14 10
-10 9 3 23 7 32 10 13 4 14 8 4 20 -14 17 -29 19 -50 5z"/>
<path d="M2176 3297 c3 -10 9 -15 12 -12 3 3 0 11 -7 18 -10 9 -11 8 -5 -6z"/>
<path d="M960 3291 c0 -5 5 -13 10 -16 6 -3 10 -2 10 4 0 5 -4 13 -10 16 -5 3
-10 2 -10 -4z"/>
<path d="M1124 3258 c3 -9 0 -19 -7 -21 -7 -2 -9 -8 -5 -12 3 -4 14 -3 22 2
15 8 15 11 0 28 -12 16 -15 17 -10 3z"/>
<path d="M785 3249 c-4 -6 -5 -12 -2 -15 2 -3 7 2 10 11 7 17 1 20 -8 4z"/>
<path d="M986 3234 c-6 -15 19 -44 37 -44 7 0 18 4 25 9 10 6 4 14 -21 29 -29
16 -36 18 -41 6z"/>
<path d="M2135 3240 c3 -5 8 -10 11 -10 2 0 4 5 4 10 0 6 -5 10 -11 10 -5 0
-7 -4 -4 -10z"/>
<path d="M1064 3224 c3 -9 6 -21 6 -27 0 -6 7 -4 16 5 18 18 11 38 -13 38 -10
0 -13 -6 -9 -16z"/>
<path d="M1195 3230 c4 -6 11 -8 16 -5 14 9 11 15 -7 15 -8 0 -12 -5 -9 -10z"/>
<path d="M2015 3230 c-3 -5 -2 -10 4 -10 5 0 13 5 16 10 3 6 2 10 -4 10 -5 0
-13 -4 -16 -10z"/>
<path d="M950 3190 c0 -5 5 -10 10 -10 6 0 10 5 10 10 0 6 -4 10 -10 10 -5 0
-10 -4 -10 -10z"/>
<path d="M1124 3189 c-4 -8 -3 -9 4 -5 8 5 12 -1 12 -17 0 -30 -54 -58 -87
-46 -17 6 -23 5 -23 -6 0 -11 12 -15 41 -15 59 0 79 14 79 55 0 36 -14 53 -26
34z"/>
<path d="M1598 3177 l-27 -22 27 -12 c15 -6 43 -14 63 -17 20 -4 44 -15 54
-26 27 -29 53 -26 47 5 -3 20 -8 24 -28 19 -18 -5 -24 -2 -24 9 0 10 -13 18
-35 23 -25 4 -35 11 -35 25 0 24 -9 24 -42 -4z"/>
<path d="M1983 3179 c4 -13 7 -33 7 -43 0 -24 15 -11 24 21 5 16 1 25 -15 34
-20 10 -21 9 -16 -12z"/>
<path d="M1186 3165 c4 -8 7 -15 9 -15 2 0 5 7 9 15 3 9 0 15 -9 15 -9 0 -12
-6 -9 -15z"/>
<path d="M1033 3155 c0 -8 4 -15 9 -15 4 0 8 4 8 9 0 6 -4 12 -8 15 -5 3 -9
-1 -9 -9z"/>
<path d="M473 3105 c0 -33 2 -45 4 -27 2 18 2 45 0 60 -2 15 -4 0 -4 -33z"/>
<path d="M1420 3156 c0 -2 7 -7 16 -10 8 -3 12 -2 9 4 -6 10 -25 14 -25 6z"/>
<path d="M2120 3146 c0 -25 25 -37 46 -22 21 16 22 14 -31 31 -8 2 -15 -2 -15
-9z"/>
<path d="M2753 3125 c0 -22 2 -30 4 -17 2 12 2 30 0 40 -3 9 -5 -1 -4 -23z"/>
<path d="M1171 3117 c-5 -14 -13 -42 -16 -63 -7 -37 -6 -38 9 -19 8 11 16 25
16 31 0 7 6 14 13 17 17 6 15 49 -1 55 -7 2 -16 -8 -21 -21z"/>
<path d="M1220 3089 c0 -5 5 -7 10 -4 6 3 10 8 10 11 0 2 -4 4 -10 4 -5 0 -10
-5 -10 -11z"/>
<path d="M2018 3082 c-18 -20 -13 -42 9 -42 10 0 12 -6 7 -22 -4 -13 -8 -34
-9 -48 -3 -33 -2 -32 -25 -20 -11 6 -20 17 -20 25 0 8 -5 15 -10 15 -6 0 -9
-13 -8 -30 2 -25 6 -29 28 -27 14 2 31 6 37 10 7 4 14 3 18 -3 8 -12 55 -13
55 -1 0 5 -6 12 -12 14 -9 4 -8 6 2 6 9 1 25 -6 37 -14 19 -13 22 -13 27 1 9
23 7 36 -4 29 -5 -3 -10 0 -10 7 0 8 -14 29 -30 48 -25 29 -30 31 -25 13 4
-14 2 -23 -4 -23 -11 0 -16 28 -11 60 1 8 -1 12 -6 8 -4 -4 -13 -3 -19 2 -8 7
-17 4 -27 -8z m84 -79 c-6 -2 -9 -10 -6 -15 4 -7 2 -8 -5 -4 -13 9 -5 26 12
25 9 0 8 -2 -1 -6z"/>
<path d="M1365 3079 c-4 -6 -4 -13 -1 -16 3 -3 0 -13 -7 -21 -11 -13 -9 -14
11 -1 12 8 22 22 22 31 0 20 -15 24 -25 7z"/>
<path d="M1950 3061 c0 -6 4 -13 10 -16 6 -3 7 1 4 9 -7 18 -14 21 -14 7z"/>
<path d="M3051 3034 c0 -11 3 -14 6 -6 3 7 2 16 -1 19 -3 4 -6 -2 -5 -13z"/>
<path d="M1570 3022 c0 -9 -10 -22 -22 -27 -28 -12 -39 -65 -14 -65 9 0 18 11
22 25 3 14 10 25 14 25 4 0 10 14 12 30 3 17 1 30 -4 30 -4 0 -8 -8 -8 -18z"/>
<path d="M1990 3024 c0 -8 5 -12 10 -9 6 4 8 11 5 16 -9 14 -15 11 -15 -7z"/>
<path d="M1270 3021 c0 -6 9 -11 20 -11 18 0 19 -3 10 -21 -7 -11 -9 -23 -7
-26 3 -3 13 9 22 26 13 26 13 31 1 31 -8 0 -21 3 -30 6 -9 3 -16 1 -16 -5z"/>
<path d="M1137 2990 c-3 -11 -3 -20 -1 -20 2 0 8 9 14 20 6 11 7 20 2 20 -6 0
-12 -9 -15 -20z"/>
<path d="M1700 2965 c-19 -19 -29 -35 -22 -35 6 0 16 9 21 19 6 10 24 24 41
29 34 12 39 22 12 22 -10 0 -33 -16 -52 -35z"/>
<path d="M5762 2975 c0 -16 2 -22 5 -12 2 9 2 23 0 30 -3 6 -5 -1 -5 -18z"/>
<path d="M1126 2951 c-4 -7 -5 -15 -2 -18 9 -9 19 4 14 18 -4 11 -6 11 -12 0z"/>
<path d="M1430 2945 l-25 -14 23 -1 c13 0 30 7 38 15 20 20 -1 20 -36 0z"/>
<path d="M1185 2940 c3 -5 8 -10 11 -10 2 0 4 5 4 10 0 6 -5 10 -11 10 -5 0
-7 -4 -4 -10z"/>
<path d="M1285 2940 c-3 -5 -1 -10 4 -10 6 0 11 5 11 10 0 6 -2 10 -4 10 -3 0
-8 -4 -11 -10z"/>
<path d="M911 2824 c0 -11 3 -14 6 -6 3 7 2 16 -1 19 -3 4 -6 -2 -5 -13z"/>
<path d="M5312 2525 c0 -16 2 -22 5 -12 2 9 2 23 0 30 -3 6 -5 -1 -5 -18z"/>
<path d="M5156 2532 c-8 -13 11 -35 23 -28 16 10 14 36 -3 36 -8 0 -17 -4 -20
-8z"/>
<path d="M2870 2420 c0 -11 7 -20 15 -20 8 0 15 9 15 20 0 11 -7 20 -15 20 -8
0 -15 -9 -15 -20z"/>
<path d="M5148 2433 c7 -3 16 -2 19 1 4 3 -2 6 -13 5 -11 0 -14 -3 -6 -6z"/>
<path d="M600 2246 c0 -31 6 -34 13 -6 3 11 1 23 -4 26 -5 3 -9 -6 -9 -20z"/>
<path d="M1026 2257 c3 -10 9 -15 12 -12 3 3 0 11 -7 18 -10 9 -11 8 -5 -6z"/>
<path d="M1377 2250 c-3 -11 -1 -23 4 -26 5 -3 9 6 9 20 0 31 -6 34 -13 6z"/>
<path d="M1192 2240 c0 -14 2 -19 5 -12 2 6 2 18 0 25 -3 6 -5 1 -5 -13z"/>
<path d="M1661 2244 c0 -11 3 -14 6 -6 3 7 2 16 -1 19 -3 4 -6 -2 -5 -13z"/>
<path d="M1691 2244 c0 -11 3 -14 6 -6 3 7 2 16 -1 19 -3 4 -6 -2 -5 -13z"/>
<path d="M840 2246 c0 -2 7 -7 16 -10 8 -3 12 -2 9 4 -6 10 -25 14 -25 6z"/>
<path d="M620 2230 c0 -5 5 -10 10 -10 6 0 10 5 10 10 0 6 -4 10 -10 10 -5 0
-10 -4 -10 -10z"/>
<path d="M5115 1700 l0 -485 673 0 672 0 -670 2 -670 3 -3 483 -2 482 0 -485z"/>
<path d="M6788 1695 c-2 -267 0 -485 5 -485 4 0 7 218 7 485 0 267 -2 485 -5
485 -2 0 -6 -218 -7 -485z"/>
<path d="M895 1995 c3 -22 0 -24 -26 -18 -28 5 -64 -12 -54 -26 2 -4 -2 -8
-10 -8 -17 0 -20 13 -5 22 17 11 11 25 -11 25 -16 0 -20 -5 -16 -20 4 -16 0
-20 -20 -20 -22 0 -24 -2 -13 -15 10 -12 10 -15 -4 -15 -19 0 -20 -6 -4 -24 7
-7 21 -11 31 -8 14 4 16 7 6 13 -10 6 -9 9 4 15 11 4 23 1 30 -6 9 -10 9 -11
0 -6 -9 5 -13 0 -13 -13 0 -14 -5 -19 -15 -15 -8 4 -23 0 -32 -7 -14 -12 -16
-12 -8 0 5 10 4 12 -3 7 -7 -4 -12 -13 -12 -19 0 -7 -4 -18 -9 -26 -8 -12 -12
-12 -25 -2 -10 8 -16 9 -16 3 0 -6 5 -14 10 -17 18 -11 11 -27 -10 -22 -23 6
-22 7 -24 -54 -1 -34 2 -45 11 -42 7 3 13 9 13 14 0 5 7 9 16 9 9 0 14 6 12
12 -5 14 15 38 31 38 6 0 11 -4 11 -10 0 -5 -4 -10 -8 -10 -5 0 -9 -7 -9 -15
0 -11 4 -12 11 -5 5 5 21 10 35 10 20 -1 15 -5 -23 -20 -27 -11 -54 -24 -60
-30 -5 -5 -18 -10 -29 -10 -10 0 -17 -5 -14 -12 3 -10 48 -13 183 -13 l179 0
1 75 c1 41 0 65 -3 52 -2 -13 -12 -26 -21 -29 -9 -4 -34 -17 -54 -30 -41 -25
-64 -32 -33 -9 11 8 19 28 21 52 1 21 2 42 3 47 1 10 41 9 41 -1 0 -5 7 -9 15
-9 8 0 15 4 15 9 0 5 5 6 10 3 6 -4 10 13 10 43 0 37 -4 51 -17 56 -14 6 -14
8 3 21 18 14 18 14 -3 15 -12 0 -25 5 -28 10 -3 6 -13 10 -21 10 -8 0 -12 -4
-9 -10 3 -6 -1 -7 -10 -4 -24 10 2 34 36 34 21 0 27 4 23 15 -4 10 -20 15 -49
15 -39 0 -42 -2 -40 -25z m55 -108 c10 -17 10 -19 -4 -14 -9 4 -21 -1 -28 -12
-7 -9 -21 -20 -31 -24 -14 -5 -16 -11 -7 -26 14 -27 2 -51 -24 -51 -49 0 -64
55 -18 66 29 7 65 38 55 48 -4 3 1 6 10 6 10 0 17 4 17 10 0 5 -7 7 -15 4 -15
-6 -22 16 -9 29 8 8 38 -12 54 -36z m-85 -26 c-3 -6 -11 -8 -17 -5 -6 4 -5 9
3 15 16 10 23 4 14 -10z m120 -20 c3 -6 -3 -9 -14 -8 -11 0 -17 5 -15 9 7 11
22 10 29 -1z m-208 -21 c21 0 24 -2 13 -15 -18 -21 -43 -19 -59 6 -11 19 -11
21 4 15 9 -3 28 -6 42 -6z m73 -110 c-7 -5 -20 -6 -28 -2 -8 3 -20 -2 -27 -11
-6 -9 -16 -12 -24 -8 -21 13 49 50 73 38 14 -7 16 -11 6 -17z"/>
<path d="M841 1794 c0 -11 3 -14 6 -6 3 7 2 16 -1 19 -3 4 -6 -2 -5 -13z"/>
<path d="M653 1983 c-7 -2 -13 -16 -13 -30 0 -20 4 -24 18 -18 9 4 31 11 48
16 18 5 37 16 44 24 11 13 6 15 -36 14 -27 0 -55 -3 -61 -6z"/>
<path d="M1212 1970 c0 -14 2 -19 5 -12 2 6 2 18 0 25 -3 6 -5 1 -5 -13z"/>
<path d="M3192 1960 c0 -14 2 -19 5 -12 2 6 2 18 0 25 -3 6 -5 1 -5 -13z"/>
<path d="M545 1595 l0 -380 673 0 672 0 -670 2 -670 3 -3 378 -2 377 0 -380z"/>
<path d="M5480 1946 c0 -8 4 -17 9 -20 5 -4 7 3 4 14 -6 23 -13 26 -13 6z"/>
<path d="M5561 1944 c0 -11 3 -14 6 -6 3 7 2 16 -1 19 -3 4 -6 -2 -5 -13z"/>
<path d="M5701 1944 c0 -11 3 -14 6 -6 3 7 2 16 -1 19 -3 4 -6 -2 -5 -13z"/>
<path d="M2222 1830 c0 -14 2 -19 5 -12 2 6 2 18 0 25 -3 6 -5 1 -5 -13z"/>
<path d="M933 1787 c2 -7 12 -11 22 -9 11 2 14 -1 10 -9 -5 -7 -3 -10 6 -7 25
8 15 31 -14 34 -18 2 -27 -1 -24 -9z"/>
<path d="M2220 1508 c-3 -163 -2 -294 3 -289 4 4 6 138 5 297 l-3 289 -5 -297z"/>
<path d="M2825 1508 l0 -293 55 -1 55 0 -52 3 -53 4 -3 289 -2 290 0 -292z"/>
<path d="M1632 1690 c0 -14 2 -19 5 -12 2 6 2 18 0 25 -3 6 -5 1 -5 -13z"/>
<path d="M4511 1654 c0 -11 3 -14 6 -6 3 7 2 16 -1 19 -3 4 -6 -2 -5 -13z"/>
<path d="M4512 1408 l-2 -198 -327 -3 -328 -2 328 -3 c259 -2 329 1 333 11 2
7 3 98 1 202 l-2 190 -3 -197z"/>
<path d="M5154 1499 c-8 -14 11 -33 25 -25 16 10 13 36 -3 36 -8 0 -18 -5 -22
-11z"/>
<path d="M5261 1494 c0 -11 3 -14 6 -6 3 7 2 16 -1 19 -3 4 -6 -2 -5 -13z"/>
<path d="M3818 1203 c7 -3 16 -2 19 1 4 3 -2 6 -13 5 -11 0 -14 -3 -6 -6z"/>
</g>
</svg>
