<?xml version="1.0" standalone="no"?>
<!DOCTYPE svg PUBLIC "-//W3C//DTD SVG 20010904//EN"
 "http://www.w3.org/TR/2001/REC-SVG-20010904/DTD/svg10.dtd">
<svg version="1.0" xmlns="http://www.w3.org/2000/svg"
 width="953.000000pt" height="805.000000pt" viewBox="0 0 953.000000 805.000000"
 preserveAspectRatio="xMidYMid meet">

<g transform="translate(0.000000,805.000000) scale(0.100000,-0.100000)"
fill="#000000" stroke="none">
<path d="M840 8033 c0 -10 7 -45 14 -78 8 -33 26 -125 40 -205 35 -190 35
-190 89 -190 24 0 52 6 62 14 18 13 18 19 6 92 -11 71 -47 207 -88 337 l-15
47 -54 0 c-45 0 -54 -3 -54 -17z"/>
<path d="M1200 8040 c-13 -9 -13 -10 0 -10 16 0 60 -91 64 -133 2 -13 13 -35
24 -48 12 -12 21 -28 20 -33 -1 -11 3 -23 46 -119 27 -59 27 -81 2 -71 -17 7
-42 63 -38 87 2 9 -2 17 -7 17 -6 0 -11 9 -11 20 0 11 -4 20 -10 20 -5 0 -10
9 -10 19 0 11 -5 21 -10 23 -6 2 -11 18 -13 35 -1 18 -8 35 -15 38 -7 3 -10
10 -6 16 4 8 3 9 -4 5 -8 -5 -12 0 -12 13 0 11 -4 22 -9 26 -21 12 11 -119 66
-275 8 -25 16 -56 17 -70 1 -24 5 -25 91 -35 50 -5 96 -9 103 -9 6 1 21 2 32
3 14 1 20 8 20 26 0 26 -65 218 -127 371 l-37 94 -81 0 c-44 0 -87 -5 -95 -10z"/>
<path d="M1647 7996 c21 -30 48 -59 61 -65 48 -23 165 -9 184 22 4 7 8 31 8
55 l0 42 -145 0 -146 0 38 -54z"/>
<path d="M3190 8033 c0 -10 -7 -36 -16 -60 -15 -38 -15 -46 -1 -88 9 -25 23
-101 32 -168 24 -183 6 -167 194 -167 115 0 161 3 168 13 6 6 16 62 22 122 7
61 19 136 27 168 8 32 14 75 14 95 0 21 4 52 9 70 l10 32 -230 0 c-210 0 -229
-1 -229 -17z"/>
<path d="M7066 8019 c-10 -52 -7 -78 15 -129 17 -39 33 -56 82 -89 113 -74
165 -128 190 -201 22 -63 24 -65 62 -70 46 -6 46 -6 69 -180 9 -63 25 -173 36
-245 31 -203 32 -213 9 -220 -11 -4 -16 -11 -13 -17 5 -7 2 -8 -7 -2 -30 18
-39 11 -54 -39 -55 -197 -37 -284 70 -340 31 -16 57 -20 115 -19 41 1 83 -1
92 -4 24 -7 75 -92 103 -169 13 -36 38 -84 55 -108 85 -117 109 -157 129 -211
19 -52 94 -214 142 -307 23 -44 23 -69 4 -133 -8 -28 -15 -88 -15 -137 0 -132
0 -132 -142 -189 -92 -38 -131 -75 -159 -151 -27 -74 -49 -94 -129 -114 -122
-32 -156 -62 -171 -155 -5 -35 -14 -72 -20 -82 -6 -10 -47 -36 -93 -58 -98
-47 -110 -65 -100 -151 4 -40 17 -75 38 -109 17 -27 50 -81 74 -120 59 -95 96
-189 77 -196 -14 -6 -290 12 -332 22 -16 3 -23 0 -23 -11 0 -9 9 -15 23 -15
106 -2 338 -30 357 -43 12 -9 32 -44 45 -81 25 -72 97 -201 156 -281 71 -96
258 -258 352 -306 100 -51 184 -177 303 -451 51 -118 52 -137 13 -205 -17 -32
-39 -66 -47 -75 -7 -9 -11 -22 -7 -27 3 -6 2 -11 -3 -11 -5 0 -13 -24 -19 -52
-18 -87 -24 -111 -29 -120 -3 -4 0 -8 6 -8 7 0 8 -5 3 -13 -4 -6 -9 -21 -10
-32 -1 -11 -4 -49 -8 -85 -3 -36 -8 -119 -10 -185 -3 -66 -6 -136 -8 -155 -2
-19 1 -38 7 -43 8 -5 7 -10 -3 -16 -7 -5 -11 -13 -8 -18 4 -6 3 -33 -2 -62 -5
-30 -4 -54 1 -57 5 -3 7 -12 4 -20 -3 -8 -1 -14 4 -14 5 0 6 -15 3 -33 -2 -17
-6 -61 -7 -97 -2 -58 1 -67 27 -97 26 -30 28 -37 26 -115 -2 -94 -8 -113 -43
-122 -13 -3 -156 -24 -318 -46 -161 -21 -392 -53 -513 -69 -651 -90 -918 -123
-985 -122 -94 1 -728 -83 -743 -98 -8 -8 -8 -14 1 -23 10 -10 41 -9 145 5 72
9 202 26 287 37 190 24 288 27 271 6 -14 -17 -58 -25 -409 -72 -287 -38 -302
-38 -302 7 0 15 -7 19 -32 19 -17 0 -371 -45 -786 -101 -416 -55 -769 -99
-786 -97 -45 4 -44 31 8 129 45 85 76 182 76 237 0 22 -11 39 -43 69 -24 22
-50 42 -57 45 -10 3 -13 18 -12 46 2 27 -4 54 -15 72 -29 51 -128 105 -171 94
-12 -4 -38 10 -75 41 -64 51 -112 75 -156 75 -26 0 -41 14 -41 40 0 5 32 7 72
5 89 -6 155 -40 160 -83 3 -26 6 -27 52 -25 69 2 75 13 37 71 -36 57 -38 68
-11 77 26 8 25 17 -6 71 -21 36 -23 44 -10 44 9 0 18 0 21 0 3 0 5 -3 6 -7 0
-5 11 -27 25 -50 28 -48 29 -53 10 -53 -27 0 -28 -37 -3 -77 41 -65 43 -66
157 -52 135 16 139 20 95 87 -37 54 -38 72 -4 72 25 0 24 8 -10 62 -25 38 -27
47 -14 52 18 7 35 -2 28 -15 -3 -5 5 -25 19 -46 25 -37 25 -37 6 -55 -26 -25
-26 -27 15 -82 33 -42 39 -46 80 -46 40 0 151 12 233 26 17 3 32 10 32 17 0 7
-19 37 -43 67 -46 59 -107 153 -107 163 0 4 9 7 20 7 13 0 20 -7 20 -20 0 -24
56 -90 77 -90 10 0 13 -6 9 -16 -8 -20 52 -102 81 -110 13 -3 123 6 245 20
697 81 1064 128 1072 136 6 6 -15 35 -57 77 -36 38 -83 87 -103 111 -33 38
-34 42 -15 42 14 0 21 -6 21 -18 0 -21 49 -68 85 -82 14 -5 25 -15 25 -23 0
-7 22 -34 49 -61 l49 -48 133 16 c74 9 138 21 143 26 5 5 -13 32 -44 64 -51
54 -52 56 -27 56 18 0 25 -4 21 -14 -6 -16 91 -106 115 -106 43 0 187 23 196
31 6 6 -11 30 -44 63 l-54 54 59 7 c121 13 125 18 64 76 -22 21 -35 41 -30 44
13 8 32 -4 25 -15 -3 -4 13 -24 35 -44 36 -32 46 -36 95 -36 41 0 55 -4 55
-14 0 -8 26 -36 57 -61 47 -39 62 -46 87 -41 17 3 61 8 99 12 37 3 69 10 72
14 6 10 -33 60 -48 61 -7 0 -22 13 -34 28 l-22 28 62 7 c122 13 147 18 147 31
0 15 -81 85 -98 85 -6 0 -19 11 -28 25 -12 19 -22 24 -38 20 -15 -5 -17 -4 -8
3 11 7 7 14 -16 31 -17 11 -33 21 -36 21 -3 0 -26 20 -52 45 -25 25 -52 45
-60 45 -7 0 -21 11 -30 25 -12 19 -22 24 -38 20 -15 -5 -17 -4 -8 3 11 7 8 14
-14 31 -14 11 -33 21 -40 21 -8 0 -14 7 -14 15 0 29 -39 37 -136 30 -100 -7
-120 -20 -88 -56 10 -11 13 -19 9 -19 -5 0 -20 14 -35 31 l-26 32 -98 -10
c-105 -11 -127 -24 -99 -55 15 -17 15 -18 0 -18 -10 0 -17 7 -17 15 0 8 -10
21 -22 29 -19 11 -39 12 -117 2 -96 -11 -115 -22 -91 -52 7 -8 10 -18 6 -21
-4 -4 -19 8 -33 26 -28 36 -24 36 -180 15 -43 -6 -61 -27 -43 -49 7 -9 7 -15
1 -19 -5 -4 -16 6 -23 21 l-14 28 -104 -3 c-84 -2 -108 -6 -117 -19 -11 -14
-10 -20 4 -35 15 -17 15 -18 0 -18 -10 0 -17 6 -17 13 0 8 -8 21 -19 31 -16
15 -29 15 -107 6 -49 -5 -94 -10 -100 -10 -21 0 -25 -32 -8 -51 13 -14 14 -19
4 -19 -8 0 -25 14 -39 31 l-26 31 -100 -11 c-101 -12 -121 -22 -104 -52 6 -11
5 -20 -1 -24 -17 -10 -11 -36 16 -72 19 -25 22 -33 10 -33 -9 0 -16 4 -16 10
0 5 -14 25 -30 43 -28 32 -29 35 -11 40 14 3 18 11 14 26 -10 39 -27 44 -128
36 -102 -7 -133 -22 -116 -53 5 -9 5 -26 1 -37 -5 -14 -1 -30 16 -52 13 -17
24 -34 24 -37 0 -16 -19 -2 -48 36 -30 40 -32 44 -15 55 16 12 16 15 -4 41
-11 15 -24 27 -29 27 -5 0 -52 -4 -106 -9 -86 -7 -97 -10 -102 -29 -3 -11 -1
-26 3 -31 5 -6 5 -20 1 -31 -5 -14 0 -30 16 -51 25 -33 29 -44 16 -44 -15 0
-75 94 -63 98 17 6 13 37 -8 56 -17 16 -29 16 -118 6 -107 -12 -136 -29 -108
-60 8 -9 12 -25 9 -37 -4 -14 2 -33 15 -52 23 -31 26 -41 13 -41 -5 0 -23 21
-41 46 -22 32 -29 50 -22 57 7 7 5 19 -7 39 -17 29 -18 30 -82 23 -132 -12
-149 -16 -155 -37 -4 -10 -1 -25 5 -33 7 -8 10 -21 7 -29 -3 -7 3 -28 14 -45
23 -38 23 -41 4 -41 -8 0 -15 5 -15 11 0 6 -8 23 -19 37 -10 15 -19 39 -19 54
1 54 -16 61 -122 53 -52 -4 -103 -11 -112 -16 -22 -12 -23 -42 -4 -59 8 -6 12
-18 9 -25 -3 -8 5 -30 17 -50 17 -28 19 -35 7 -35 -18 0 -67 80 -67 108 0 11
-8 29 -18 40 -16 19 -22 19 -120 8 -97 -11 -121 -21 -122 -48 0 -5 9 -17 20
-28 12 -12 18 -25 15 -30 -3 -4 4 -25 16 -44 18 -32 19 -36 4 -36 -11 0 -29
28 -56 86 l-40 86 -37 -5 c-20 -3 -66 -9 -102 -13 -36 -4 -71 -11 -77 -17 -20
-15 -15 -44 8 -61 12 -8 18 -19 14 -25 -7 -13 31 -81 46 -81 5 0 9 -10 9 -21
0 -25 37 -89 51 -89 5 0 9 -10 9 -22 0 -27 35 -88 50 -88 5 0 10 -9 10 -20 0
-31 32 -89 53 -96 11 -4 16 -12 13 -21 -8 -19 42 -111 66 -124 17 -9 14 -15
-31 -62 -27 -29 -67 -74 -89 -102 -22 -27 -65 -75 -96 -105 -62 -60 -60 -60
-97 0 -8 13 -11 12 -24 -5 -22 -28 -30 -64 -16 -78 6 -6 27 -10 47 -9 20 2 59
-8 92 -22 31 -14 83 -32 115 -40 152 -39 278 -93 362 -155 28 -21 78 -54 111
-75 76 -46 210 -168 219 -199 4 -12 26 -47 50 -77 23 -30 50 -71 60 -90 10
-18 24 -40 31 -48 42 -41 105 -135 111 -164 6 -32 25 -59 40 -58 4 0 9 -9 9
-20 2 -24 11 -36 21 -26 4 4 1 11 -6 15 -17 11 2 23 23 15 20 -8 21 -43 1 -50
-8 -4 -12 -10 -9 -15 8 -13 1071 -12 1079 1 4 7 12 7 25 0 12 -7 374 -10 1037
-9 560 0 1013 3 1006 5 -8 4 -9 14 -3 34 4 16 7 30 7 32 -1 2 3 -2 9 -9 11
-13 24 -8 24 9 0 5 -4 6 -10 3 -5 -3 -10 2 -10 11 0 10 -3 15 -6 11 -3 -3 -16
-2 -29 3 -16 6 -29 4 -41 -5 -25 -19 -34 -18 -34 1 0 8 -4 12 -10 9 -6 -4 -7
1 -3 11 6 16 7 15 20 -2 12 -17 13 -16 13 5 0 21 2 22 18 10 15 -13 16 -12 4
3 -8 10 -20 14 -29 11 -13 -5 -15 -2 -10 12 6 15 5 16 -8 5 -9 -7 -15 -8 -15
-2 0 13 -83 3 -92 -12 -5 -8 -8 -7 -8 2 0 14 -21 12 -32 -3 -5 -6 -8 -5 -8 3
0 7 -4 10 -10 7 -6 -3 -10 -1 -10 4 0 6 7 11 16 11 11 0 15 6 11 20 -3 11 -1
18 4 14 5 -3 8 6 7 19 -2 18 -7 23 -25 21 -14 -1 -23 3 -23 11 0 10 -15 13
-55 11 -32 -1 -55 3 -55 9 0 5 -4 4 -9 -4 -7 -11 -10 -9 -16 8 -10 33 10 48
75 56 33 4 58 11 54 16 -3 5 10 18 27 28 21 13 34 30 36 46 4 25 2 25 -47 24
-27 -1 -52 0 -55 2 -9 9 8 49 20 49 7 0 15 3 18 8 2 4 2 1 0 -6 -1 -7 2 -10 7
-7 6 4 23 9 37 11 15 3 31 11 35 17 6 9 10 9 17 -1 7 -11 12 -11 28 -2 27 17
133 4 133 -16 0 -8 7 -14 15 -14 8 0 15 -4 15 -9 0 -16 34 -18 58 -3 17 11 25
12 36 3 8 -7 33 -12 55 -13 25 0 38 -4 34 -11 -3 -6 -1 -7 5 -3 7 4 12 14 12
21 0 24 65 51 145 61 22 3 44 9 50 15 13 13 25 11 25 -6 0 -9 -6 -12 -15 -9
-11 5 -15 -1 -15 -24 0 -25 4 -29 25 -29 32 0 51 30 30 47 -20 17 -19 26 7 50
27 25 31 25 43 -2 6 -13 20 -27 33 -33 16 -7 22 -18 22 -43 0 -20 6 -35 16
-39 9 -3 13 -12 9 -22 -7 -17 -10 -30 -20 -102 -6 -48 -20 -61 -77 -73 -20 -5
-26 -11 -22 -24 4 -10 3 -13 -3 -6 -8 12 -53 11 -72 0 -16 -10 -101 -14 -101
-5 0 5 -5 9 -11 9 -6 0 -8 -7 -5 -16 3 -8 2 -13 -3 -10 -5 3 -11 -1 -15 -9 -3
-8 -13 -15 -23 -15 -13 0 -14 -3 -5 -12 7 -7 12 -20 12 -30 0 -10 6 -21 13
-24 11 -4 15 -15 19 -59 1 -6 -2 -23 -6 -38 l-6 -27 875 0 875 0 0 4025 0
4025 -1229 0 -1228 0 -7 -31z m2282 -4729 c56 -40 75 -80 68 -139 -7 -65 -40
-183 -59 -212 -9 -13 -18 -35 -20 -49 -2 -14 -7 -33 -12 -43 -4 -10 -8 -30
-10 -45 -1 -15 -5 -34 -9 -43 -4 -9 -6 -20 -5 -25 5 -21 -34 -87 -76 -130 -25
-25 -45 -48 -45 -52 0 -4 -13 -13 -28 -20 -15 -6 -45 -27 -65 -46 -20 -18 -37
-31 -37 -27 0 3 -5 -2 -11 -12 -19 -32 -97 -59 -174 -59 -71 -1 -99 3 -111 14
-3 4 -12 4 -20 1 -8 -3 -14 0 -14 6 0 6 -9 11 -20 11 -10 0 -24 10 -31 21 -9
17 -8 20 3 13 11 -6 11 -5 0 8 -17 21 0 90 32 133 13 17 28 45 34 64 13 36 67
128 86 146 6 6 29 37 51 70 22 33 43 62 48 63 4 2 7 10 7 18 0 8 45 60 99 117
55 56 117 125 139 154 75 101 111 113 180 63z m-2882 -1000 c0 -11 -1 -20 -2
-20 0 0 -9 9 -19 20 -18 19 -17 20 1 20 13 0 20 -7 20 -20z m-222 -47 c47 -52
37 -54 -15 -4 -24 23 -38 41 -31 41 6 0 27 -17 46 -37z m-264 5 c0 -7 14 -27
32 -45 24 -25 28 -33 15 -33 -9 0 -17 6 -17 13 0 7 -13 23 -30 35 -33 24 -39
42 -15 42 8 0 15 -5 15 -12z m540 -13 c10 -12 10 -15 -3 -15 -8 0 -17 7 -21
15 -3 8 -2 15 3 15 5 0 14 -7 21 -15z m-784 -12 c-3 -4 10 -24 31 -45 22 -22
31 -38 23 -38 -8 1 -32 21 -53 45 -36 42 -37 45 -16 45 12 0 19 -3 15 -7z
m960 -13 c0 -11 -1 -20 -2 -20 0 0 -9 9 -19 20 -18 19 -17 20 1 20 13 0 20 -7
20 -20z m-1206 -18 c0 -10 11 -29 25 -42 26 -25 32 -40 15 -40 -6 0 -14 10
-19 23 -5 12 -18 31 -30 41 -25 22 -27 36 -6 36 8 0 15 -8 15 -18z m960 -3 c0
-18 -2 -19 -15 -9 -15 12 -12 30 6 30 5 0 9 -10 9 -21z m319 -46 c2 -2 -4 -3
-15 -3 -11 0 -24 12 -31 27 l-13 26 28 -24 c15 -13 29 -25 31 -26z m-1525 24
c-2 -7 7 -24 21 -37 28 -27 32 -40 10 -40 -8 0 -15 6 -15 13 0 8 -11 24 -25
37 -30 28 -32 40 -5 40 12 0 17 -5 14 -13z m964 -2 c-2 -8 12 -27 31 -43 19
-16 30 -31 25 -34 -5 -3 -28 16 -52 43 -38 43 -41 49 -22 49 13 0 20 -5 18
-15z m287 -25 c19 -19 24 -30 14 -30 -8 0 -22 14 -31 30 -21 38 -19 37 17 0z
m-535 -2 c0 -7 14 -26 31 -44 17 -17 27 -34 22 -37 -4 -2 -27 17 -51 44 -38
42 -41 49 -23 49 12 0 21 -5 21 -12z m-217 -75 c24 -26 27 -33 14 -33 -9 0
-17 4 -17 10 0 5 -14 25 -30 44 -21 23 -26 36 -18 39 7 2 15 -3 16 -12 2 -9
18 -31 35 -48z m884 42 c-4 -9 9 -26 35 -47 23 -17 36 -34 30 -36 -9 -3 -102
81 -102 93 0 3 9 5 21 5 14 0 19 -5 16 -15z m-1167 -22 c0 -9 14 -32 32 -50
20 -21 26 -33 17 -33 -7 0 -28 17 -45 38 -45 56 -48 62 -25 62 13 0 21 -7 21
-17z m1517 11 c-3 -3 -12 -4 -19 -1 -8 3 -5 6 6 6 11 1 17 -2 13 -5z m-597
-16 c0 -7 17 -29 37 -50 28 -28 33 -38 20 -38 -10 0 -21 8 -24 18 -4 9 -23 31
-42 49 -33 30 -34 32 -13 33 12 0 22 -5 22 -12z m-2025 -16 c-3 -3 -11 0 -18
7 -9 10 -8 11 6 5 10 -3 15 -9 12 -12z m849 -3 c-3 -6 8 -26 26 -44 20 -20 28
-35 21 -39 -14 -9 -31 1 -31 18 0 7 -11 23 -25 36 -30 29 -32 40 -4 40 12 0
17 -4 13 -11z m922 -7 c-3 -5 10 -24 29 -42 19 -19 35 -38 35 -43 0 -15 -14
-4 -59 46 -39 42 -41 47 -22 47 12 0 20 -4 17 -8z m-1181 -21 c-3 -6 8 -25 25
-45 20 -22 27 -37 20 -41 -6 -4 -12 -5 -13 -4 -1 2 -17 25 -35 52 -31 44 -32
47 -12 47 12 0 19 -4 15 -9z m926 -8 c0 -4 16 -24 35 -44 26 -27 32 -39 23
-45 -8 -4 -15 -2 -17 6 -3 7 -20 30 -39 50 -22 26 -29 40 -21 43 15 5 20 2 19
-10z m-1185 -18 c-3 -8 7 -28 21 -45 19 -23 23 -34 15 -42 -8 -8 -14 -5 -20
13 -6 13 -19 33 -31 43 -26 23 -27 33 -3 39 9 3 19 5 21 6 2 0 1 -6 -3 -14z
m934 -12 c0 -9 14 -32 32 -50 20 -20 26 -33 17 -33 -17 1 -91 85 -82 94 13 12
33 6 33 -11z m1557 11 c-3 -3 -12 -4 -19 -1 -8 3 -5 6 6 6 11 1 17 -2 13 -5z
m-2750 -28 c-3 -8 5 -29 19 -47 28 -38 30 -49 9 -49 -8 0 -15 4 -15 9 0 4 -12
25 -26 46 -20 30 -23 40 -12 46 20 13 31 11 25 -5z m933 -13 c0 -9 14 -32 32
-50 21 -21 27 -33 17 -33 -8 0 -32 23 -52 50 -33 45 -35 50 -17 50 12 0 20 -7
20 -17z m1007 5 c-2 -7 11 -30 31 -50 20 -21 32 -41 28 -45 -5 -5 -13 1 -20
12 -6 10 -26 33 -43 49 -38 34 -41 46 -12 46 12 0 19 -5 16 -12z m-2207 -27
c0 -10 10 -30 21 -45 14 -18 18 -31 12 -37 -6 -6 -21 8 -41 40 -20 33 -26 51
-19 55 22 8 27 6 27 -13z m940 -8 c0 -9 14 -32 32 -50 30 -31 31 -33 10 -33
-12 0 -22 6 -22 13 0 8 -9 22 -21 33 -11 10 -25 27 -30 36 -8 15 -6 18 11 18
12 0 20 -7 20 -17z m1010 -3 c0 -10 16 -32 35 -47 38 -30 44 -43 20 -43 -9 0
-20 11 -25 24 -5 14 -23 35 -39 47 -36 26 -39 39 -11 39 13 0 20 -7 20 -20z
m-2220 -17 c0 -10 9 -29 20 -43 23 -29 25 -40 8 -40 -15 1 -69 86 -60 94 12
12 32 5 32 -11z m950 -9 c0 -8 12 -31 26 -50 19 -24 22 -34 12 -34 -12 0 -78
81 -78 95 0 3 9 5 20 5 11 0 20 -7 20 -16z m-1216 -19 c-3 -8 4 -30 16 -50 18
-28 19 -35 6 -35 -16 0 -68 79 -60 92 10 15 44 9 38 -7z m946 -11 c0 -9 11
-29 25 -46 28 -33 32 -48 13 -48 -7 0 -26 22 -43 48 -40 63 -40 62 -16 62 13
0 21 -6 21 -16z m1020 -1 c0 -9 14 -32 32 -50 17 -18 28 -36 25 -40 -7 -7 -96
85 -97 100 0 4 9 7 20 7 12 0 20 -7 20 -17z m170 3 c0 -3 -4 -8 -10 -11 -5 -3
-10 -1 -10 4 0 6 5 11 10 11 6 0 10 -2 10 -4z m-1455 -27 c-4 -5 5 -28 19 -49
16 -25 22 -41 15 -46 -6 -3 -11 -4 -13 -3 -1 2 -10 16 -19 32 -9 15 -24 38
-33 52 -16 24 -16 25 10 25 17 0 25 -4 21 -11z m1022 -1 c-2 -7 12 -31 31 -52
25 -29 31 -41 22 -44 -8 -3 -19 3 -25 13 -5 10 -22 33 -37 50 -33 39 -34 45
-7 45 12 0 19 -5 16 -12z m-1297 -34 c0 -9 10 -29 21 -46 14 -18 18 -33 12
-39 -6 -6 -21 9 -41 40 -38 57 -38 61 -12 61 12 0 20 -7 20 -16z m1030 -3 c0
-11 4 -22 10 -26 5 -3 19 -19 30 -35 16 -22 18 -30 8 -30 -8 0 -30 21 -49 48
-44 61 -44 62 -20 62 14 0 21 -6 21 -19z m-1303 -25 c-3 -7 3 -26 14 -42 21
-32 25 -54 9 -54 -10 0 -60 81 -60 98 0 7 9 12 21 12 14 0 19 -5 16 -14z
m1033 -2 c0 -8 11 -30 25 -48 28 -37 31 -46 13 -46 -7 1 -26 22 -43 47 -40 62
-40 63 -16 63 12 0 21 -6 21 -16z m3257 -1209 c0 -8 -4 -12 -9 -9 -4 3 -8 9
-8 15 0 5 4 9 8 9 5 0 9 -7 9 -15z m-517 -65 c0 -5 -2 -10 -4 -10 -3 0 -8 5
-11 10 -3 6 -1 10 4 10 6 0 11 -4 11 -10z m-568 -89 c-3 -8 3 -20 13 -27 11
-8 13 -14 6 -14 -7 0 -9 -5 -5 -11 3 -6 -5 -4 -18 5 -14 9 -28 13 -31 9 -4 -3
-7 -1 -7 5 0 7 8 12 17 12 13 0 14 3 5 12 -9 9 -17 7 -33 -8 -15 -12 -20 -14
-15 -4 7 13 6 13 -6 0 -15 -17 -48 -25 -48 -12 0 17 -39 54 -49 47 -6 -3 -11
-4 -11 0 0 11 55 28 87 26 17 -1 34 3 38 9 9 15 63 -32 57 -49z m118 45 c0 -3
-4 -8 -10 -11 -5 -3 -10 -1 -10 4 0 6 5 11 10 11 6 0 10 -2 10 -4z m-508 -93
c-6 -3 -10 -8 -8 -12 3 -4 -1 -8 -9 -8 -24 0 -17 23 8 24 12 0 16 -1 9 -4z
m136 -43 c-19 -29 -98 -35 -98 -7 0 6 3 7 6 4 4 -3 17 2 30 12 14 11 33 16 48
14 21 -4 23 -8 14 -23z m-338 10 c0 -6 13 -18 28 -28 48 -30 17 -70 -60 -77
-32 -3 -39 -1 -37 13 3 33 -1 53 -10 48 -5 -3 -11 1 -15 9 -6 17 29 22 39 5 9
-14 27 -1 21 15 -3 8 0 16 7 19 20 8 27 7 27 -4z m113 -62 c-2 -4 -10 -5 -18
-2 -11 5 -12 10 -2 25 11 18 12 18 18 1 4 -9 5 -20 2 -24z m591 -40 c-9 -14
-23 2 -17 18 4 12 8 13 14 3 4 -7 5 -17 3 -21z m-1250 -52 c-3 -7 2 -16 10
-19 9 -4 13 -13 10 -22 -7 -17 2 -18 31 -4 19 9 18 9 -3 5 -12 -2 -20 0 -16 5
3 5 12 9 20 9 8 0 12 5 9 10 -3 6 -3 10 2 10 12 0 31 -47 24 -57 -3 -5 -18
-16 -33 -26 -30 -19 -122 -32 -112 -16 7 13 -27 53 -35 41 -11 -17 -66 -21
-85 -7 -30 22 -4 45 45 41 22 -2 39 0 39 6 0 6 17 8 43 4 23 -3 34 -3 25 0
-21 6 -23 20 -5 27 23 10 36 7 31 -7z m1418 -28 c-9 -9 -15 -9 -24 0 -9 9 -7
12 12 12 19 0 21 -3 12 -12z m138 -14 c0 -8 -19 -13 -24 -6 -3 5 1 9 9 9 8 0
15 -2 15 -3z m-2030 -100 c0 -8 -5 -12 -10 -9 -6 4 -8 11 -5 16 9 14 15 11 15
-7z m-30 -6 c0 -4 -6 -9 -12 -9 -7 -1 -23 -3 -35 -4 -24 -2 -31 10 -10 18 18
7 57 4 57 -5z"/>
<path d="M6310 280 c0 -5 5 -10 10 -10 6 0 10 5 10 10 0 6 -4 10 -10 10 -5 0
-10 -4 -10 -10z"/>
<path d="M1170 8009 c0 -5 9 -9 20 -9 11 0 20 2 20 4 0 2 -9 6 -20 9 -11 3
-20 1 -20 -4z"/>
<path d="M497 7840 c6 -84 30 -251 37 -257 26 -26 15 68 -29 262 l-13 60 5
-65z"/>
<path d="M1619 7853 c-3 -46 1 -91 10 -113 l10 -25 1 25 c5 91 2 130 -10 130
-5 0 -11 -8 -11 -17z"/>
<path d="M4420 7140 c0 -5 5 -10 10 -10 6 0 10 5 10 10 0 6 -4 10 -10 10 -5 0
-10 -4 -10 -10z"/>
<path d="M4477 7143 c-11 -19 13 -51 42 -55 32 -5 35 0 25 40 -5 16 -14 22
-35 22 -15 0 -30 -3 -32 -7z"/>
<path d="M4508 7028 c9 -9 15 -9 24 0 9 9 7 12 -12 12 -19 0 -21 -3 -12 -12z"/>
<path d="M6808 6885 c-26 -7 -62 -22 -80 -33 -73 -45 -97 -83 -179 -282 -43
-106 -79 -197 -79 -202 0 -4 8 -8 19 -8 20 0 71 -36 71 -51 0 -5 -8 -9 -18 -9
-26 0 -182 -57 -201 -74 -9 -7 -21 -11 -28 -9 -19 7 -142 -64 -216 -125 -120
-97 -221 -212 -216 -244 1 -7 -1 -25 -6 -41 -18 -65 97 -166 311 -272 72 -36
134 -65 137 -65 4 0 -8 20 -27 45 -32 41 -56 114 -56 167 0 12 7 48 16 80 14
49 20 58 39 58 54 0 385 -119 518 -187 44 -22 48 -27 42 -51 -3 -14 -27 -54
-53 -89 -47 -64 -90 -93 -162 -109 l-35 -7 44 -14 c24 -7 90 -19 146 -28 178
-26 274 -17 322 31 23 23 24 26 18 151 -7 155 -37 270 -62 237 -10 -14 -14
-42 -11 -104 1 -47 -2 -93 -8 -102 -9 -16 -14 -15 -60 16 -37 25 -58 49 -77
88 -28 57 -64 90 -109 102 -17 4 -30 15 -33 29 -6 24 28 185 47 223 10 20 14
160 7 194 -3 11 6 16 30 18 l34 4 -29 23 c-23 18 -26 26 -17 36 10 10 15 10
27 -1 35 -28 62 7 110 141 18 52 46 126 61 166 30 80 28 121 -7 131 -18 4 -20
11 -16 64 5 66 -5 81 -69 104 -47 16 -84 16 -145 -1z m322 -1385 c0 -11 -4
-20 -10 -20 -5 0 -10 9 -10 20 0 11 5 20 10 20 6 0 10 -9 10 -20z"/>
<path d="M7138 6622 c-8 -31 -37 -111 -63 -177 -92 -235 -94 -244 -78 -260 8
-8 24 -15 37 -15 48 0 144 -168 188 -331 21 -76 23 -105 22 -294 0 -222 -11
-293 -62 -407 -11 -24 -25 -60 -32 -81 -28 -89 -199 -362 -278 -446 -23 -26
-51 -56 -62 -68 -16 -19 -24 -21 -45 -13 -41 16 -45 13 -44 -32 0 -39 17 -100
18 -70 2 24 101 14 164 -17 l58 -28 25 30 c13 16 32 43 41 61 9 17 53 85 97
151 76 111 133 216 186 340 11 28 25 59 30 70 11 22 57 175 66 215 3 14 9 42
15 63 25 93 33 301 18 452 -15 158 -102 395 -182 496 -24 30 -47 37 -47 15 0
-31 -23 -26 -62 15 -38 39 -42 41 -52 23 -6 -10 -16 -20 -23 -21 -15 -3 -4 37
52 178 43 108 54 169 37 196 -5 7 -14 -10 -24 -45z m-31 -347 c0 -8 -4 -15 -9
-15 -10 0 -11 14 -1 23 9 10 10 9 10 -8z"/>
<path d="M313 6401 c-59 -37 -77 -102 -47 -167 17 -36 36 -50 85 -64 66 -19
151 38 151 102 0 41 -24 97 -51 122 -31 28 -99 31 -138 7z"/>
<path d="M7005 6140 c3 -5 8 -10 11 -10 2 0 4 5 4 10 0 6 -5 10 -11 10 -5 0
-7 -4 -4 -10z"/>
<path d="M5440 5279 c-470 -20 -1217 -54 -1660 -73 -1268 -57 -1195 -50 -1250
-110 -21 -24 -25 -39 -28 -104 -3 -70 43 -815 68 -1087 5 -60 14 -186 20 -280
6 -93 28 -434 50 -757 38 -560 47 -734 30 -613 -4 28 -8 40 -8 29 -2 -16 -11
-23 -37 -28 -19 -4 -35 -11 -35 -17 0 -11 38 -8 60 5 8 5 12 6 9 2 -4 -4 -3
-22 1 -40 7 -32 6 -34 -24 -39 -17 -3 -69 -13 -116 -22 -47 -9 -132 -25 -190
-35 -253 -45 -340 -64 -337 -74 2 -6 14 -12 28 -14 20 -2 21 -1 9 8 -12 9 -7
10 22 5 26 -4 40 -1 52 10 9 9 16 12 16 6 0 -6 12 -11 28 -12 32 -1 -120 -38
-160 -38 -16 -1 -28 4 -28 10 0 5 4 8 9 4 5 -3 12 -1 16 5 9 15 -25 25 -44 13
-9 -5 -40 -9 -68 -9 -29 1 -54 -3 -56 -7 -3 -9 -116 -28 -174 -31 -18 0 -33
-5 -33 -9 0 -5 -8 -6 -19 -2 -12 3 -21 0 -25 -10 -3 -9 -10 -14 -15 -10 -6 3
-15 -4 -22 -16 -9 -17 -13 -19 -20 -8 -6 11 -11 11 -21 1 -6 -6 -17 -12 -23
-12 -5 0 -3 5 5 10 13 8 13 10 -2 10 -9 0 -20 -5 -23 -10 -3 -6 -15 -10 -25
-10 -10 0 -24 -8 -29 -18 -6 -9 -11 -11 -11 -4 0 7 -13 12 -30 12 -16 0 -30 4
-30 9 0 23 14 41 31 41 10 0 19 5 19 10 0 6 -11 8 -25 4 -19 -5 -25 -2 -25 11
0 9 4 14 8 11 4 -2 14 -1 21 3 15 10 74 -16 66 -29 -3 -5 -1 -11 5 -15 5 -3
10 1 10 9 0 8 -5 18 -10 21 -8 5 -7 12 2 23 12 15 11 16 -4 3 -15 -11 -19 -11
-24 2 -4 12 -16 14 -45 11 -40 -5 -43 -1 -42 52 0 6 -6 11 -14 10 -10 -1 -29
35 -57 109 -53 137 -69 168 -103 195 -48 38 -154 14 -223 -50 l-29 -27 -3 26
c-3 23 -8 26 -46 29 -54 4 -81 -13 -127 -77 l-35 -48 -55 15 c-50 14 -61 14
-131 -3 -135 -32 -261 -8 -399 76 -55 33 -66 45 -42 46 6 0 37 5 67 11 30 7
70 13 88 14 33 2 46 18 15 18 -17 0 -100 -12 -181 -26 l-33 -5 3 -67 3 -67
135 -52 135 -52 -60 0 c-33 0 -78 -3 -100 -5 -31 -4 -34 -3 -15 3 38 14 1 12
-50 -2 -39 -10 -45 -16 -48 -41 l-4 -29 49 5 c26 3 40 4 31 1 -10 -2 -18 -9
-18 -13 0 -5 -15 -7 -32 -4 -23 4 -29 3 -19 -4 9 -7 10 -12 2 -16 -15 -10 -14
-66 2 -66 8 0 7 -4 -3 -10 -17 -11 -1 -13 25 -4 13 5 14 8 3 15 -9 6 -4 9 15
9 16 0 26 -4 22 -10 -3 -5 -2 -10 3 -10 6 0 12 6 15 14 5 13 60 25 147 31 38
3 40 3 14 -4 -39 -10 -168 -72 -172 -83 -2 -4 -21 -11 -42 -14 l-39 -6 -1
-322 0 -323 31 5 c22 3 30 1 25 -7 -4 -6 -18 -11 -32 -11 l-24 0 0 -170 c0
-93 2 -170 5 -170 3 0 21 6 40 14 35 15 68 54 63 77 -4 18 78 57 167 80 39 9
84 23 100 30 17 6 48 13 70 14 22 1 60 8 84 15 33 10 46 10 49 2 2 -7 15 -9
34 -5 27 5 30 4 24 -15 -15 -48 52 -50 191 -7 23 7 44 11 46 8 11 -10 67 9 67
23 0 14 -25 15 -48 1 -6 -5 -12 -4 -12 2 0 6 18 15 40 21 42 11 52 26 23 33
-13 3 -9 6 12 11 17 5 68 20 115 34 47 14 94 26 105 28 11 1 38 5 60 7 55 7
98 18 112 29 6 5 35 10 65 12 80 5 130 17 157 37 29 23 45 24 37 3 -5 -13 -2
-15 16 -10 13 3 29 6 36 6 9 0 11 7 7 19 -4 12 0 21 11 25 12 5 15 2 10 -11
-5 -14 -4 -15 4 -7 15 15 43 8 57 -14 17 -28 25 -79 14 -87 -24 -14 -1 -153
30 -181 14 -12 15 -20 6 -43 -9 -24 -7 -33 12 -59 16 -24 36 -100 77 -299 54
-265 86 -367 121 -380 23 -9 28 5 8 27 -17 18 -17 21 -1 45 9 14 25 25 36 25
28 0 26 46 -5 200 -14 67 -41 212 -60 322 -20 110 -40 219 -45 242 -5 23 -5
45 0 50 10 10 109 -42 124 -66 8 -13 6 -25 -8 -48 -40 -68 -15 -159 59 -216
40 -30 249 -126 390 -179 132 -49 154 -61 160 -88 10 -41 1 -335 -11 -347 -6
-6 -139 -67 -295 -136 -156 -68 -297 -130 -314 -138 -26 -13 105 -15 1057 -15
l1087 -1 12 21 c6 12 7 19 1 15 -5 -3 -24 11 -41 31 -17 20 -31 31 -31 24 0
-7 -4 -9 -10 -6 -13 8 -13 55 -1 55 10 0 9 26 -2 36 -3 4 5 20 19 37 14 16 23
36 20 44 -4 8 -6 21 -6 28 0 8 -18 26 -40 42 -22 15 -40 33 -40 39 0 6 -7 17
-15 24 -8 7 -12 17 -8 23 3 6 1 7 -5 3 -7 -4 -12 -3 -12 2 0 5 -20 23 -44 40
-40 29 -79 43 -161 59 -16 3 -34 6 -40 7 -5 2 -37 15 -69 30 -33 14 -71 27
-84 29 -14 1 -27 9 -30 19 -2 10 -10 18 -17 18 -18 0 -95 42 -95 52 0 4 -7 8
-16 8 -9 0 -37 15 -63 33 -53 38 -94 57 -121 57 -20 0 -186 65 -205 80 -5 4
-48 20 -93 34 -46 14 -92 31 -103 36 -10 6 -42 15 -71 20 -66 13 -130 44 -168
81 -16 16 -53 42 -82 58 -29 15 -62 32 -73 38 -82 45 -191 92 -234 103 -49 12
-54 11 -76 -10 -20 -19 -31 -22 -66 -16 -43 7 -99 34 -99 48 0 4 19 12 43 19
23 6 61 20 84 30 24 11 57 19 75 19 18 1 57 9 86 19 29 10 55 14 58 10 5 -8
-11 -17 -55 -31 -8 -2 12 -10 45 -18 32 -8 62 -18 66 -24 5 -7 20 -7 48 1 35
9 42 8 47 -4 5 -11 15 -14 44 -9 30 5 37 3 33 -8 -3 -9 5 -15 26 -20 18 -3 34
-14 37 -23 6 -24 84 -73 116 -73 34 0 58 10 51 21 -3 5 0 9 5 9 6 0 11 9 11
21 0 35 18 56 61 73 l42 17 -33 28 c-27 22 -32 32 -27 53 9 34 54 87 84 99 22
8 23 10 9 41 -25 60 -256 563 -266 580 -13 22 -13 38 0 18 8 -12 11 -12 27 1
33 28 59 33 428 74 l140 16 22 -27 c25 -32 -37 -36 643 35 1235 130 1573 165
1935 201 215 22 410 42 434 45 l43 7 -22 23 -22 24 33 5 c60 10 363 36 412 36
26 0 47 3 47 8 0 4 -25 378 -55 832 -30 454 -68 1039 -85 1300 -17 261 -33
494 -36 516 -15 105 -71 135 -248 133 -61 -1 -496 -19 -966 -40z m1005 -171
c2 -7 11 -125 20 -263 8 -137 17 -272 20 -300 7 -68 75 -1100 75 -1137 0 -26
-2 -29 -15 -18 -8 7 -15 28 -15 47 0 57 -25 91 -88 119 l-56 25 -47 -26 c-54
-29 -94 -32 -143 -8 -34 16 -37 15 -71 -3 -20 -10 -50 -31 -68 -45 -28 -23
-31 -33 -38 -105 -4 -43 -6 -80 -5 -82 5 -4 508 37 529 44 9 3 19 0 22 -8 6
-17 44 -572 39 -577 -3 -4 -323 -34 -493 -46 -101 -8 -100 -8 -101 90 0 28 -3
66 -6 87 -6 36 -8 36 -66 47 -86 15 -105 36 -127 139 -13 63 -60 136 -101 157
-33 17 -90 20 -90 4 0 -5 -5 -7 -11 -4 -13 9 -49 -23 -49 -43 0 -9 -9 -41 -19
-71 -12 -35 -21 -97 -25 -166 -3 -60 -5 -111 -6 -112 0 -2 -4 -3 -10 -3 -5 0
-7 7 -4 15 4 8 3 15 0 15 -4 0 -16 -21 -26 -46 -11 -26 -30 -60 -41 -76 -14
-19 -20 -39 -17 -59 3 -17 0 -32 -6 -34 -6 -2 -144 -16 -306 -29 -162 -14
-310 -28 -327 -30 -31 -4 -33 -3 -34 27 l-1 32 -9 -32 c-6 -22 -16 -33 -28
-33 -10 0 -89 -7 -177 -15 -87 -9 -175 -15 -194 -15 -19 0 -60 -4 -90 -9 -30
-5 -74 -10 -97 -10 -38 -1 -42 1 -48 29 -4 17 -15 35 -25 40 -26 14 -38 12
-18 -3 9 -7 18 -26 20 -43 3 -29 3 -29 -54 -32 l-58 -3 -1 38 c-1 21 -5 52 -9
68 -7 27 -8 24 -10 -20 -2 -53 -6 -84 -12 -91 -3 -2 -50 -7 -105 -10 l-100 -7
-24 32 c-29 40 -39 39 -39 -4 0 -47 -30 -50 -31 -2 -1 28 -2 29 -8 8 l-6 -24
-13 28 c-7 15 -15 25 -18 22 -3 -3 2 -19 10 -36 9 -16 16 -33 16 -36 0 -7
-110 -5 -122 2 -4 2 0 23 8 46 l14 42 -20 -25 c-11 -14 -20 -35 -20 -47 0 -12
-4 -24 -9 -27 -9 -6 -4 85 6 94 2 3 10 5 15 5 6 0 13 7 15 15 4 13 3 13 -7 0
-9 -12 -10 -8 -5 17 5 26 2 34 -15 43 -26 14 -36 8 -15 -10 17 -14 20 -46 6
-55 -5 -3 -12 7 -14 22 -3 22 -4 20 -6 -12 l-3 -40 -18 50 c-23 61 -25 34 -5
-60 19 -90 19 -92 -9 -19 -13 36 -21 75 -18 95 2 24 -1 39 -12 48 -14 12 -16
12 -11 -1 3 -8 2 -32 -3 -54 -5 -21 -5 -51 -1 -67 4 -16 4 -25 -2 -21 -5 3 -9
-2 -9 -10 0 -9 -5 -16 -11 -16 -5 0 -7 4 -4 10 3 5 2 17 -3 26 -7 13 -11 6
-16 -30 -4 -27 -12 -46 -20 -46 -7 0 -34 -3 -59 -6 l-45 -6 -9 53 c-6 33 -14
53 -21 52 -7 -2 -12 2 -12 8 0 6 7 8 16 5 46 -18 66 -17 99 2 31 19 35 19 43
5 14 -24 25 2 18 43 l-7 34 -30 -35 c-32 -36 -53 -42 -79 -24 -11 8 -12 12 -2
16 6 2 12 11 12 18 0 8 10 20 23 26 36 19 67 51 67 71 0 10 -3 18 -8 18 -4 0
-12 10 -17 22 -11 24 -38 39 -30 15 5 -11 -5 -14 -45 -13 -27 1 -50 2 -50 3 0
11 49 71 54 66 3 -4 6 0 6 7 0 9 5 7 15 -6 14 -18 16 -18 26 -1 5 9 14 15 20
12 5 -4 9 -2 9 3 0 6 10 8 23 5 20 -5 20 -4 7 10 -24 25 -205 12 -231 -17 -14
-15 -16 -22 -7 -25 6 -2 14 1 16 7 2 8 9 7 19 -4 10 -10 25 -13 40 -9 16 4 22
2 18 -5 -8 -13 -62 -13 -68 0 -3 6 -4 5 -3 -2 1 -7 12 -14 24 -16 12 -2 22 -6
22 -10 -1 -16 -26 -38 -39 -34 -11 4 -12 -1 -6 -19 4 -13 9 -40 11 -59 1 -19
1 -27 -2 -17 -7 22 -15 22 -40 -1 -10 -10 -27 -16 -36 -14 -9 2 -33 -7 -53
-20 -27 -18 -35 -28 -32 -46 2 -12 0 -25 -5 -28 -4 -3 -7 -2 -6 3 2 4 -1 10
-6 13 -12 7 -28 -38 -16 -45 6 -4 10 -11 10 -18 0 -6 -6 -3 -14 8 -9 14 -18
104 -30 295 -9 151 -21 309 -25 350 -5 41 -6 79 -4 83 3 4 45 28 94 53 50 24
92 51 95 59 8 20 24 9 24 -16 0 -10 5 -19 11 -19 7 0 8 7 4 18 -4 9 -10 30
-13 46 l-5 29 34 -37 c31 -32 39 -36 90 -37 53 -2 55 -3 51 -25 -6 -32 4 -30
22 4 13 25 13 31 1 43 -12 12 -11 21 10 64 41 84 39 200 -5 250 -10 11 -21 34
-25 52 -6 29 -4 33 19 39 35 8 34 34 -1 34 -27 0 -61 35 -79 83 -7 20 -23 22
-59 5 -30 -14 -34 -48 -5 -48 15 0 20 -7 20 -26 0 -16 -5 -24 -12 -21 -7 2
-12 12 -11 21 1 13 -4 16 -17 13 -14 -3 -17 -1 -13 11 4 10 2 13 -5 8 -7 -4
-12 -14 -12 -22 0 -18 51 -84 65 -84 5 0 24 15 43 33 18 17 30 25 27 16 -4
-10 -2 -20 4 -24 6 -3 11 -22 11 -41 l0 -34 -59 0 c-32 0 -78 -3 -102 -6 l-44
-6 -3 76 c-2 42 0 76 5 77 30 3 48 9 51 19 10 28 68 80 90 80 13 0 21 4 17 10
-3 5 -11 7 -18 5 -7 -2 -24 -6 -38 -9 -15 -3 -36 -20 -48 -38 -11 -18 -21 -27
-21 -20 0 7 -5 10 -11 6 -8 -4 -9 1 -4 17 13 42 35 69 58 69 24 0 62 20 39 20
-9 0 -10 5 -2 19 13 26 13 31 -3 31 -9 0 -14 15 -15 48 -2 51 -19 72 -58 72
-24 0 -44 -19 -22 -21 10 0 10 -2 1 -6 -20 -8 -15 -21 10 -25 12 -2 21 -9 19
-16 -1 -7 2 -22 8 -32 6 -11 7 -20 3 -20 -13 0 -30 14 -36 30 -4 8 -5 -5 -2
-30 8 -74 7 -82 -17 -107 -19 -20 -21 -28 -12 -52 9 -21 8 -32 -2 -46 -8 -10
-14 -29 -14 -41 0 -13 -4 -26 -10 -29 -5 -3 -10 -18 -10 -33 0 -46 -14 -56
-83 -60 l-63 -4 -18 238 c-9 132 -21 298 -26 369 -4 72 -16 239 -26 372 -10
134 -15 245 -12 248 3 4 246 19 540 35 293 16 568 31 611 35 67 5 77 3 77 -11
0 -11 6 -15 20 -11 11 3 23 1 26 -4 3 -5 -6 -9 -19 -9 -23 0 -24 -3 -20 -52
10 -137 16 -155 45 -124 11 11 16 11 35 -1 27 -18 29 -30 6 -55 -22 -25 -33
-23 -33 7 0 19 -5 25 -21 25 -21 0 -21 -3 -15 -67 4 -36 9 -70 12 -75 11 -17
30 -5 67 42 21 28 45 50 53 50 8 0 14 4 14 9 0 9 -50 56 -89 83 -14 10 -23 30
-27 61 -6 41 -3 51 20 82 31 41 54 44 105 13 l36 -21 -28 30 c-26 28 -27 32
-10 37 10 3 77 8 148 11 72 3 148 7 170 10 22 3 164 12 315 20 151 8 357 20
457 26 100 6 192 9 205 8 13 -1 48 1 78 5 30 3 215 15 410 26 195 11 375 21
400 23 97 7 111 7 115 -5z m-3197 -1451 c6 -5 12 -21 12 -38 0 -24 -4 -29 -23
-29 -24 0 -47 -17 -47 -35 0 -7 14 -9 35 -7 19 2 32 8 29 13 -8 14 12 11 24
-4 6 -7 9 -22 7 -32 -2 -11 -4 -27 -4 -37 -1 -9 -10 -27 -21 -40 -11 -12 -29
-35 -41 -50 -23 -31 -50 -36 -69 -13 -7 8 -18 15 -24 15 -6 0 -23 11 -38 25
-15 14 -36 25 -47 25 -11 0 -23 5 -26 10 -13 21 -23 175 -13 188 20 23 31 12
26 -26 -3 -22 0 -49 7 -62 12 -22 13 -20 20 26 5 27 9 53 9 58 1 5 9 12 20 16
26 9 148 7 164 -3z m2458 -481 c30 -21 71 -147 57 -178 -6 -14 -9 -36 -6 -50
6 -32 -34 -64 -70 -55 -21 6 -21 6 3 -13 23 -18 26 -18 44 -2 10 9 27 30 37
46 l18 29 5 -34 c3 -19 8 -75 11 -125 l6 -91 -32 -7 c-76 -15 -84 -5 -114 144
-15 74 -23 91 -57 128 -33 36 -39 49 -34 73 3 16 2 29 -2 29 -5 0 -9 17 -10
38 -2 27 4 47 19 66 20 25 26 27 63 22 23 -4 50 -13 62 -20z m-2456 -426 c11
-7 12 -12 3 -21 -12 -12 -37 -3 -28 11 3 4 -5 6 -17 2 -14 -3 -19 -2 -14 6 9
14 35 15 56 2z m2283 -77 c-7 -2 -21 -2 -30 0 -10 3 -4 5 12 5 17 0 24 -2 18
-5z m-2401 -50 c-9 -3 -10 -9 -3 -17 8 -9 7 -13 -3 -13 -11 0 -14 12 -7 35 1
1 7 2 14 1 9 0 9 -2 -1 -6z m8 -49 c0 -8 -19 -13 -24 -6 -3 5 1 9 9 9 8 0 15
-2 15 -3z m-109 -94 c-5 -24 -5 -24 -9 -2 -2 14 -8 20 -15 16 -8 -5 -8 -2 1 7
6 7 12 22 13 34 1 17 2 16 8 -5 4 -14 5 -36 2 -50z m669 50 c9 -16 8 -20 -5
-20 -8 0 -15 9 -15 20 0 11 2 20 5 20 2 0 9 -9 15 -20z m-640 -30 c0 -22 -3
-40 -7 -40 -5 0 -8 18 -8 40 0 22 3 40 8 40 4 0 7 -18 7 -40z m99 -1 c-7 -4
-16 -5 -19 -2 -3 3 0 8 7 10 7 2 10 12 7 21 -4 13 -3 13 6 -2 10 -14 10 -20
-1 -27z m-29 -15 c0 -8 -5 -12 -10 -9 -6 4 -8 11 -5 16 9 14 15 11 15 -7z
m210 12 c0 -3 -4 -8 -10 -11 -5 -3 -10 -1 -10 4 0 6 5 11 10 11 6 0 10 -2 10
-4z m-2243 -148 c28 -31 67 -111 87 -177 9 -30 16 -56 16 -58 0 -12 -93 7
-233 49 -60 19 -67 23 -61 42 20 64 68 126 119 154 30 17 49 14 72 -10z m1520
-213 c0 -8 -6 -15 -13 -15 -8 0 -11 6 -8 15 4 8 9 15 13 15 4 0 8 -7 8 -15z
m-2550 -1 c-3 -3 -12 -4 -19 -1 -8 3 -5 6 6 6 11 1 17 -2 13 -5z m40 -10 c-3
-3 -12 -4 -19 -1 -8 3 -5 6 6 6 11 1 17 -2 13 -5z m884 -17 c-10 -9 -11 -8 -5
6 3 10 9 15 12 12 3 -3 0 -11 -7 -18z m1453 -2 c-5 -13 -2 -14 21 -5 32 12 48
13 41 1 -7 -11 -154 -36 -163 -27 -3 3 3 6 15 6 13 0 22 6 22 14 0 9 13 16 33
19 17 2 33 5 34 5 1 1 0 -5 -3 -13z m134 10 c-10 -10 -49 -14 -43 -4 4 5 16 9
27 9 12 0 19 -2 16 -5z m-321 -41 c-3 -3 -12 -4 -19 -1 -8 3 -5 6 6 6 11 1 17
-2 13 -5z m48 -14 c-11 -5 -33 -8 -50 -8 l-30 0 30 8 c17 4 39 8 50 8 l20 1
-20 -9z m-1382 -59 c-19 -52 -43 -53 -43 -1 0 38 1 39 24 29 16 -8 22 -17 19
-28z m-528 9 c-36 -14 -157 -38 -148 -29 5 5 38 16 74 23 73 16 104 19 74 6z
m140 -35 c22 -13 51 -36 65 -51 26 -28 10 -24 -25 6 -11 10 -45 32 -75 49 -30
18 -44 29 -30 26 14 -4 43 -17 65 -30z m1415 26 c0 -4 -17 -12 -37 -16 -96
-18 -123 -21 -123 -15 0 9 90 31 101 25 5 -4 9 -1 9 4 0 6 11 11 25 11 14 0
25 -4 25 -9z m-865 -22 c11 -11 -35 -3 -70 13 -13 5 -7 6 20 2 22 -3 45 -10
50 -15z m215 0 c-7 -11 -14 -19 -16 -16 -7 7 7 37 17 37 6 0 5 -9 -1 -21z
m940 6 c-7 -8 -17 -15 -23 -15 -6 0 -2 7 9 15 25 19 30 19 14 0z m207 9 c-3
-3 -12 -4 -19 -1 -8 3 -5 6 6 6 11 1 17 -2 13 -5z m-2020 -29 c60 -18 93 -56
71 -82 -12 -15 -11 -15 9 -2 20 12 24 11 38 -6 8 -11 13 -30 10 -42 -3 -13 0
-32 7 -43 11 -18 9 -23 -17 -45 -43 -34 -132 -78 -144 -70 -6 3 -10 18 -9 33
4 68 0 79 -43 96 -38 16 -43 16 -67 0 -26 -17 -176 -29 -167 -13 10 16 -16 20
-36 5 l-22 -15 24 -5 c13 -3 35 -7 49 -9 14 -3 -6 -5 -43 -6 l-69 -1 19 33
c14 24 27 33 51 35 18 2 32 9 32 15 0 8 3 8 8 2 4 -6 20 -8 37 -4 25 6 26 7 8
9 -13 1 -27 4 -33 5 -5 1 -15 3 -22 4 -6 0 -1 10 12 21 12 11 26 17 31 15 4
-3 11 -1 14 5 4 6 16 8 28 4 18 -6 20 -5 10 8 -10 11 -7 17 16 31 61 36 127
43 198 22z m1353 6 c0 -5 -15 -13 -32 -16 -18 -4 -42 -12 -53 -18 -11 -5 -33
-11 -50 -13 -35 -3 -88 -28 -78 -37 3 -4 1 -7 -5 -7 -7 0 -12 4 -12 9 0 5 -9
7 -21 4 -16 -5 -18 -8 -7 -15 9 -7 7 -8 -7 -4 -12 3 -47 -1 -80 -9 -40 -11
-62 -12 -69 -5 -7 7 -5 10 7 10 10 0 20 7 24 16 3 8 12 13 19 10 7 -3 16 -1
19 4 4 6 12 10 18 10 7 0 6 -4 -3 -10 -8 -5 -10 -10 -4 -10 6 0 14 3 18 7 4 4
19 9 34 11 15 2 28 7 30 12 2 5 9 7 17 4 7 -3 16 -1 19 4 3 6 15 8 26 5 16 -4
19 -2 14 11 -3 9 -2 16 4 16 6 0 12 -5 14 -11 2 -6 11 -7 22 -3 19 7 19 8 0
16 -15 6 -13 7 6 2 14 -3 30 -5 35 -5 9 0 86 17 93 20 1 0 2 -3 2 -8z m395 -1
c3 -5 1 -10 -4 -10 -6 0 -11 5 -11 10 0 6 2 10 4 10 3 0 8 -4 11 -10z m172 -5
c0 -17 -13 -20 -21 -6 -4 5 0 12 6 14 7 3 13 6 14 6 0 1 1 -6 1 -14z m368 5
c-3 -5 -16 -10 -28 -9 -21 0 -21 1 -2 9 28 12 37 12 30 0z m-580 -10 c3 -5 -1
-10 -9 -10 -9 0 -16 5 -16 10 0 6 4 10 9 10 6 0 13 -4 16 -10z m172 -10 c4
-13 3 -13 -6 0 -10 13 -13 13 -24 -2 -8 -9 -29 -20 -48 -23 -25 -4 -30 -3 -19
5 8 5 24 10 35 11 l20 0 -20 8 c-19 8 -18 9 5 13 38 8 53 5 57 -12z m-1103 1
c3 -4 -6 -6 -19 -3 -14 2 -25 6 -25 8 0 8 39 4 44 -5z m1356 -6 c-19 -7 -42
-14 -49 -14 -24 -1 1 17 29 22 47 8 55 5 20 -8z m-522 -10 c3 -3 -1 -5 -9 -5
-8 0 -25 -3 -38 -7 -22 -6 -23 -5 -10 9 13 14 44 16 57 3z m59 9 c-3 -3 -12
-4 -19 -1 -8 3 -5 6 6 6 11 1 17 -2 13 -5z m83 -14 c28 -17 -2 -30 -35 -14
-16 8 -22 12 -12 9 9 -2 17 0 17 5 0 12 11 12 30 0z m-417 -7 c-7 -2 -19 -2
-25 0 -7 3 -2 5 12 5 14 0 19 -2 13 -5z m752 -3 c11 -5 14 -9 7 -9 -7 -1 -10
-6 -7 -11 4 -7 -2 -9 -19 -4 -15 3 -32 1 -39 -4 -7 -6 -22 -10 -32 -10 -11 1
-33 -2 -48 -6 -19 -4 -26 -3 -22 4 3 5 1 10 -4 10 -6 0 -11 -6 -11 -12 0 -10
-2 -10 -9 0 -5 9 -17 11 -35 6 -20 -5 -25 -3 -21 8 4 11 21 14 63 12 31 -1 62
2 67 6 21 17 81 22 110 10z m-1832 -7 c-7 -2 -19 -2 -25 0 -7 3 -2 5 12 5 14
0 19 -2 13 -5z m1432 -4 c11 -16 2 -17 -25 -2 -24 12 -24 13 -3 13 12 0 25 -5
28 -11z m-483 -6 c-6 -2 -10 -9 -7 -14 4 -5 -1 -6 -10 -2 -13 5 -14 7 -3 14 7
5 18 8 23 8 6 0 4 -3 -3 -6z m398 3 c0 -2 -7 -6 -15 -10 -8 -3 -15 -1 -15 4 0
6 7 10 15 10 8 0 15 -2 15 -4z m54 -14 c3 -5 -1 -9 -9 -9 -8 0 -12 4 -9 9 3 4
7 8 9 8 2 0 6 -4 9 -8z m-126 -8 c25 -7 30 -24 7 -24 -8 0 -15 4 -15 9 0 5 -8
12 -17 14 -10 3 -13 5 -8 6 6 0 20 -2 33 -5z m293 -7 c-6 -8 -9 -17 -6 -20 3
-4 2 -5 -2 -2 -3 3 -11 1 -17 -4 -6 -5 -31 -12 -55 -16 -34 -6 -42 -4 -39 6 3
8 17 15 31 17 15 2 27 7 27 12 0 5 12 11 28 13 15 2 31 5 36 6 5 0 3 -5 -3
-12z m-569 -4 c-6 -2 -9 -10 -5 -16 4 -7 0 -8 -11 -4 -10 4 -21 7 -24 8 -10 1
31 18 43 18 6 -1 4 -3 -3 -6z m68 -7 c0 -2 -13 -9 -30 -15 -35 -12 -41 -5 -7
9 25 10 37 12 37 6z m160 -16 c-8 -5 -24 -9 -35 -9 -16 1 -16 2 5 9 35 11 48
11 30 0z m-270 -19 c0 -5 -9 -11 -20 -14 -22 -6 -28 8 -7 16 19 8 27 8 27 -2z
m37 3 c-3 -3 -12 -4 -19 -1 -8 3 -5 6 6 6 11 1 17 -2 13 -5z m168 -12 c-3 -3
-11 0 -18 7 -9 10 -8 11 6 5 10 -3 15 -9 12 -12z m-299 -12 c0 -11 -7 -20 -14
-20 -9 0 -12 6 -8 16 5 13 1 15 -21 10 -21 -5 -24 -4 -13 4 26 17 56 12 56
-10z m179 10 c-3 -5 -12 -10 -18 -10 -7 0 -6 4 3 10 19 12 23 12 15 0z m-535
-3 c0 -2 -12 -14 -27 -28 l-28 -24 24 28 c23 25 31 32 31 24z m320 -27 c0 -5
-4 -10 -10 -10 -5 0 -10 5 -10 10 0 6 5 10 10 10 6 0 10 -4 10 -10z m150 6 c0
-2 -9 -6 -20 -9 -11 -3 -18 -1 -14 4 5 9 34 13 34 5z m117 -2 c-3 -3 -12 -4
-19 -1 -8 3 -5 6 6 6 11 1 17 -2 13 -5z m-370 -10 c-3 -3 -12 -4 -19 -1 -8 3
-5 6 6 6 11 1 17 -2 13 -5z m323 -4 c-8 -5 -22 -9 -30 -9 -10 0 -8 3 5 9 27
12 43 12 25 0z m-145 -10 c-3 -5 -14 -10 -23 -9 -14 0 -13 2 3 9 27 11 27 11
20 0z m-168 -16 c-3 -3 -12 -4 -19 -1 -8 3 -5 6 6 6 11 1 17 -2 13 -5z m54
-25 c-25 -11 -52 -18 -60 -16 -9 1 4 10 29 19 63 23 84 21 31 -3z m-1370 -14
c-31 -14 -101 -21 -89 -10 5 6 82 22 108 24 8 0 0 -6 -19 -14z m1273 -25 c-10
-4 -21 -6 -24 -3 -8 7 24 22 34 16 5 -4 1 -10 -10 -13z m196 11 c0 -5 -7 -12
-16 -15 -14 -5 -15 -4 -4 9 14 17 20 19 20 6z m-1446 -15 c-3 -8 -20 -13 -45
-12 -64 1 -43 20 28 25 15 1 21 -3 17 -13z m2230 3 c-2 -4 -17 -12 -34 -19
-16 -7 -30 -16 -30 -21 0 -5 15 -3 33 4 35 14 81 11 72 -4 -4 -5 -17 -9 -30
-9 -34 0 -56 -10 -48 -23 4 -6 0 -8 -10 -4 -29 11 -160 -10 -173 -27 -15 -21
-40 -20 -48 0 -9 24 -8 26 14 19 10 -3 32 1 47 9 27 14 27 15 -29 11 -32 -1
-56 1 -53 5 9 15 106 42 130 37 14 -2 22 -1 20 3 -3 4 15 5 40 2 34 -3 46 -1
50 11 4 8 17 14 30 13 13 0 21 -4 19 -7z m176 -16 c0 -3 -8 -2 -17 1 -9 4 -19
3 -22 -2 -3 -5 -17 -12 -31 -16 -14 -3 -19 -3 -11 0 11 5 11 8 0 15 -11 7 -10
9 4 9 9 0 17 4 17 9 0 6 12 6 30 0 17 -6 30 -13 30 -16z m-865 -13 c-3 -5 -18
-9 -33 -9 l-27 1 30 8 c17 4 31 8 33 9 2 0 0 -3 -3 -9z m-1405 -15 c7 -8 22
-15 34 -15 20 -1 19 -2 -7 -25 -33 -29 -47 -32 -47 -7 0 9 -3 27 -6 40 -7 25
7 29 26 7z m1290 -5 c-8 -5 -22 -9 -30 -9 -10 0 -8 3 5 9 27 12 43 12 25 0z
m25 -30 c-3 -5 -14 -10 -23 -10 -15 0 -15 2 -2 10 20 13 33 13 25 0z m424 0
c-9 -5 -26 -11 -38 -13 -11 -2 -24 -7 -28 -12 -5 -4 8 -5 27 -1 19 4 51 9 70
11 29 4 28 2 -10 -8 -25 -7 -56 -20 -71 -29 -20 -14 -32 -16 -59 -8 -43 12
-40 12 -37 -2 2 -14 -6 -14 -37 -2 -13 5 -17 4 -13 -3 4 -6 1 -15 -6 -21 -16
-13 -87 -11 -87 3 0 6 -7 2 -15 -8 -9 -12 -38 -23 -87 -31 -54 -9 -74 -17 -76
-29 -2 -9 -8 -17 -13 -17 -6 0 -7 5 -3 11 4 8 -1 9 -17 4 -21 -7 -22 -6 -10 9
12 14 11 16 -7 16 -12 0 -23 -4 -26 -9 -7 -10 -76 -21 -164 -26 -66 -3 -127
-30 -127 -56 0 -8 6 -13 13 -11 18 3 15 -55 -3 -61 -8 -4 -17 -2 -19 2 -6 9
-54 3 -61 -8 -5 -10 -75 -1 -75 9 0 5 10 12 23 16 31 9 60 41 44 48 -7 3 -3 8
11 11 12 4 22 11 22 15 0 4 14 13 31 21 26 10 29 14 17 23 -13 10 -12 14 4 31
15 15 18 16 13 3 -5 -13 -2 -15 17 -11 21 6 22 5 9 -11 -13 -16 -11 -17 35
-12 57 5 104 21 104 35 0 10 90 41 118 41 8 0 12 -6 9 -14 -5 -12 1 -12 31 -4
47 13 57 23 15 13 -21 -4 -33 -3 -33 4 0 6 9 11 19 11 11 0 21 5 23 11 2 6 33
12 68 15 36 2 74 6 85 8 11 3 25 5 30 5 6 1 3 6 -5 11 -13 8 -12 10 3 10 9 0
17 -5 17 -10 0 -6 11 -8 27 -4 21 6 25 4 21 -8 -5 -12 6 -14 57 -14 35 1 61 4
58 9 -2 4 1 7 6 7 6 0 11 6 11 14 0 18 16 24 65 25 30 0 36 -2 24 -9z m430 1
c10 -7 10 -10 1 -16 -7 -4 -16 -2 -20 5 -5 8 -16 9 -30 5 -15 -5 -20 -4 -16 4
8 13 45 14 65 2z m-607 -8 c-6 -2 -10 -9 -6 -14 3 -5 -2 -9 -12 -9 -13 0 -14
3 -4 15 7 8 18 15 24 14 7 0 6 -2 -2 -6z m-372 -13 c-8 -5 -22 -9 -30 -9 -10
0 -8 3 5 9 27 12 43 12 25 0z m876 -6 c-5 -14 -1 -15 29 -10 52 10 43 -8 -11
-22 -48 -13 -69 -8 -44 9 11 8 4 9 -23 4 -27 -4 -37 -3 -32 4 3 6 17 11 30 11
13 0 27 5 30 10 10 16 28 11 21 -6z m-241 -24 c-3 -5 0 -8 7 -5 28 9 88 12 88
5 0 -15 -78 -36 -165 -45 -36 -3 -43 -2 -25 4 14 5 19 9 12 10 -7 1 -10 6 -7
12 4 6 13 8 21 5 7 -3 16 -1 19 5 4 5 11 7 16 4 5 -4 9 -1 9 4 0 6 7 11 16 11
8 0 12 -4 9 -10z m-655 -19 c0 -9 -52 -22 -59 -15 -4 3 37 22 52 23 4 1 7 -3
7 -8z m-928 -19 c-18 -14 -20 -20 -10 -30 7 -7 8 -15 3 -21 -16 -15 -58 -17
-62 -3 -3 6 0 12 6 12 6 0 11 5 11 10 0 6 -7 10 -15 10 -31 0 -14 19 23 25 20
4 42 8 47 10 20 7 20 4 -3 -13z m1463 8 c-3 -5 -11 -10 -16 -10 -6 0 -7 5 -4
10 3 6 11 10 16 10 6 0 7 -4 4 -10z m-80 -20 c-3 -5 -21 -10 -38 -9 -31 1 -31
1 -7 9 36 11 52 11 45 0z m618 -11 c8 -11 18 -16 21 -11 3 5 16 12 28 15 21 5
21 5 6 -7 -25 -19 -22 -27 7 -20 14 3 25 2 25 -4 0 -12 -38 -27 -105 -43 -27
-7 -58 -16 -69 -21 -13 -7 -21 -6 -26 2 -6 10 -12 10 -26 0 -18 -11 -18 -11 1
-6 l20 6 -20 -16 c-19 -15 -17 -16 25 -10 32 5 40 4 29 -3 -22 -14 -109 -26
-89 -12 12 8 12 13 2 23 -10 10 -14 10 -22 -2 -5 -8 -6 -18 -4 -22 3 -4 1 -8
-4 -8 -6 0 -13 7 -16 16 -5 13 -9 14 -21 4 -9 -7 -18 -10 -21 -7 -4 3 -20 -7
-37 -23 -36 -33 -117 -56 -129 -37 -6 9 -8 8 -8 -2 0 -10 -9 -12 -35 -8 -23 4
-34 2 -32 -6 1 -6 -6 -13 -15 -15 -11 -2 -18 2 -18 12 0 9 -5 16 -11 16 -6 0
-9 -7 -5 -15 3 -8 1 -15 -5 -15 -10 0 -30 45 -28 64 1 6 -1 19 -6 29 -15 36
21 52 119 53 72 1 91 5 98 19 7 12 17 15 34 11 14 -4 33 -2 43 3 23 13 67 23
111 25 19 2 45 8 58 15 12 6 26 10 30 8 4 -3 16 -1 27 4 34 13 53 10 68 -12z
m-463 -9 c0 -9 -30 -16 -103 -25 -22 -2 -35 0 -32 5 4 6 23 10 43 11 30 1 63
8 90 18 1 1 2 -3 2 -9z m-330 -10 c-20 -13 -33 -13 -25 0 3 6 14 10 23 10 15
0 15 -2 2 -10z m-60 -15 c0 -3 -19 -15 -42 -26 -35 -16 -37 -18 -13 -13 127
25 203 28 113 4 -23 -7 -50 -15 -58 -18 -18 -6 -71 -2 -85 6 -5 3 -23 5 -40 4
-17 -1 -7 4 23 12 30 7 59 19 65 25 11 11 37 15 37 6z m-523 -11 c-3 -3 -12
-4 -19 -1 -8 3 -5 6 6 6 11 1 17 -2 13 -5z m-26 -27 c-1 -4 -3 -6 -4 -4 -9 6
-37 -28 -33 -40 6 -14 4 -15 -35 -17 -20 -1 -26 2 -22 14 3 10 0 9 -11 -4 -9
-11 -16 -14 -16 -8 0 7 -7 12 -16 12 -8 0 -12 5 -9 10 3 6 17 10 30 10 13 0
27 4 30 10 6 10 64 29 78 26 5 -1 8 -5 8 -9z m325 -2 c-18 -14 -96 -22 -96
-10 0 7 61 23 90 24 24 0 24 0 6 -14z m43 -31 c-6 -8 -26 -14 -43 -13 l-31 1
28 10 c15 5 27 14 27 19 0 4 7 6 15 3 12 -5 13 -10 4 -20z m1016 6 c-11 -5
-27 -9 -35 -9 -9 0 -8 4 5 9 11 5 27 9 35 9 9 0 8 -4 -5 -9z m-1255 -64 c0 -3
-4 -8 -10 -11 -5 -3 -10 -1 -10 4 0 6 5 11 10 11 6 0 10 -2 10 -4z m1240 -16
c-20 -13 -43 -13 -35 0 3 6 16 10 28 10 18 0 19 -2 7 -10z m-5 -30 c-27 -12
-43 -12 -25 0 8 5 22 9 30 9 10 0 8 -3 -5 -9z m-2014 -94 c24 4 41 3 37 -1 -9
-9 -114 -46 -125 -43 -5 1 -29 -2 -55 -6 -82 -14 -76 1 9 19 65 15 80 21 76
34 -4 12 -3 13 4 3 7 -9 23 -11 54 -6z m415 -43 c-8 -9 -116 -43 -135 -43 -24
0 0 18 44 34 42 15 104 21 91 9z m1029 -63 c-28 -12 -37 -12 -30 0 3 6 16 10
28 9 21 0 21 -1 2 -9z"/>
<path d="M6078 5078 c-46 -12 -98 -68 -98 -106 0 -19 3 -23 9 -13 10 16 15 3
26 -66 4 -24 11 -46 16 -49 6 -3 7 5 3 22 -6 21 -4 25 7 18 23 -14 79 -13 79
2 0 22 -36 35 -64 24 -17 -6 -26 -6 -26 0 0 6 4 10 9 10 6 0 17 13 27 29 21
36 90 81 124 81 42 0 102 -82 84 -112 -4 -7 -2 -8 4 -4 18 11 14 93 -5 122 -9
14 -28 30 -41 35 -38 14 -113 18 -154 7z"/>
<path d="M5503 5021 c-36 -23 -48 -61 -38 -127 7 -50 25 -69 25 -27 1 15 9 44
18 63 15 30 22 35 55 36 54 1 93 -44 52 -60 -11 -4 -14 -19 -13 -56 1 -27 6
-50 11 -50 5 0 7 -9 4 -20 -3 -10 -1 -20 4 -22 5 -2 2 -15 -6 -30 -10 -20 -11
-28 -2 -28 7 0 13 -16 14 -35 1 -19 -3 -35 -8 -35 -21 0 -89 51 -103 77 l-14
28 -12 -26 c-8 -17 -32 -34 -76 -53 -36 -16 -81 -39 -100 -52 -33 -23 -34 -23
-34 -4 0 16 -5 19 -23 15 -17 -5 -28 1 -45 24 -19 26 -30 31 -65 32 -59 0
-112 20 -111 42 2 15 0 15 -22 -2 -22 -17 -58 -18 -68 -2 -7 10 18 38 39 44
14 3 10 5 -11 6 -18 1 -32 6 -31 14 2 61 -4 86 -23 92 -15 5 -19 12 -15 25 3
10 1 21 -5 25 -8 5 -4 12 9 22 23 15 27 38 10 49 -20 12 -58 -18 -80 -62 -24
-50 -20 -82 17 -156 13 -26 24 -54 24 -62 0 -15 -40 -30 -112 -41 -41 -6 -58
-27 -58 -69 0 -19 -5 -26 -20 -26 -18 0 -20 -7 -20 -67 0 -38 4 -73 8 -79 5
-7 90 -5 282 7 151 9 394 24 540 33 146 9 285 19 309 22 l43 6 -5 40 c-7 49
-21 65 -90 102 -29 16 -61 42 -70 57 -15 27 -14 33 5 94 18 55 19 69 9 89 -7
12 -12 29 -11 37 1 8 2 30 1 49 -1 32 -5 37 -54 58 -63 27 -92 28 -134 3z
m167 -198 c0 -16 -5 -35 -10 -43 -8 -12 -10 -11 -10 7 0 12 -4 24 -10 28 -13
8 -1 35 16 35 9 0 14 -11 14 -27z m-760 -13 c0 -5 -4 -10 -10 -10 -5 0 -10 5
-10 10 0 6 5 10 10 10 6 0 10 -4 10 -10z"/>
<path d="M4277 4960 c-34 -29 -63 -86 -31 -59 19 16 18 9 -11 -53 -29 -62 -31
-97 -9 -177 14 -49 20 -58 35 -54 24 7 25 49 3 74 -18 20 -35 85 -27 105 6 16
41 18 62 5 12 -8 12 -12 -2 -26 -10 -9 -17 -19 -17 -23 1 -4 14 9 30 28 30 35
35 32 33 -18 -1 -9 6 -12 22 -8 13 3 27 1 30 -5 4 -6 0 -9 -11 -7 -12 2 -18
-2 -16 -11 3 -12 1 -12 -14 0 -14 11 -16 11 -10 0 5 -8 3 -17 -5 -22 -11 -7
-9 -9 7 -9 27 0 65 36 58 55 -4 9 0 15 10 15 32 0 14 -67 -28 -102 -18 -15
-19 -17 -4 -18 10 0 23 -9 30 -20 14 -23 34 -26 41 -7 3 6 6 -4 7 -23 1 -31 2
-33 10 -12 7 16 18 22 42 22 18 0 43 3 55 6 l22 6 -25 34 c-14 18 -43 83 -65
144 -21 61 -46 123 -56 138 l-17 27 25 -20 c52 -45 61 -45 14 -2 -50 46 -80
63 -54 30 13 -16 13 -16 -11 0 -38 26 -84 22 -123 -13z m105 -64 c25 -30 22
-43 -10 -54 -25 -8 -122 -5 -122 4 0 19 28 54 53 66 37 18 55 14 79 -16z m38
-106 c0 -5 -11 -10 -25 -10 -14 0 -25 5 -25 10 0 6 11 10 25 10 14 0 25 -4 25
-10z"/>
<path d="M4940 4970 c0 -13 7 -20 20 -20 23 0 26 10 8 28 -18 18 -28 15 -28
-8z"/>
<path d="M3675 4915 c-22 -7 -36 -13 -32 -14 4 -1 3 -10 -3 -21 -8 -14 -8 -20
0 -20 6 0 4 -7 -4 -16 -9 -8 -16 -23 -16 -32 0 -14 3 -14 18 4 9 12 32 24 50
28 29 5 34 2 43 -21 8 -21 7 -29 -6 -35 -11 -7 -14 -21 -11 -60 2 -28 9 -53
14 -57 6 -3 13 -18 17 -32 5 -21 12 -25 38 -24 17 1 37 -4 45 -11 7 -8 21 -14
30 -14 13 0 14 2 4 9 -8 5 -13 25 -12 52 1 24 1 63 2 85 0 27 -9 59 -27 92
-48 89 -83 109 -150 87z m42 -30 c0 -8 -4 -12 -9 -9 -4 3 -8 9 -8 15 0 5 4 9
8 9 5 0 9 -7 9 -15z m57 -147 c-9 -32 -14 -35 -24 -18 -16 24 -11 40 11 40 16
0 19 -4 13 -22z"/>
<path d="M6163 4915 c-8 -22 -1 -26 33 -16 16 5 23 10 16 10 -7 1 -10 6 -7 11
3 6 -3 10 -15 10 -11 0 -23 -7 -27 -15z"/>
<path d="M4195 4900 c3 -5 11 -10 16 -10 6 0 7 5 4 10 -3 6 -11 10 -16 10 -6
0 -7 -4 -4 -10z"/>
<path d="M3055 4891 c-38 -9 -78 -31 -71 -38 3 -3 -5 -14 -17 -25 -12 -11 -15
-17 -7 -13 8 4 6 -1 -5 -10 -17 -13 -20 -27 -19 -79 2 -71 23 -166 37 -166 5
0 6 -15 3 -32 -4 -18 -10 -48 -13 -66 l-5 -33 35 20 c32 18 36 18 52 3 19 -18
19 -16 0 31 -4 10 -3 17 4 17 6 0 11 7 11 15 0 8 -7 15 -15 15 -19 0 -72 73
-80 112 -12 52 3 111 38 149 17 19 30 38 29 43 -2 5 5 5 15 1 10 -4 42 -16 71
-27 58 -22 67 -33 75 -100 7 -53 -6 -102 -36 -135 -11 -13 -17 -26 -14 -30 4
-3 7 -2 7 2 0 5 6 0 14 -11 8 -10 17 -16 20 -13 12 12 20 75 20 161 0 94 -6
105 -79 145 -17 9 -25 18 -17 20 6 3 9 10 5 15 -4 7 2 9 18 5 l24 -6 -24 20
c-25 20 -29 21 -76 10z"/>
<path d="M5523 4893 c-23 -9 -14 -20 12 -15 14 2 22 8 19 13 -6 10 -12 10 -31
2z"/>
<path d="M5050 4863 c0 -21 3 -24 9 -14 5 8 7 20 4 28 -8 21 -13 15 -13 -14z"/>
<path d="M4960 4850 c11 -21 40 -28 40 -9 0 5 6 7 13 3 8 -5 8 -2 -2 9 -7 9
-24 17 -38 17 -21 0 -22 -3 -13 -20z"/>
<path d="M5538 4858 c9 -9 15 -9 24 0 9 9 7 12 -12 12 -19 0 -21 -3 -12 -12z"/>
<path d="M6105 4820 c3 -5 10 -10 16 -10 5 0 9 5 9 10 0 6 -7 10 -16 10 -8 0
-12 -4 -9 -10z"/>
<path d="M4980 4791 c0 -5 5 -13 10 -16 6 -3 10 -2 10 4 0 5 -4 13 -10 16 -5
3 -10 2 -10 -4z"/>
<path d="M6100 4790 c0 -15 38 -32 45 -20 3 5 -1 10 -10 10 -9 0 -13 5 -10 10
3 6 -1 10 -9 10 -9 0 -16 -4 -16 -10z"/>
<path d="M3650 4760 c0 -5 7 -10 15 -10 8 0 15 5 15 10 0 6 -7 10 -15 10 -8 0
-15 -4 -15 -10z"/>
<path d="M6322 4709 c-6 -34 -10 -65 -8 -67 7 -6 29 104 24 118 -2 7 -9 -16
-16 -51z"/>
<path d="M6094 4753 c4 -7 -5 -18 -24 -28 -26 -14 -31 -21 -28 -47 4 -43 26
-47 41 -9 12 33 27 41 27 14 0 -17 74 -93 90 -93 6 0 10 9 10 21 0 15 -5 19
-22 17 -15 -2 -27 5 -37 24 -14 25 -14 28 9 47 l25 20 -27 1 c-15 0 -37 10
-49 23 -12 12 -19 17 -15 10z"/>
<path d="M3000 4731 c25 -7 25 -7 3 -13 -13 -3 -23 -11 -23 -17 0 -14 37 -14
45 -1 4 7 14 2 26 -11 19 -22 19 -22 19 -1 0 26 -36 52 -70 51 l-25 -1 25 -7z"/>
<path d="M3116 4714 c-9 -22 -3 -26 27 -19 17 5 24 12 20 21 -7 19 -39 18 -47
-2z"/>
<path d="M3615 4711 c-5 -16 -3 -26 6 -32 12 -8 12 -10 0 -18 -11 -7 -9 -10 8
-16 34 -10 37 1 14 48 -19 40 -21 41 -28 18z"/>
<path d="M6105 4630 c17 -18 17 -20 2 -14 -9 3 -17 2 -17 -4 0 -10 41 -25 48
-17 6 6 -32 54 -42 55 -5 0 -1 -9 9 -20z"/>
<path d="M3027 4633 c-2 -5 -3 -19 -3 -32 1 -17 8 -25 25 -28 23 -3 24 -3 7
16 -15 17 -15 19 -1 25 9 3 13 10 10 16 -7 12 -32 13 -38 3z"/>
<path d="M3137 4619 c4 -13 8 -18 11 -10 2 7 -1 18 -6 23 -8 8 -9 4 -5 -13z"/>
<path d="M3628 4623 c6 -2 9 -10 6 -15 -4 -7 -2 -8 4 -4 18 11 14 26 -5 25
-11 0 -13 -3 -5 -6z"/>
<path d="M5955 4540 c2 -14 5 -28 5 -32 0 -5 7 -8 15 -8 8 0 15 8 15 18 0 13
-2 14 -9 3 -6 -10 -11 -6 -20 15 -10 25 -11 26 -6 4z"/>
<path d="M4052 4538 c5 -15 28 -23 28 -10 0 5 -7 13 -16 16 -10 4 -14 1 -12
-6z"/>
<path d="M3175 4500 c4 -6 14 -9 23 -5 8 3 19 0 24 -7 7 -10 9 -9 5 2 -2 8
-16 16 -31 18 -19 2 -26 0 -21 -8z"/>
<path d="M4567 4464 c-3 -4 -3 -12 1 -18 4 -6 7 -15 7 -21 0 -5 11 -11 25 -13
22 -3 23 -2 9 10 -9 7 -21 21 -26 31 -5 10 -12 15 -16 11z"/>
<path d="M4144 4453 c4 -7 0 -26 -9 -43 -19 -37 -4 -40 20 -4 16 25 16 27 0
43 -10 9 -15 11 -11 4z"/>
<path d="M6158 4414 c-14 -8 -36 -30 -48 -50 -19 -30 -22 -45 -17 -100 2 -35
12 -75 21 -89 13 -20 15 -37 10 -71 l-6 -44 27 10 c15 6 31 8 36 4 12 -7 11 3
-1 27 -7 13 -7 19 0 19 5 0 10 5 10 11 0 6 -6 9 -12 7 -7 -3 -18 5 -25 16 -53
89 -57 150 -15 196 26 30 29 31 72 21 41 -9 43 -8 25 5 -21 16 -26 35 -12 45
18 13 -40 6 -65 -7z"/>
<path d="M2960 4410 c0 -5 5 -10 11 -10 5 0 7 5 4 10 -3 6 -8 10 -11 10 -2 0
-4 -4 -4 -10z"/>
<path d="M3927 4413 c-11 -10 -8 -43 3 -43 5 0 9 11 8 25 -3 28 -2 27 -11 18z"/>
<path d="M3213 4365 c0 -27 2 -38 4 -22 2 15 2 37 0 50 -2 12 -4 0 -4 -28z"/>
<path d="M4575 4357 c-23 -8 -39 -19 -37 -27 2 -8 -3 -10 -13 -6 -9 3 -14 2
-11 -3 3 -5 -18 -33 -47 -62 -51 -53 -77 -106 -77 -160 0 -24 62 -225 83 -267
6 -13 11 -42 10 -65 l-2 -42 15 28 c11 20 12 32 4 46 -7 13 -7 22 0 26 6 4 4
17 -6 37 -37 71 -74 215 -52 202 4 -3 8 19 9 48 1 73 20 120 55 137 16 8 36
18 45 22 20 9 37 7 65 -9 12 -6 40 -14 63 -18 57 -9 93 -55 90 -113 -3 -37 -5
-41 -28 -40 -24 0 -24 1 -6 9 16 7 17 9 3 9 -36 2 -87 -27 -88 -49 0 -3 16 -5
36 -6 20 0 39 -7 44 -14 6 -10 14 -7 33 13 13 15 27 27 31 27 9 0 7 -56 -5
-129 -10 -53 -19 -73 -46 -101 l-33 -35 37 -13 c41 -14 77 -42 55 -42 -9 0
-10 -5 -2 -19 18 -35 12 -40 -43 -34 l-54 5 -47 -63 -48 -64 44 46 c41 44 46
46 116 53 39 4 72 10 72 14 0 4 -5 25 -10 47 -5 22 -7 48 -4 58 5 17 9 16 32
-11 32 -37 112 -56 112 -27 0 9 -4 14 -9 10 -18 -11 -26 21 -32 135 -5 96 -11
125 -34 175 -42 92 -48 109 -46 120 2 5 -1 7 -5 2 -10 -9 -44 22 -44 41 0 9 7
6 19 -9 l20 -24 -3 27 c-5 43 -34 78 -82 99 -57 26 -129 32 -179 16z m175
-107 c0 -5 -2 -10 -4 -10 -3 0 -8 5 -11 10 -3 6 -1 10 4 10 6 0 11 -4 11 -10z
m54 -63 c25 -44 59 -137 53 -144 -2 -2 -14 25 -27 59 -13 35 -34 80 -47 102
-14 21 -20 35 -14 32 6 -4 22 -26 35 -49z"/>
<path d="M6282 4320 c0 -14 2 -19 5 -12 2 6 2 18 0 25 -3 6 -5 1 -5 -13z"/>
<path d="M6133 4289 c-1 -14 3 -19 15 -17 9 1 23 -1 30 -5 17 -11 15 11 -2 29
-21 20 -41 17 -43 -7z"/>
<path d="M6220 4295 c0 -10 7 -15 18 -13 21 4 19 22 -2 26 -10 2 -16 -3 -16
-13z"/>
<path d="M3100 4295 c0 -20 27 -55 42 -55 11 0 29 -5 40 -11 14 -7 9 1 -13 23
-30 31 -69 55 -69 43z"/>
<path d="M3028 4272 c-35 -21 -58 -69 -58 -121 0 -47 15 -55 23 -12 6 29 62
91 83 91 6 0 17 6 23 14 10 11 7 17 -11 30 -27 19 -27 19 -60 -2z"/>
<path d="M6290 4248 c-1 -18 -7 -44 -14 -58 -15 -25 -7 -56 18 -72 20 -13 29
-8 15 8 -9 11 -12 39 -10 85 1 38 0 69 -3 69 -3 0 -6 -15 -6 -32z"/>
<path d="M4090 4233 c-102 -8 -191 -15 -198 -18 -13 -5 -8 -48 8 -70 4 -5 22
-77 40 -159 l34 -148 85 6 c47 4 114 9 148 13 l62 6 -1 113 c-1 78 -5 115 -13
118 -17 6 -25 57 -14 78 5 10 16 18 25 18 18 0 28 24 17 42 -7 12 -38 12 -193
1z m9 -52 c12 -8 12 -12 2 -25 -16 -19 -30 -12 -28 14 1 22 5 24 26 11z m-99
-10 c0 -6 -4 -13 -10 -16 -5 -3 -10 1 -10 9 0 9 5 16 10 16 6 0 10 -4 10 -9z
m2 -56 c-2 -14 -8 -25 -13 -25 -5 0 -9 11 -9 25 0 14 6 25 14 25 9 0 12 -8 8
-25z m108 -9 c0 -16 -18 -31 -27 -22 -8 8 5 36 17 36 5 0 10 -6 10 -14z m-105
-46 c3 -5 1 -10 -4 -10 -6 0 -11 5 -11 10 0 6 2 10 4 10 3 0 8 -4 11 -10z m20
-30 c-3 -5 -13 -10 -21 -10 -8 0 -14 5 -14 10 0 6 9 10 21 10 11 0 17 -4 14
-10z m-15 -30 c0 -5 -2 -10 -4 -10 -3 0 -8 5 -11 10 -3 6 -1 10 4 10 6 0 11
-4 11 -10z"/>
<path d="M6166 4214 c-9 -23 -8 -24 12 -24 14 0 15 2 2 10 -10 6 -11 10 -2 10
6 0 12 5 12 10 0 16 -17 12 -24 -6z"/>
<path d="M3538 4191 c-43 -4 -80 -10 -84 -13 -6 -7 33 -368 41 -377 14 -13 13
19 -6 168 -11 90 -18 170 -15 177 3 8 18 14 34 14 35 0 34 5 58 -203 9 -81 21
-147 26 -147 10 0 11 -17 -12 171 -12 89 -19 168 -16 176 3 7 20 13 40 13 40
0 38 7 56 -170 19 -189 16 -180 61 -180 l40 0 -6 63 c-10 96 -26 220 -32 244
-4 18 2 26 31 40 20 9 36 20 36 25 0 9 -135 8 -252 -1z"/>
<path d="M3155 4172 c-11 -7 -14 -34 -5 -41 3 -2 16 0 30 4 l25 8 -25 9 c-20
7 -22 11 -10 18 8 5 11 10 5 10 -5 0 -15 -4 -20 -8z"/>
<path d="M2970 4081 c0 -5 7 -11 14 -14 10 -4 13 -1 9 9 -6 15 -23 19 -23 5z"/>
<path d="M4533 4073 c-12 -2 -27 -12 -35 -20 -11 -14 -11 -16 4 -10 10 3 20 2
23 -3 8 -13 42 9 42 26 0 8 -3 13 -6 13 -3 -1 -16 -4 -28 -6z"/>
<path d="M3901 4058 c-1 -10 4 -62 10 -118 10 -83 15 -100 29 -100 16 0 15 9
-7 108 -26 119 -31 135 -32 110z"/>
<path d="M5250 4020 c0 -5 5 -10 10 -10 6 0 10 5 10 10 0 6 -4 10 -10 10 -5 0
-10 -4 -10 -10z"/>
<path d="M6312 3995 c0 -16 2 -22 5 -12 2 9 2 23 0 30 -3 6 -5 -1 -5 -18z"/>
<path d="M4301 3923 c-1 -29 3 -53 9 -53 12 0 12 44 0 80 -6 20 -8 14 -9 -27z"/>
<path d="M3273 3954 c3 -4 0 -22 -8 -40 -10 -26 -11 -35 -2 -40 7 -4 9 -4 5 1
-4 4 -1 14 7 22 18 17 20 63 3 63 -6 0 -9 -3 -5 -6z"/>
<path d="M4638 3943 c7 -3 16 -2 19 1 4 3 -2 6 -13 5 -11 0 -14 -3 -6 -6z"/>
<path d="M3055 3930 c-3 -5 -1 -10 4 -10 6 0 11 5 11 10 0 6 -2 10 -4 10 -3 0
-8 -4 -11 -10z"/>
<path d="M5304 3810 c0 -69 1 -97 3 -62 2 34 2 90 0 125 -2 34 -3 6 -3 -63z"/>
<path d="M3515 3910 c-8 -13 4 -32 16 -25 12 8 12 35 0 35 -6 0 -13 -4 -16
-10z"/>
<path d="M3610 3904 c0 -9 7 -14 17 -12 25 5 28 28 4 28 -12 0 -21 -6 -21 -16z"/>
<path d="M4610 3890 c-28 -5 -31 -8 -17 -14 9 -5 24 -5 33 -2 12 4 15 2 10 -9
-7 -20 3 -19 37 4 l28 18 -23 7 c-13 3 -25 5 -28 5 -3 -1 -21 -5 -40 -9z"/>
<path d="M6236 3863 c-4 -4 -15 -8 -24 -8 -12 0 -16 -7 -14 -23 2 -19 -2 -22
-17 -17 -46 14 -59 -86 -21 -155 8 -14 14 -28 15 -32 0 -3 4 -10 9 -15 5 -5 6
11 2 37 -19 122 -18 127 10 149 15 12 35 21 46 21 59 0 80 -53 28 -71 -16 -6
-27 -15 -24 -21 4 -6 9 -6 14 2 12 19 53 -7 45 -28 -3 -9 -9 -30 -12 -45 -3
-15 -13 -33 -22 -40 -16 -11 -16 -13 0 -29 13 -12 19 -13 23 -5 3 8 10 5 21
-8 21 -26 33 -8 29 43 -1 19 4 45 12 56 8 11 14 39 14 62 0 57 -52 128 -96
132 -16 2 -33 -1 -38 -5z"/>
<path d="M3862 3794 c20 -6 22 -17 42 -213 8 -79 18 -146 21 -149 9 -9 4 68
-13 218 -17 142 -18 145 -42 147 -14 1 -17 -1 -8 -3z"/>
<path d="M3960 3789 c0 -5 5 -7 10 -4 6 3 10 8 10 11 0 2 -4 4 -10 4 -5 0 -10
-5 -10 -11z"/>
<path d="M4712 3776 c13 -14 28 -12 28 5 0 5 -9 9 -20 9 -17 0 -19 -2 -8 -14z"/>
<path d="M3560 3754 c0 -8 5 -12 10 -9 6 4 8 11 5 16 -9 14 -15 11 -15 -7z"/>
<path d="M4541 3714 c0 -11 3 -14 6 -6 3 7 2 16 -1 19 -3 4 -6 -2 -5 -13z"/>
<path d="M3392 3688 c2 -18 8 -33 13 -33 6 0 11 15 13 33 3 24 -1 32 -13 32
-12 0 -16 -8 -13 -32z"/>
<path d="M6246 3695 c-3 -8 -1 -15 4 -15 6 0 10 7 10 15 0 8 -2 15 -4 15 -2 0
-6 -7 -10 -15z"/>
<path d="M3777 3643 c-3 -5 0 -56 6 -115 7 -79 14 -108 24 -108 16 0 16 0 1
128 -10 92 -18 116 -31 95z"/>
<path d="M5300 3631 c0 -14 6 -17 27 -13 25 5 25 6 8 18 -25 19 -35 17 -35 -5z"/>
<path d="M5360 3604 c0 -26 59 -326 65 -332 9 -9 5 18 -25 181 -29 151 -40
195 -40 151z"/>
<path d="M4138 3573 c-43 -3 -58 -8 -58 -19 0 -20 -27 -29 -45 -14 -7 6 -24
10 -37 8 -20 -3 -23 -9 -26 -55 l-3 -53 48 1 c26 1 74 4 106 8 l58 6 19 55
c23 66 24 71 8 68 -7 -1 -39 -3 -70 -5z"/>
<path d="M4570 3562 c-19 -16 -21 -22 -11 -38 11 -17 11 -17 5 5 -3 13 -2 21
3 18 5 -3 14 3 21 14 15 24 10 24 -18 1z"/>
<path d="M4679 3557 c-14 -12 -32 -31 -40 -41 -14 -19 -13 -19 18 -3 38 20 63
22 63 5 0 -9 4 -8 10 2 8 11 9 8 4 -12 -8 -35 3 -53 22 -37 9 7 14 25 12 43
-3 27 1 31 30 40 51 14 38 26 -30 26 -51 0 -68 -4 -89 -23z"/>
<path d="M3850 3520 c0 -5 5 -10 11 -10 5 0 7 5 4 10 -3 6 -8 10 -11 10 -2 0
-4 -4 -4 -10z"/>
<path d="M4396 3512 c-4 -3 15 -14 41 -24 56 -21 53 -20 53 -9 0 14 -84 44
-94 33z"/>
<path d="M4985 3489 c-4 -6 -5 -12 -2 -15 2 -3 7 2 10 11 7 17 1 20 -8 4z"/>
<path d="M5016 3485 c8 -20 46 -16 51 5 4 12 3 12 -5 1 -7 -10 -14 -11 -31 -2
-17 10 -20 9 -15 -4z"/>
<path d="M4956 3475 c-3 -8 -1 -15 4 -15 6 0 10 7 10 15 0 8 -2 15 -4 15 -2 0
-6 -7 -10 -15z"/>
<path d="M4500 3474 c0 -16 28 -31 41 -23 12 8 12 10 -1 19 -16 11 -40 13 -40
4z"/>
<path d="M5313 3360 c0 -36 2 -50 4 -32 2 17 2 47 0 65 -2 17 -4 3 -4 -33z"/>
<path d="M4022 3403 c-20 -3 -32 -9 -29 -16 6 -16 48 -10 67 8 8 8 10 14 5 13
-6 0 -25 -3 -43 -5z"/>
<path d="M3431 3353 c-1 -17 4 -35 9 -38 12 -7 12 22 0 50 -7 17 -9 15 -9 -12z"/>
<path d="M3600 3350 c0 -5 7 -10 15 -10 8 0 15 5 15 10 0 6 -7 10 -15 10 -8 0
-15 -4 -15 -10z"/>
<path d="M3022 3316 c7 -8 15 -12 17 -11 5 6 -10 25 -20 25 -5 0 -4 -6 3 -14z"/>
<path d="M3270 3322 c0 -14 48 -47 57 -38 3 3 1 6 -6 6 -7 0 -9 5 -5 13 4 6 3
9 -1 4 -5 -4 -17 0 -27 10 -10 9 -18 11 -18 5z"/>
<path d="M4987 3323 c-30 -8 -13 -28 27 -31 35 -3 37 -2 26 17 -11 21 -19 23
-53 14z"/>
<path d="M3081 3303 c0 -7 -9 -13 -19 -13 -9 0 -23 -9 -30 -21 -11 -17 -11
-20 0 -13 7 4 21 9 30 9 24 2 31 10 25 32 -3 10 -5 12 -6 6z"/>
<path d="M6230 3295 c-14 -8 -33 -24 -42 -35 -22 -27 -33 -102 -19 -127 9 -15
10 -13 11 17 0 19 9 49 19 66 18 30 20 31 71 24 45 -6 59 -13 92 -49 34 -36
39 -38 36 -19 -2 13 -19 33 -40 47 -40 26 -41 46 -2 37 17 -5 22 -3 18 8 -12
32 -106 52 -144 31z"/>
<path d="M3993 3224 c5 -67 4 -75 -11 -72 -12 2 -18 15 -20 43 -7 104 -30 116
-34 18 l-3 -68 -42 -3 c-29 -2 -43 -8 -43 -18 0 -8 -7 -14 -15 -14 -8 0 -15 5
-15 10 0 6 -13 10 -29 10 -21 0 -30 -6 -34 -22 -4 -12 -9 -19 -13 -15 -12 12
-55 -105 -49 -130 3 -13 1 -23 -5 -23 -9 0 -8 -19 6 -72 3 -10 -2 -18 -13 -21
-16 -4 -15 -6 4 -12 28 -9 50 -113 27 -131 -8 -6 -14 -19 -14 -28 0 -9 -11
-21 -25 -26 -29 -11 -31 -15 -7 -16 9 -1 25 -4 35 -9 13 -6 20 0 31 26 l15 34
9 -25 c9 -21 11 -22 17 -8 4 9 4 21 2 25 -3 5 12 7 34 6 42 -2 65 21 38 38
-12 7 -12 12 -1 30 8 12 10 24 5 28 -13 10 -14 31 -1 31 9 0 9 3 0 12 -7 7
-12 30 -12 51 0 28 -6 44 -22 57 -19 15 -21 22 -13 46 15 41 53 52 101 28 31
-15 41 -27 48 -57 7 -25 15 -36 25 -35 12 2 16 -7 18 -42 1 -25 -1 -39 -4 -33
-7 18 -25 -3 -40 -48 -19 -52 -16 -62 20 -86 51 -35 67 -38 60 -14 -4 17 -2
20 11 15 9 -3 16 -14 16 -24 0 -10 10 -20 24 -24 13 -3 32 -9 41 -12 14 -6 15
-2 10 30 -7 34 -6 36 19 36 14 0 26 5 26 10 0 6 -11 10 -25 10 -20 0 -25 5
-24 23 1 17 2 18 6 4 7 -25 36 -17 38 11 2 21 -6 26 -32 23 -7 -1 -13 3 -13 9
0 5 5 10 10 10 6 0 10 9 10 20 0 11 5 20 11 20 7 0 9 36 4 118 -9 178 -12 190
-43 194 -21 2 -28 10 -33 35 -10 48 -38 88 -52 74 -9 -9 -7 -24 5 -59 11 -29
14 -50 8 -56 -14 -14 -19 -5 -32 59 -9 45 -9 60 0 63 14 4 6 22 -10 22 -7 0
-9 -24 -5 -76z m-28 -174 c2 -16 -1 -30 -6 -30 -5 0 -9 17 -9 37 0 42 12 37
15 -7z m58 -60 c3 -11 1 -20 -4 -20 -5 0 -9 9 -9 20 0 11 2 20 4 20 2 0 6 -9
9 -20z m16 -194 c1 -36 -3 -56 -8 -50 -8 8 -17 164 -11 189 5 19 19 -80 19
-139z"/>
<path d="M4070 3290 c0 -5 4 -10 9 -10 6 0 13 5 16 10 3 6 -1 10 -9 10 -9 0
-16 -4 -16 -10z"/>
<path d="M5873 3283 l-43 -15 1 -71 c0 -40 3 -90 7 -111 l7 -40 70 3 c38 1 71
4 73 6 2 2 0 56 -5 122 l-8 118 -30 1 c-16 1 -49 -5 -72 -13z"/>
<path d="M2998 3283 c6 -2 18 -2 25 0 6 3 1 5 -13 5 -14 0 -19 -2 -12 -5z"/>
<path d="M4367 3281 c-17 -6 -17 -8 -3 -20 20 -16 66 -6 66 14 0 16 -31 19
-63 6z"/>
<path d="M5365 3240 c-11 -5 -34 -9 -52 -9 -17 -1 -35 -6 -39 -12 -4 -7 10 -9
49 -4 l54 7 7 -111 c7 -101 9 -111 27 -111 19 0 20 5 14 113 -4 61 -8 118 -10
125 -5 14 -21 15 -50 2z"/>
<path d="M3090 3231 c0 -6 5 -13 10 -16 6 -3 10 1 10 9 0 9 -4 16 -10 16 -5 0
-10 -4 -10 -9z"/>
<path d="M5023 3231 c-39 -3 -75 -10 -79 -14 -5 -5 26 -5 69 -1 50 4 77 3 77
-3 0 -6 -21 -13 -47 -16 -94 -11 -112 -20 -113 -59 0 -9 -6 -21 -14 -25 -12
-7 -10 -18 10 -68 13 -33 28 -78 34 -100 11 -47 50 -92 87 -101 32 -8 86 18
101 49 l11 22 0 -23 c1 -38 56 -54 149 -45 42 4 83 7 90 6 8 0 12 7 10 21 -2
11 -8 20 -13 20 -6 -1 -55 -5 -110 -8 -77 -6 -97 -5 -88 5 11 11 8 26 -20 86
-6 13 -9 38 -8 55 5 75 3 91 -17 118 -15 20 -18 30 -9 33 19 6 -9 57 -30 55
-10 -1 -50 -4 -90 -7z m108 -132 c22 -46 27 -104 11 -143 -9 -22 -18 -34 -20
-27 -12 35 -122 30 -122 -7 0 -14 -2 -14 -14 -2 -8 8 -18 27 -21 43 -6 21 -3
27 9 28 9 1 21 3 26 4 6 1 15 3 21 4 5 0 7 6 3 12 -3 6 -19 9 -35 7 -15 -3
-26 -1 -23 4 3 4 1 8 -5 8 -15 0 -23 37 -12 58 8 14 26 22 66 27 30 3 57 11
61 16 7 12 44 -10 55 -32z m-21 -182 c0 -21 -22 -37 -50 -37 -25 0 -50 16 -50
31 0 5 19 10 43 12 23 2 45 4 50 5 4 1 7 -4 7 -11z"/>
<path d="M5082 3037 c-32 -15 -27 -26 11 -23 45 4 47 5 47 15 0 14 -33 19 -58
8z"/>
<path d="M5055 2900 c3 -5 8 -10 11 -10 2 0 4 5 4 10 0 6 -5 10 -11 10 -5 0
-7 -4 -4 -10z"/>
<path d="M3000 3220 c0 -4 7 -7 15 -6 23 3 26 12 5 13 -11 1 -20 -2 -20 -7z"/>
<path d="M3120 3219 c0 -5 5 -7 10 -4 6 3 10 8 10 11 0 2 -4 4 -10 4 -5 0 -10
-5 -10 -11z"/>
<path d="M2912 3207 c-6 -7 -11 -28 -10 -47 0 -19 -2 -46 -6 -60 l-7 -25 15
27 c13 21 30 118 21 118 -1 0 -7 -6 -13 -13z"/>
<path d="M4807 3198 c-2 -7 0 -26 4 -41 4 -15 11 -93 15 -172 7 -144 7 -145
-15 -145 -12 0 -21 -6 -21 -15 0 -9 9 -15 25 -15 20 0 25 -5 25 -25 0 -27 6
-30 29 -16 8 5 12 18 9 29 -5 18 0 20 49 24 52 5 84 20 70 34 -4 4 -36 3 -71
-2 l-64 -10 -7 76 c-3 41 -8 119 -11 173 -2 54 -6 103 -9 108 -9 13 -23 11
-28 -3z"/>
<path d="M3031 3187 c-8 -10 -7 -14 4 -14 8 0 15 6 15 14 0 7 -2 13 -4 13 -2
0 -9 -6 -15 -13z"/>
<path d="M6297 3164 c-3 -4 -2 -15 4 -25 8 -16 13 -17 29 -6 19 11 19 13 3 25
-19 14 -27 15 -36 6z"/>
<path d="M2995 3150 c3 -5 8 -10 11 -10 2 0 4 5 4 10 0 6 -5 10 -11 10 -5 0
-7 -4 -4 -10z"/>
<path d="M3440 3150 c0 -6 7 -10 15 -10 8 0 15 2 15 4 0 2 -7 6 -15 10 -8 3
-15 1 -15 -4z"/>
<path d="M4423 3148 c-46 -12 -60 -41 -66 -134 -6 -77 -5 -82 18 -102 21 -18
25 -31 25 -75 0 -65 13 -84 68 -96 36 -7 46 -6 68 11 32 25 40 19 14 -10 -21
-22 -16 -29 8 -13 8 4 13 12 13 17 0 5 7 9 17 10 33 2 37 5 19 15 -9 5 -22 7
-28 3 -8 -4 -9 1 -3 17 5 13 8 51 7 83 -2 44 2 62 13 71 18 13 15 61 -4 58 -8
-2 -12 13 -12 50 -1 74 -12 85 -105 101 -11 2 -35 -1 -52 -6z m10 -102 c7 -18
-1 -26 -25 -26 -11 0 -18 7 -18 20 0 23 35 28 43 6z m37 -76 c0 -11 -7 -20
-15 -20 -13 0 -14 4 -5 20 6 11 13 20 15 20 3 0 5 -9 5 -20z m-50 -22 c0 -13
-23 -5 -28 10 -2 7 2 10 12 6 9 -3 16 -11 16 -16z"/>
<path d="M3111 3134 c0 -11 3 -14 6 -6 3 7 2 16 -1 19 -3 4 -6 -2 -5 -13z"/>
<path d="M3131 3134 c0 -11 3 -14 6 -6 3 7 2 16 -1 19 -3 4 -6 -2 -5 -13z"/>
<path d="M3400 3145 c0 -5 5 -17 10 -25 5 -8 10 -10 10 -5 0 6 -5 17 -10 25
-5 8 -10 11 -10 5z"/>
<path d="M5224 3083 c3 -38 5 -96 5 -130 1 -67 10 -79 29 -38 8 17 10 60 5
130 -5 94 -8 105 -25 105 -17 0 -19 -6 -14 -67z"/>
<path d="M6209 3141 c11 -7 11 -9 0 -13 -22 -7 1 -29 24 -22 30 9 32 11 17 29
-7 8 -22 15 -34 15 -16 0 -18 -3 -7 -9z"/>
<path d="M2932 3105 c-7 -15 -11 -30 -8 -32 7 -7 28 36 24 49 -2 6 -9 -2 -16
-17z"/>
<path d="M3008 3103 c3 -18 1 -24 -7 -19 -6 4 -11 2 -11 -3 0 -6 8 -11 19 -11
14 0 17 6 13 25 -2 14 -8 27 -12 30 -4 2 -5 -7 -2 -22z"/>
<path d="M3567 3113 c-4 -3 -8 -20 -8 -37 l-1 -31 -7 30 c-4 18 -14 31 -25 33
-19 4 -19 -6 -1 -198 2 -19 6 -66 10 -105 4 -38 8 -86 10 -105 2 -19 4 -47 4
-62 1 -26 2 -27 34 -16 17 6 33 12 35 13 3 3 -38 478 -42 482 -1 2 -6 0 -9 -4z
m2 -170 c1 -33 5 -53 13 -53 6 0 8 -3 5 -6 -4 -4 -13 -2 -20 4 -8 7 -17 9 -20
5 -4 -3 -7 -1 -7 5 0 7 5 12 11 12 7 0 9 22 5 68 -4 44 -2 58 3 42 5 -14 9
-49 10 -77z m-2 -89 c-3 -3 -12 -4 -19 -1 -8 3 -5 6 6 6 11 1 17 -2 13 -5z"/>
<path d="M3662 3090 c0 -19 2 -27 5 -17 2 9 2 25 0 35 -3 9 -5 1 -5 -18z"/>
<path d="M3132 3029 c-65 -38 -78 -63 -65 -121 l9 -43 12 41 c17 60 28 65 123
62 l83 -3 23 -40 23 -40 0 45 c0 40 -5 51 -39 84 -54 53 -99 57 -169 15z"/>
<path d="M6267 3029 c8 -8 16 -8 30 0 16 9 14 10 -11 11 -22 0 -27 -3 -19 -11z"/>
<path d="M6224 2966 c-5 -19 -2 -32 10 -44 15 -15 16 -14 16 13 0 17 -4 37 -9
44 -8 12 -11 9 -17 -13z"/>
<path d="M3854 2915 c-3 -8 -3 -19 1 -25 9 -15 35 -12 35 5 0 10 6 12 18 8 15
-6 15 -5 3 10 -17 21 -50 22 -57 2z"/>
<path d="M3610 2860 c0 -4 9 -10 20 -13 11 -3 20 -2 20 3 0 4 -9 10 -20 13
-11 3 -20 2 -20 -3z"/>
<path d="M3885 2830 c11 -12 13 -20 6 -20 -7 0 -9 -4 -6 -10 10 -16 25 -11 25
8 0 19 -18 42 -34 42 -5 0 -1 -9 9 -20z"/>
<path d="M3229 2827 c5 -5 21 -7 37 -5 27 3 26 4 -8 9 -22 3 -34 1 -29 -4z"/>
<path d="M3638 2823 c7 -3 16 -2 19 1 4 3 -2 6 -13 5 -11 0 -14 -3 -6 -6z"/>
<path d="M5310 2822 c0 -12 50 -33 61 -27 5 4 9 12 8 18 0 9 -2 9 -5 1 -6 -13
-44 -7 -44 7 0 5 -4 9 -10 9 -5 0 -10 -4 -10 -8z"/>
<path d="M3075 2810 c3 -5 8 -10 11 -10 2 0 4 5 4 10 0 6 -5 10 -11 10 -5 0
-7 -4 -4 -10z"/>
<path d="M3682 2770 c0 -19 2 -27 5 -17 2 9 2 25 0 35 -3 9 -5 1 -5 -18z"/>
<path d="M3661 2754 c0 -11 3 -14 6 -6 3 7 2 16 -1 19 -3 4 -6 -2 -5 -13z"/>
<path d="M3640 2611 c0 -12 38 -21 58 -14 13 6 13 8 -4 14 -27 11 -54 11 -54
0z"/>
<path d="M3611 2594 c0 -11 3 -14 6 -6 3 7 2 16 -1 19 -3 4 -6 -2 -5 -13z"/>
<path d="M3105 3579 c19 -12 19 -12 0 -20 -17 -7 -16 -8 6 -8 15 -1 29 6 33
14 3 9 0 15 -8 15 -8 0 -23 3 -33 6 -16 5 -16 4 2 -7z"/>
<path d="M3185 3490 c-3 -6 1 -10 10 -10 9 0 14 -4 11 -9 -10 -16 19 -19 39
-5 10 8 17 15 14 17 -11 10 -69 15 -74 7z"/>
<path d="M3100 3471 c0 -5 7 -12 16 -15 22 -9 24 -8 18 9 -7 16 -34 21 -34 6z"/>
<path d="M5663 3118 c-14 -23 -12 -40 4 -34 8 3 21 6 29 6 8 0 14 5 14 10 0 6
-7 10 -16 10 -8 0 -12 5 -9 10 3 6 2 10 -4 10 -5 0 -13 -6 -18 -12z"/>
<path d="M5586 3076 c3 -9 11 -16 16 -16 13 0 5 23 -10 28 -7 2 -10 -2 -6 -12z"/>
<path d="M5700 2998 c-12 -22 -12 -22 6 -6 10 10 15 20 12 24 -4 3 -12 -5 -18
-18z"/>
<path d="M240 1859 c0 -5 5 -7 10 -4 6 3 10 8 10 11 0 2 -4 4 -10 4 -5 0 -10
-5 -10 -11z"/>
<path d="M1680 1560 c0 -5 5 -10 11 -10 5 0 7 5 4 10 -3 6 -8 10 -11 10 -2 0
-4 -4 -4 -10z"/>
<path d="M1385 1490 c-8 -13 25 -13 45 0 12 8 9 10 -12 10 -15 0 -30 -4 -33
-10z"/>
<path d="M2345 1460 c-3 -5 -1 -10 4 -10 6 0 11 5 11 10 0 6 -2 10 -4 10 -3 0
-8 -4 -11 -10z"/>
<path d="M2014 1375 c-17 -13 -16 -14 14 -4 33 11 41 19 19 19 -7 0 -22 -7
-33 -15z"/>
<path d="M6744 4140 c3 -52 8 -149 12 -215 8 -147 11 -155 50 -121 20 16 35
22 44 16 8 -5 22 -3 35 6 12 8 48 19 81 25 32 6 65 16 72 21 9 8 15 3 23 -20
9 -26 13 -29 37 -23 15 4 32 16 37 27 6 12 18 28 28 38 25 25 22 33 -23 56
-45 23 -51 44 -18 61 13 7 18 14 11 16 -6 2 -39 -10 -72 -26 -48 -25 -73 -31
-124 -31 -55 0 -66 3 -85 25 -12 14 -22 29 -22 35 0 5 -13 31 -30 56 -24 39
-42 88 -45 126 0 3 -4 10 -9 15 -5 4 -6 -33 -2 -87z"/>
<path d="M7069 3618 c-1 -87 -3 -166 -3 -175 -1 -12 8 -19 22 -21 20 -3 23 0
17 17 -3 11 -7 83 -9 159 -2 78 -8 147 -14 158 -9 15 -12 -17 -13 -138z"/>
<path d="M6808 3512 c-12 -2 -18 -13 -18 -32 0 -42 25 -52 78 -29 40 17 62 42
48 56 -7 7 -82 11 -108 5z"/>
<path d="M2197 3434 c-1 -1 -143 -4 -315 -8 -600 -12 -1126 -26 -1172 -31 -19
-2 -177 -9 -350 -15 -173 -6 -325 -13 -337 -16 -22 -4 -23 -8 -23 -123 l0
-119 363 4 c199 3 394 7 432 10 39 3 140 6 225 8 85 2 232 11 325 19 94 9 288
19 433 22 145 4 272 8 282 10 10 2 98 7 197 11 98 4 185 8 193 10 8 1 46 3 83
3 l68 1 -5 43 c-3 23 -8 73 -12 111 l-6 68 -190 -3 c-104 -2 -190 -5 -191 -5z"/>
<path d="M6793 3357 c4 -10 7 -25 7 -33 0 -8 6 -14 14 -14 19 0 15 23 -9 46
-18 18 -18 18 -12 1z"/>
<path d="M2612 2950 c0 -19 2 -27 5 -17 2 9 2 25 0 35 -3 9 -5 1 -5 -18z"/>
<path d="M2623 2805 c0 -27 2 -38 4 -22 2 15 2 37 0 50 -2 12 -4 0 -4 -28z"/>
<path d="M2633 2675 c0 -22 2 -30 4 -17 2 12 2 30 0 40 -3 9 -5 -1 -4 -23z"/>
<path d="M1298 2683 c7 -3 16 -2 19 1 4 3 -2 6 -13 5 -11 0 -14 -3 -6 -6z"/>
<path d="M1465 2638 c-22 -6 -46 -12 -52 -14 -7 -2 -13 -10 -13 -18 0 -15 34
-12 55 5 6 4 30 11 53 15 23 4 42 10 42 15 0 11 -32 10 -85 -3z"/>
<path d="M808 2613 c7 -3 16 -2 19 1 4 3 -2 6 -13 5 -11 0 -14 -3 -6 -6z"/>
<path d="M1365 2600 c-3 -5 -13 -6 -23 -3 -14 6 -15 4 -5 -9 7 -8 11 -17 8
-20 -3 -3 20 -4 51 -2 32 2 60 6 63 10 3 3 -10 5 -29 3 -38 -3 -64 7 -55 22 4
5 4 9 1 9 -3 0 -7 -4 -11 -10z"/>
<path d="M1700 2603 c-19 -3 -39 -8 -44 -13 -12 -12 66 0 79 11 5 5 7 8 5 7
-3 0 -21 -3 -40 -5z"/>
<path d="M678 2593 c6 -2 18 -2 25 0 6 3 1 5 -13 5 -14 0 -19 -2 -12 -5z"/>
<path d="M1518 2593 c16 -3 22 -9 18 -20 -5 -12 -1 -14 20 -9 15 4 40 10 56
13 46 9 14 21 -56 20 -33 0 -51 -2 -38 -4z"/>
<path d="M613 2583 c9 -2 25 -2 35 0 9 3 1 5 -18 5 -19 0 -27 -2 -17 -5z"/>
<path d="M1120 2582 c0 -4 16 -9 35 -10 19 -2 35 2 35 8 0 5 -16 10 -35 10
-19 0 -35 -4 -35 -8z"/>
<path d="M558 2573 c6 -2 18 -2 25 0 6 3 1 5 -13 5 -14 0 -19 -2 -12 -5z"/>
<path d="M471 2556 c-11 -13 -116 -33 -221 -42 -25 -2 -91 -14 -148 -26 -94
-20 -102 -24 -102 -45 0 -15 6 -23 18 -23 13 0 14 2 4 9 -11 7 -11 9 2 14 9 4
16 2 16 -3 0 -6 7 -10 16 -10 13 0 14 3 5 13 -8 10 -7 14 7 13 59 0 77 4 62
15 -12 9 -11 10 8 6 12 -3 20 -2 17 3 -6 10 85 21 155 19 37 -1 67 4 90 16 23
12 35 14 38 6 2 -6 9 -11 15 -11 5 0 7 3 3 8 -4 4 30 14 76 24 l83 16 -70 -4
c-49 -3 -64 -1 -50 5 16 8 16 10 4 10 -9 1 -22 -5 -28 -13z"/>
<path d="M428 2553 c6 -2 18 -2 25 0 6 3 1 5 -13 5 -14 0 -19 -2 -12 -5z"/>
<path d="M815 2550 c-16 -7 -17 -9 -3 -9 9 -1 20 4 23 9 7 11 7 11 -20 0z"/>
<path d="M831 2521 c-7 -5 -10 -14 -7 -20 9 -15 75 -4 96 15 12 12 8 14 -30
14 -25 0 -51 -4 -59 -9z"/>
<path d="M1108 2513 c7 -3 16 -2 19 1 4 3 -2 6 -13 5 -11 0 -14 -3 -6 -6z"/>
<path d="M548 2503 c6 -2 18 -2 25 0 6 3 1 5 -13 5 -14 0 -19 -2 -12 -5z"/>
<path d="M28 2493 c6 -2 18 -2 25 0 6 3 1 5 -13 5 -14 0 -19 -2 -12 -5z"/>
<path d="M433 2493 c-18 -2 -33 -8 -33 -12 0 -7 100 4 125 13 12 5 -49 4 -92
-1z"/>
<path d="M270 2480 c0 -5 5 -10 10 -10 6 0 10 5 10 10 0 6 -4 10 -10 10 -5 0
-10 -4 -10 -10z"/>
<path d="M125 2449 c-28 -8 -28 -8 7 -4 22 2 39 -1 42 -8 2 -7 5 -4 5 6 1 18
-7 19 -54 6z"/>
<path d="M460 2449 c-131 -9 -188 -19 -201 -36 -11 -13 -8 -14 21 -9 19 3 62
10 95 16 32 5 62 6 65 2 3 -5 25 -6 50 -4 35 4 41 7 25 13 -20 8 -20 8 0 8 11
1 35 -3 53 -8 35 -10 42 -1 15 20 -14 12 -17 12 -21 0 -2 -7 -7 -9 -11 -5 -3
5 -44 6 -91 3z"/>
<path d="M660 2445 c7 -8 17 -12 22 -9 6 4 5 10 -3 15 -22 14 -33 10 -19 -6z"/>
<path d="M745 2390 c-13 -6 -15 -9 -5 -9 8 0 22 4 30 9 18 12 2 12 -25 0z"/>
<path d="M2653 2360 c0 -25 2 -35 4 -22 2 12 2 32 0 45 -2 12 -4 2 -4 -23z"/>
<path d="M231 2369 c-25 -5 -50 -11 -55 -14 -18 -8 85 6 108 15 26 11 4 10
-53 -1z"/>
<path d="M688 2373 c7 -3 16 -2 19 1 4 3 -2 6 -13 5 -11 0 -14 -3 -6 -6z"/>
<path d="M2578 2333 c7 -3 16 -2 19 1 4 3 -2 6 -13 5 -11 0 -14 -3 -6 -6z"/>
<path d="M2528 2323 c7 -3 16 -2 19 1 4 3 -2 6 -13 5 -11 0 -14 -3 -6 -6z"/>
<path d="M2478 2313 c7 -3 16 -2 19 1 4 3 -2 6 -13 5 -11 0 -14 -3 -6 -6z"/>
<path d="M2028 2273 c22 -9 2 -23 -32 -23 -18 0 -36 -3 -40 -7 -4 -5 -12 -9
-17 -9 -5 -1 -13 -2 -19 -3 -5 0 -10 -4 -10 -9 0 -4 18 -6 40 -4 22 2 40 9 40
14 0 6 9 8 20 5 11 -3 20 -2 20 3 0 4 10 10 23 14 18 5 20 8 7 16 -8 5 -22 9
-30 9 -10 0 -11 -2 -2 -6z"/>
<path d="M1958 2263 c7 -3 16 -2 19 1 4 3 -2 6 -13 5 -11 0 -14 -3 -6 -6z"/>
<path d="M1346 2249 c6 -11 44 -12 44 -1 0 4 -11 8 -25 8 -14 1 -22 -2 -19 -7z"/>
<path d="M2494 2229 c-2 -5 -11 -6 -19 -2 -8 3 -15 0 -15 -7 0 -8 8 -10 23 -6
12 3 28 6 35 6 6 0 12 4 12 8 0 11 -29 11 -36 1z"/>
<path d="M2541 2224 c0 -11 3 -14 6 -6 3 7 2 16 -1 19 -3 4 -6 -2 -5 -13z"/>
<path d="M1825 2210 c-3 -5 -1 -10 4 -10 6 0 11 5 11 10 0 6 -2 10 -4 10 -3 0
-8 -4 -11 -10z"/>
<path d="M2395 2210 c-3 -6 1 -7 9 -4 18 7 21 14 7 14 -6 0 -13 -4 -16 -10z"/>
<path d="M1710 2191 c0 -5 9 -7 20 -4 11 3 20 7 20 9 0 2 -9 4 -20 4 -11 0
-20 -4 -20 -9z"/>
<path d="M1598 2183 c-16 -2 -28 -9 -28 -14 0 -15 46 -10 60 6 7 8 9 14 4 14
-5 -1 -21 -4 -36 -6z"/>
<path d="M1678 2183 c7 -3 16 -2 19 1 4 3 -2 6 -13 5 -11 0 -14 -3 -6 -6z"/>
<path d="M2248 2183 c7 -3 16 -2 19 1 4 3 -2 6 -13 5 -11 0 -14 -3 -6 -6z"/>
<path d="M1502 2160 c15 -23 51 -21 56 3 3 13 -4 17 -32 17 -33 0 -35 -2 -24
-20z"/>
<path d="M2050 2170 c-21 -7 -21 -8 -5 -9 11 0 27 4 35 9 18 11 5 11 -30 0z"/>
<path d="M2568 2173 c6 -2 18 -2 25 0 6 3 1 5 -13 5 -14 0 -19 -2 -12 -5z"/>
<path d="M1525 2130 c-3 -5 -1 -10 4 -10 6 0 11 5 11 10 0 6 -2 10 -4 10 -3 0
-8 -4 -11 -10z"/>
<path d="M1550 2130 c0 -5 7 -7 15 -4 8 4 15 8 15 10 0 2 -7 4 -15 4 -8 0 -15
-4 -15 -10z"/>
<path d="M1873 2117 c0 -9 10 -12 30 -9 21 3 25 7 16 13 -21 13 -46 11 -46 -4z"/>
<path d="M1543 2091 c-17 -16 -30 -31 -27 -34 3 -3 -2 -4 -11 -3 -10 0 -21 -9
-26 -21 -6 -18 -5 -23 6 -23 8 0 15 5 15 10 0 6 12 10 28 9 24 0 25 -1 7 -9
-19 -8 -19 -8 5 -18 14 -6 19 -11 11 -11 -8 -1 -12 -4 -9 -7 3 -3 24 0 47 6
27 7 38 15 35 24 -3 8 0 17 5 21 6 3 8 11 5 17 -4 6 -9 5 -15 -3 -4 -7 -11
-10 -16 -6 -10 11 15 25 36 21 19 -5 49 12 39 21 -4 4 -24 7 -45 8 -21 0 -43
7 -48 14 -8 11 -17 8 -42 -16z m47 -47 c0 -14 -3 -14 -15 -4 -8 7 -15 14 -15
16 0 2 7 4 15 4 8 0 15 -7 15 -16z"/>
<path d="M1830 2110 c0 -5 5 -10 11 -10 5 0 7 5 4 10 -3 6 -8 10 -11 10 -2 0
-4 -4 -4 -10z"/>
<path d="M1736 2094 c-5 -12 -2 -15 10 -10 8 3 20 6 25 6 6 0 7 5 4 10 -10 15
-32 12 -39 -6z"/>
<path d="M2005 2100 c-16 -7 -13 -9 15 -8 19 0 46 4 60 8 21 7 19 8 -15 8 -22
0 -49 -3 -60 -8z"/>
<path d="M1881 2084 c-1 -6 -15 -9 -33 -8 l-33 3 35 -9 c39 -9 45 -8 37 12 -3
7 -6 8 -6 2z"/>
<path d="M1908 2083 c7 -3 16 -2 19 1 4 3 -2 6 -13 5 -11 0 -14 -3 -6 -6z"/>
<path d="M1770 2036 c0 -9 30 -14 35 -6 4 6 -3 10 -14 10 -12 0 -21 -2 -21 -4z"/>
<path d="M1723 2023 c9 -2 23 -2 30 0 6 3 -1 5 -18 5 -16 0 -22 -2 -12 -5z"/>
<path d="M1483 1974 c0 -16 13 -19 21 -5 3 5 0 11 -7 14 -8 3 -14 -1 -14 -9z"/>
<path d="M7200 1901 c-85 -10 -104 -33 -54 -66 22 -14 36 -15 112 -6 48 6 93
11 100 11 22 0 13 28 -15 47 -31 21 -60 24 -143 14z m67 -17 c-3 -3 -12 -4
-19 -1 -8 3 -5 6 6 6 11 1 17 -2 13 -5z"/>
<path d="M6707 1846 c-103 -13 -121 -28 -81 -64 23 -20 32 -22 88 -16 104 11
139 19 143 31 5 13 -40 64 -54 62 -4 -1 -48 -6 -96 -13z"/>
<path d="M1515 1310 c-8 -13 5 -13 25 0 13 8 13 10 -2 10 -9 0 -20 -4 -23 -10z"/>
<path d="M2230 1290 l-25 -8 25 0 c14 0 34 3 45 8 l20 9 -20 -1 c-11 0 -31 -4
-45 -8z"/>
<path d="M2155 1270 c4 -6 11 -8 16 -5 14 9 11 15 -7 15 -8 0 -12 -5 -9 -10z"/>
<path d="M870 1090 c-13 -8 -13 -10 2 -10 9 0 20 5 23 10 8 13 -5 13 -25 0z"/>
<path d="M780 1070 c-131 -22 -251 -54 -290 -76 l-25 -15 30 6 c17 4 48 8 70
10 72 6 265 64 265 79 0 4 -1 5 -2 5 -2 -1 -23 -5 -48 -9z"/>
<path d="M187 878 c-15 -5 -25 -13 -22 -18 3 -4 -9 -13 -26 -20 -25 -11 -32
-11 -39 0 -7 12 -72 39 -93 40 -5 0 -7 -152 -5 -337 3 -298 5 -343 21 -377 30
-68 67 -107 126 -135 l56 -26 610 -1 c336 -1 597 0 580 3 -70 9 -77 13 -72 38
4 22 1 25 -28 25 -38 0 -59 21 -50 50 6 17 2 20 -27 20 -44 0 -62 13 -55 39 4
18 1 21 -26 21 -43 0 -61 13 -54 39 4 17 1 21 -20 21 -42 0 -66 18 -59 46 6
22 4 23 -22 18 -33 -7 -65 17 -56 41 5 11 -1 15 -19 15 -41 0 -57 10 -57 36 0
20 -5 24 -29 24 -32 0 -56 22 -48 44 5 11 -3 16 -31 18 -33 3 -37 6 -37 31 1
24 -3 27 -31 27 -37 0 -57 20 -47 45 5 15 2 17 -17 12 -36 -9 -63 10 -56 39 6
21 4 23 -22 18 -31 -6 -58 16 -49 40 5 11 -3 16 -31 18 -29 2 -37 7 -37 23 0
15 -8 21 -35 25 -27 4 -36 10 -40 30 -4 21 -11 25 -43 26 -47 2 -66 17 -47 39
11 13 9 15 -11 14 -13 0 -36 -5 -52 -11z m13 -388 c0 -5 -9 -10 -21 -10 -11 0
-17 5 -14 10 3 6 13 10 21 10 8 0 14 -4 14 -10z m81 -32 c6 -23 4 -28 -11 -28
-45 0 -63 23 -38 48 19 19 41 10 49 -20z"/>
<path d="M7380 488 c0 -4 -6 -8 -14 -8 -9 0 -13 -9 -11 -25 1 -18 -2 -24 -13
-23 -8 2 -16 -5 -17 -15 -2 -9 0 -15 4 -13 4 3 13 1 21 -4 8 -5 22 -4 33 1 18
10 51 20 74 21 6 1 9 7 6 15 -3 7 -9 10 -14 7 -5 -3 -6 3 -2 12 5 14 3 16 -11
11 -15 -6 -17 -3 -13 13 4 16 0 19 -19 18 -13 -1 -24 -6 -24 -10z"/>
<path d="M8007 463 c3 -7 6 -13 8 -13 2 0 5 6 8 13 3 8 -1 14 -8 14 -7 0 -11
-6 -8 -14z"/>
<path d="M7778 453 c-16 -2 -28 -9 -28 -14 0 -5 -6 -9 -14 -9 -11 0 -26 -20
-26 -35 0 -6 51 4 93 17 20 6 37 15 37 20 0 5 6 6 13 2 8 -5 8 -2 -2 9 -13 17
-21 18 -73 10z"/>
<path d="M7988 433 c7 -3 16 -2 19 1 4 3 -2 6 -13 5 -11 0 -14 -3 -6 -6z"/>
<path d="M7531 356 c-15 -18 2 -31 25 -18 13 7 13 10 1 20 -11 10 -17 9 -26
-2z"/>
<path d="M7460 342 c-39 -14 -42 -17 -20 -20 14 -2 28 -8 31 -13 10 -17 39 3
39 27 0 13 -1 24 -2 23 -2 0 -23 -8 -48 -17z"/>
<path d="M7278 323 c7 -3 16 -2 19 1 4 3 -2 6 -13 5 -11 0 -14 -3 -6 -6z"/>
<path d="M7453 260 c-28 -11 -28 -15 -4 -42 12 -12 26 -18 35 -15 21 8 20 29
0 25 -10 -2 -18 3 -20 10 -1 7 0 8 3 2 6 -14 23 -3 23 16 0 16 -6 17 -37 4z"/>
<path d="M7310 240 c0 -5 5 -10 11 -10 5 0 7 5 4 10 -3 6 -8 10 -11 10 -2 0
-4 -4 -4 -10z"/>
<path d="M7617 244 c-3 -4 -2 -15 4 -25 8 -15 14 -17 29 -9 11 6 17 16 14 25
-6 15 -35 20 -47 9z"/>
<path d="M7494 189 c-11 -18 62 -31 77 -13 6 8 8 14 3 15 -5 0 -24 2 -42 3
-18 2 -35 0 -38 -5z"/>
<path d="M7518 153 c7 -3 16 -2 19 1 4 3 -2 6 -13 5 -11 0 -14 -3 -6 -6z"/>
</g>
</svg>
