<?xml version="1.0" standalone="no"?>
<!DOCTYPE svg PUBLIC "-//W3C//DTD SVG 20010904//EN"
 "http://www.w3.org/TR/2001/REC-SVG-20010904/DTD/svg10.dtd">
<svg version="1.0" xmlns="http://www.w3.org/2000/svg"
 width="953.000000pt" height="805.000000pt" viewBox="0 0 953.000000 805.000000"
 preserveAspectRatio="xMidYMid meet">

<g transform="translate(0.000000,805.000000) scale(0.100000,-0.100000)"
fill="#000000" stroke="none">
<path d="M704 7956 c1 -64 -3 -99 -11 -107 -7 -7 -13 -27 -14 -43 0 -27 -2
-28 -9 -11 -8 18 -9 17 -9 -7 -1 -21 -6 -28 -20 -28 -10 0 -22 -7 -25 -16 -5
-12 -15 -15 -38 -12 -22 4 -41 -1 -58 -13 -14 -11 -45 -22 -70 -25 -25 -3 -50
-11 -57 -16 -7 -5 -17 -7 -23 -3 -5 3 -10 2 -10 -4 0 -6 -19 -9 -45 -7 -48 3
-90 33 -122 86 -13 23 -21 26 -61 23 -26 -2 -58 -5 -72 -7 -14 -2 -33 -4 -42
-5 -17 -1 -18 -37 -18 -610 0 -544 2 -609 16 -615 19 -7 50 8 58 29 3 9 10 13
16 10 6 -3 10 4 11 17 1 21 2 21 7 3 8 -23 42 -33 42 -12 0 8 8 21 17 28 12
10 15 11 9 1 -6 -10 -1 -11 18 -6 17 4 31 1 41 -10 9 -9 12 -16 6 -16 -6 0
-11 -4 -11 -10 0 -5 7 -10 15 -10 8 0 15 4 15 9 0 5 8 11 18 14 9 2 25 8 35
12 11 5 17 3 17 -7 0 -7 9 -19 20 -26 24 -14 35 -15 35 -3 0 5 3 13 7 17 5 4
8 1 8 -8 0 -8 7 -15 15 -15 8 0 15 4 15 9 0 13 28 9 33 -4 4 -8 8 -5 12 9 5
14 13 20 23 16 12 -3 13 -2 5 4 -10 7 -9 15 2 37 11 21 12 33 4 48 -7 13 -7
24 -1 30 6 6 12 -3 16 -26 6 -33 9 -36 34 -29 14 3 35 15 47 25 11 11 28 17
38 14 15 -4 16 -2 6 10 -6 8 -9 18 -5 21 4 4 11 1 15 -6 6 -9 9 -1 8 20 0 66
3 84 11 71 6 -9 14 -7 30 8 12 12 27 18 32 15 6 -3 10 3 10 15 0 17 3 19 19
10 28 -15 35 -12 16 6 -9 9 -13 19 -9 23 4 3 9 0 11 -6 3 -7 9 -13 14 -13 19
0 -5 30 -25 31 -16 1 -17 2 -4 6 9 2 27 -1 39 -7 15 -8 19 -9 15 -1 -4 6 -2
11 5 11 7 0 9 3 6 7 -12 11 24 42 41 37 16 -5 16 -5 1 8 -15 12 -15 16 3 38
19 23 20 24 14 3 -6 -20 -5 -21 17 -10 16 7 22 17 19 29 -5 22 2 23 23 2 9 -9
19 -13 22 -10 4 4 0 13 -9 22 -9 10 -13 25 -9 42 5 26 5 26 11 -6 l5 -34 27
21 c14 12 33 21 42 21 9 0 16 7 16 15 0 9 9 15 25 15 17 0 26 7 30 23 7 25 34
32 48 13 5 -7 14 -3 26 12 14 15 22 19 27 11 4 -8 12 -4 21 12 8 13 12 16 9 6
-5 -16 -4 -17 15 -3 18 12 24 12 47 0 17 -8 30 -10 37 -4 7 6 15 7 18 3 4 -3
13 0 22 7 8 7 15 8 15 2 0 -5 11 -9 25 -8 14 0 25 4 25 7 0 3 13 4 30 1 19 -3
27 -9 23 -16 -3 -6 -2 -7 3 -3 5 5 10 13 10 18 3 20 4 21 17 11 8 -7 26 -8 50
-2 32 7 36 6 26 -6 -9 -12 -9 -13 3 -9 18 7 48 -20 48 -43 0 -10 3 -13 8 -7 4
6 14 11 22 13 37 8 100 44 100 57 0 8 -4 15 -10 15 -12 0 -2 55 16 92 17 32
18 41 4 33 -13 -8 -12 -5 1 34 6 17 14 31 18 31 4 0 13 12 20 27 10 21 9 28
-1 34 -9 6 -4 9 15 9 15 0 27 5 27 11 0 5 -4 8 -9 4 -6 -3 -8 8 -6 27 13 109
14 128 4 128 -6 0 -8 7 -5 16 5 14 1 16 -24 10 -19 -3 -29 -2 -25 4 3 6 2 10
-4 10 -5 0 -11 -3 -13 -7 -4 -9 -74 -43 -89 -43 -6 0 -18 -7 -27 -16 -14 -15
-16 -15 -23 3 -8 23 -24 31 -56 28 -19 -1 -23 3 -23 25 0 23 -4 27 -29 25 -20
-1 -28 2 -24 11 3 8 -4 11 -21 10 -17 -2 -26 2 -26 10 0 8 -9 14 -20 14 -27 0
-130 110 -130 139 0 6 -6 11 -13 11 -7 0 -19 9 -27 20 -9 13 -36 24 -74 32
-33 6 -66 19 -75 30 -8 10 -22 18 -30 18 -8 0 -11 3 -8 7 4 3 -3 17 -15 30
-21 22 -26 23 -203 23 l-182 0 1 -94z m164 -366 c11 -11 24 -16 27 -10 9 14
35 0 35 -19 0 -14 2 -14 10 -1 9 13 10 13 10 0 0 -13 1 -13 10 0 7 11 10 7 10
-18 0 -19 -9 -46 -19 -61 -12 -17 -18 -36 -14 -50 4 -15 -1 -27 -16 -40 -26
-23 -27 -31 -1 -26 11 2 18 0 15 -6 -9 -13 -45 -11 -45 4 0 8 -4 7 -10 -3 -5
-8 -10 -11 -10 -6 0 6 -13 -3 -29 -18 -16 -16 -34 -25 -39 -22 -6 3 -13 -2
-17 -12 -6 -16 -7 -16 -21 2 -8 11 -14 15 -14 9 0 -6 7 -16 15 -23 23 -19 18
-38 -9 -33 -13 3 -27 0 -30 -6 -4 -6 -12 -11 -18 -11 -7 0 -6 5 2 15 10 12 8
18 -11 34 l-24 20 23 -6 c13 -3 22 -1 22 6 0 10 -6 13 -39 15 -16 1 -28 26
-13 26 6 0 13 14 17 31 5 20 11 29 21 25 14 -5 19 18 15 70 -1 12 5 28 13 37
9 9 16 28 17 44 0 15 3 22 6 16 7 -20 20 -15 26 8 4 14 11 20 21 16 8 -3 18
-2 21 3 9 15 19 12 43 -10z m-33 -300 c3 -5 1 -10 -4 -10 -6 0 -11 5 -11 10 0
6 2 10 4 10 3 0 8 -4 11 -10z m-132 -93 c3 -8 -1 -14 -8 -14 -7 0 -11 6 -8 14
3 7 6 13 8 13 2 0 5 -6 8 -13z m457 -29 c0 -4 -4 -8 -9 -8 -6 0 -12 4 -15 8
-3 5 1 9 9 9 8 0 15 -4 15 -9z m-140 -93 c-7 -9 -15 -13 -17 -11 -7 7 7 26 19
26 6 0 6 -6 -2 -15z m-360 -327 c0 -6 -6 -5 -15 2 -8 7 -15 14 -15 16 0 2 7 1
15 -2 8 -4 15 -11 15 -16z m-30 -28 c0 -4 -8 -14 -17 -21 -11 -10 -14 -10 -9
-1 4 7 1 12 -8 12 -10 0 -16 -9 -16 -22 0 -18 -2 -20 -9 -9 -14 22 5 49 34 49
14 0 25 -4 25 -8z m-159 -94 c-9 -11 -9 -15 1 -19 10 -3 10 -7 1 -17 -9 -10
-16 -9 -34 4 -17 12 -19 16 -7 16 8 0 21 7 28 15 7 8 15 15 17 15 3 0 0 -6 -6
-14z m-185 -33 c-3 -3 -13 -2 -23 2 -17 7 -17 8 2 15 19 7 34 -5 21 -17z m94
-8 c0 -12 -19 -12 -23 0 -4 9 -1 12 9 8 7 -3 14 -7 14 -8z"/>
<path d="M4715 8008 c2 -24 7 -68 10 -98 2 -30 16 -91 30 -135 35 -113 33
-185 -10 -364 -19 -80 -40 -166 -46 -191 -5 -25 -24 -67 -40 -95 -41 -67 -195
-226 -260 -267 -31 -20 -41 -64 -23 -107 7 -16 10 -55 8 -90 -2 -33 0 -61 5
-61 5 0 12 -17 16 -37 4 -21 10 -42 14 -48 4 -5 13 -29 20 -52 6 -23 17 -46
24 -50 16 -10 77 -10 77 0 0 5 4 5 10 2 5 -3 22 0 37 8 15 8 33 12 40 10 17
-6 204 183 236 240 16 26 39 78 53 115 14 37 38 93 55 124 l29 58 -15 76 c-9
42 -20 87 -26 101 -19 49 -11 150 18 216 25 59 26 71 27 232 1 169 1 170 31
225 65 119 210 195 358 188 41 -1 73 0 70 5 -2 4 1 7 6 7 6 0 11 7 11 15 0 13
-49 15 -385 15 l-385 0 5 -42z"/>
<path d="M5947 8044 c6 -3 9 -18 6 -35 -2 -17 0 -29 7 -29 6 0 8 -5 5 -11 -4
-5 -8 -20 -10 -32 -1 -12 -9 -49 -18 -82 -8 -33 -18 -82 -22 -108 l-6 -48 95
-92 c112 -109 161 -195 177 -319 9 -63 15 -78 44 -108 19 -19 35 -39 36 -45 1
-5 6 -17 13 -26 24 -33 37 -32 72 7 19 22 34 43 34 48 0 5 10 23 23 40 25 33
47 115 47 172 0 20 5 44 10 55 6 10 11 44 12 74 1 30 4 55 7 55 3 0 6 28 6 63
0 34 7 102 15 150 13 80 13 91 -2 120 -20 38 -48 122 -48 142 0 13 -38 15
-257 14 -142 0 -253 -3 -246 -5z"/>
<path d="M8055 7962 c-1 -108 -22 -156 -103 -239 -56 -56 -181 -253 -237 -371
-16 -33 -12 -74 5 -69 16 4 65 -35 89 -71 20 -32 34 -105 33 -172 -3 -109 -14
-246 -21 -254 -4 -6 -22 -36 -39 -66 -46 -85 -52 -189 -13 -220 9 -7 61 -118
61 -130 0 -19 40 -50 63 -50 13 0 39 7 58 17 65 31 94 76 84 133 -3 21 -1 57
6 81 7 24 11 53 10 64 -2 29 20 105 30 105 5 0 9 14 9 31 0 24 10 40 41 68 35
33 39 42 34 67 -13 56 -37 109 -72 158 -43 60 -61 129 -57 222 3 57 7 72 24
84 12 8 34 26 49 40 15 14 39 31 53 39 14 7 30 23 36 36 8 18 22 24 74 30 115
15 162 9 241 -30 138 -69 218 -189 273 -410 30 -119 -13 -293 -90 -363 -20
-18 -36 -37 -36 -42 0 -6 -7 -10 -15 -10 -8 0 -15 -4 -15 -9 0 -5 -9 -13 -21
-16 -14 -5 -17 -10 -10 -19 6 -7 8 -22 4 -34 -3 -13 2 -33 13 -49 37 -55 64
-113 64 -135 0 -13 7 -41 14 -64 8 -22 17 -68 20 -103 3 -34 13 -83 22 -109 9
-26 16 -72 15 -102 0 -63 -16 -88 -82 -138 -24 -18 -54 -42 -65 -52 -12 -11
-25 -20 -29 -20 -4 0 -25 -15 -48 -34 -45 -36 -64 -44 -122 -51 -36 -5 -73
-18 -141 -52 l-31 -15 21 -22 c11 -12 29 -21 39 -20 9 2 17 -2 17 -8 0 -5 7
-8 15 -5 8 4 17 2 20 -4 4 -5 10 -7 15 -4 5 3 18 -3 30 -15 11 -11 23 -20 27
-20 4 0 17 -12 29 -27 l21 -27 119 12 c123 13 229 6 304 -19 108 -36 168 -194
105 -279 -13 -18 -22 -38 -18 -43 4 -6 -6 -8 -26 -4 -43 9 -71 -7 -71 -39 0
-31 20 -28 37 7 10 18 13 20 13 7 0 -10 5 -18 10 -18 6 0 10 -4 10 -9 0 -5 -8
-7 -18 -4 -10 2 -24 -3 -32 -12 -11 -14 -10 -19 7 -37 l21 -20 11 20 c12 23
41 20 41 -4 0 -18 40 -54 60 -54 15 0 217 -110 282 -154 15 -9 34 -19 42 -20
9 -1 22 -9 28 -18 7 -9 40 -30 73 -48 l60 -31 3 472 c1 260 1 473 0 475 -2 1
-67 -10 -146 -24 l-143 -26 -37 19 c-20 11 -58 41 -84 66 -56 53 -63 86 -20
94 15 4 51 18 81 32 46 22 61 25 110 18 100 -12 106 -12 106 10 1 39 16 62 75
111 l60 49 0 851 0 852 -52 22 c-29 12 -76 33 -103 46 -28 12 -75 32 -104 44
-63 24 -93 45 -173 116 -50 44 -66 53 -111 59 -28 3 -85 15 -125 26 -65 17
-108 19 -440 19 l-367 0 0 -88z"/>
<path d="M7089 7241 c-25 -29 -26 -34 -21 -124 l5 -94 -43 -74 c-34 -58 -44
-84 -45 -124 -1 -27 0 -55 3 -62 4 -11 49 -19 157 -27 28 -2 66 -7 86 -11 44
-8 128 30 147 67 12 24 10 95 -6 186 -7 39 -6 59 4 77 12 23 11 28 -6 45 -11
11 -20 23 -20 28 -1 18 -90 95 -90 77 0 -4 -7 1 -16 9 -8 9 -25 16 -36 16 -11
0 -31 9 -45 20 -34 27 -44 25 -74 -9z"/>
<path d="M1565 7171 c-3 -5 -1 -12 4 -15 5 -3 11 1 15 9 6 16 -9 21 -19 6z"/>
<path d="M1130 7110 c0 -5 5 -10 11 -10 5 0 7 5 4 10 -3 6 -8 10 -11 10 -2 0
-4 -4 -4 -10z"/>
<path d="M2396 6754 c-4 -15 -2 -33 6 -42 7 -10 12 -18 13 -19 0 -1 12 -4 28
-8 23 -6 27 -4 27 14 0 13 6 21 17 21 13 0 14 3 5 12 -8 8 -15 8 -27 -2 -12
-10 -15 -10 -15 2 0 14 -30 48 -42 48 -3 0 -9 -12 -12 -26z m42 -31 c-4 -22
-22 -20 -26 1 -2 10 3 16 13 16 10 0 15 -7 13 -17z"/>
<path d="M2283 6725 c-6 -14 -8 -25 -4 -25 12 0 31 23 31 37 0 21 -14 15 -27
-12z"/>
<path d="M2345 6740 c-3 -5 -1 -10 4 -10 6 0 11 5 11 10 0 6 -2 10 -4 10 -3 0
-8 -4 -11 -10z"/>
<path d="M2590 6710 c-16 -23 -20 -40 -16 -77 3 -32 -1 -55 -10 -67 -10 -14
-11 -23 -3 -33 15 -17 53 -18 42 0 -12 19 -14 47 -4 47 6 0 13 -4 16 -10 8
-14 25 -13 25 1 0 7 10 20 22 30 11 11 18 22 14 26 -3 4 -13 -3 -22 -15 -19
-27 -38 -29 -31 -2 3 13 0 20 -9 20 -17 0 -19 46 -2 56 6 4 16 0 23 -9 7 -10
20 -14 33 -10 21 5 21 6 -6 39 -33 42 -45 42 -72 4z"/>
<path d="M621 6671 c-8 -6 -9 -11 -3 -15 6 -3 14 -1 17 5 9 14 2 20 -14 10z"/>
<path d="M2364 6666 c-8 -22 3 -33 18 -18 9 9 9 15 0 24 -9 9 -13 7 -18 -6z"/>
<path d="M2738 6653 c7 -3 16 -2 19 1 4 3 -2 6 -13 5 -11 0 -14 -3 -6 -6z"/>
<path d="M2188 6623 c7 -3 16 -2 19 1 4 3 -2 6 -13 5 -11 0 -14 -3 -6 -6z"/>
<path d="M2423 6615 c0 -8 4 -12 9 -9 4 3 8 9 8 15 0 5 -4 9 -8 9 -5 0 -9 -7
-9 -15z"/>
<path d="M2220 6605 c0 -8 4 -15 10 -15 5 0 7 -7 4 -15 -5 -12 2 -15 30 -15
46 0 46 12 0 39 -42 25 -44 25 -44 6z"/>
<path d="M2498 6593 c-3 -28 -28 -45 -28 -19 0 9 -7 16 -15 16 -20 0 -33 -32
-15 -38 7 -3 29 -20 47 -38 36 -36 41 -38 61 -26 15 10 6 42 -12 42 -16 0 -38
38 -26 45 6 3 15 3 22 -1 7 -5 9 -2 5 8 -3 9 0 21 6 27 8 8 4 11 -15 11 -21 0
-27 -5 -30 -27z"/>
<path d="M2732 6599 c-17 -26 -7 -76 21 -107 15 -16 18 -25 10 -33 -8 -8 -14
-5 -23 11 -9 16 -15 19 -23 11 -15 -15 -44 -14 -50 2 -4 7 -6 6 -6 -4 -1 -9 9
-23 20 -31 21 -14 22 -15 4 -51 -17 -37 -45 -51 -45 -23 0 9 -12 16 -27 18
-20 2 -29 9 -31 24 -3 21 -52 42 -52 23 0 -5 7 -9 15 -9 19 0 19 -15 -1 -45
-14 -22 -15 -30 -4 -58 20 -49 32 -61 42 -43 5 8 15 13 23 10 13 -5 12 -10 -3
-33 -21 -29 -18 -61 4 -61 11 0 13 6 9 20 -5 14 -2 20 9 20 9 0 16 -4 16 -10
0 -5 4 -10 9 -10 5 0 7 10 3 23 -5 20 -4 21 13 7 17 -14 18 -13 13 12 l-5 26
38 -24 c45 -28 59 -30 59 -9 0 18 17 20 22 4 3 -9 10 -9 26 0 16 9 22 9 22 0
0 -6 -9 -13 -20 -16 -10 -3 -22 -14 -25 -24 -4 -10 -11 -19 -16 -19 -13 0 -11
-36 4 -48 6 -6 25 -10 40 -9 21 2 27 6 23 20 -3 12 2 17 16 17 17 0 19 2 7 16
-7 8 -21 13 -31 11 -10 -3 -18 -1 -18 5 0 5 9 12 20 15 11 3 20 12 20 20 0 10
6 12 22 7 21 -6 22 -5 8 11 -14 17 -13 18 10 12 14 -4 35 -7 48 -7 13 0 22 -6
22 -15 0 -9 9 -15 23 -15 20 -1 21 -2 5 -14 -14 -10 -15 -15 -5 -26 10 -10 8
-12 -6 -6 -14 4 -20 0 -24 -14 -4 -15 -11 -19 -24 -15 -11 4 -19 2 -19 -3 0
-5 -13 -15 -30 -22 -41 -17 -39 -48 3 -41 4 0 7 -3 7 -9 0 -5 -5 -10 -11 -10
-5 0 -7 -5 -4 -11 4 -6 -1 -16 -10 -23 -15 -11 -15 -13 -2 -25 13 -10 20 -9
41 4 28 19 34 40 14 48 -7 3 -4 6 7 6 26 1 45 19 45 43 0 10 5 18 10 18 6 0 9
3 8 8 -6 20 36 82 63 91 29 10 40 31 17 31 -8 1 -6 6 5 14 21 16 22 26 3 26
-9 0 -12 7 -9 20 4 14 0 20 -12 20 -19 0 -47 25 -38 33 8 8 -39 57 -54 57 -7
0 -13 7 -13 16 0 8 -5 12 -11 8 -6 -3 -24 8 -39 25 -20 22 -38 31 -59 31 -37
0 -63 35 -31 43 10 3 31 -1 45 -9 25 -13 26 -12 19 9 -3 12 -10 26 -13 30 -11
11 -61 19 -61 9 0 -13 -44 -9 -55 5 -8 11 -13 9 -23 -8z m55 -48 c19 -31 75
-67 91 -57 6 3 13 -2 17 -13 3 -10 21 -26 40 -36 19 -9 35 -20 35 -25 0 -6 7
-10 15 -10 8 0 15 -9 15 -19 0 -25 -16 -36 -24 -15 -3 8 -10 12 -16 9 -6 -3
-13 0 -16 9 -3 8 -11 13 -19 10 -7 -3 -16 5 -20 18 -6 19 -8 20 -12 6 -3 -11
-14 -18 -28 -18 -22 0 -46 36 -69 103 -3 11 -15 21 -26 24 -11 3 -20 14 -20
24 0 28 19 23 37 -10z m168 -206 c22 -9 44 -24 49 -32 7 -12 10 -13 16 -2 6 9
12 6 21 -14 14 -31 3 -50 -15 -25 -7 9 -21 16 -32 15 -14 -2 -18 3 -16 18 2
18 2 18 -8 3 -14 -23 -30 -23 -30 -1 0 13 -3 14 -12 5 -16 -16 -28 -15 -28 3
0 18 -11 19 -29 3 -9 -8 -12 -9 -7 -1 3 6 -6 21 -21 32 -23 16 -25 22 -14 30
14 9 42 2 126 -34z m-315 0 c15 -18 6 -45 -14 -45 -20 0 -29 16 -21 40 8 24
18 25 35 5z m122 -67 c-15 -15 -27 14 -17 40 6 15 8 15 18 -6 7 -16 7 -26 -1
-34z"/>
<path d="M2690 6590 c0 -12 -7 -20 -16 -20 -9 0 -14 -5 -12 -12 6 -18 28 -22
28 -5 0 8 7 20 15 27 8 7 15 16 15 21 0 5 -7 9 -15 9 -8 0 -15 -9 -15 -20z"/>
<path d="M2340 6569 c0 -5 5 -7 10 -4 6 3 10 8 10 11 0 2 -4 4 -10 4 -5 0 -10
-5 -10 -11z"/>
<path d="M2150 6535 c0 -35 36 -70 56 -54 22 18 18 42 -6 34 -15 -5 -22 0 -30
19 -12 33 -20 33 -20 1z"/>
<path d="M0 6519 c0 -5 5 -7 10 -4 5 3 10 8 10 11 0 2 -4 4 -10 4 -5 0 -10 -5
-10 -11z"/>
<path d="M1685 6396 c-126 -73 -311 -181 -410 -239 -99 -58 -224 -131 -278
-162 -69 -41 -97 -62 -93 -72 4 -11 1 -13 -14 -8 -14 4 -35 -3 -64 -22 -23
-15 -75 -46 -114 -68 -39 -22 -72 -43 -72 -47 0 -4 11 -24 25 -44 14 -20 25
-45 25 -56 0 -11 5 -16 10 -13 6 3 10 19 10 36 0 29 0 29 60 29 33 0 60 4 60
10 0 6 5 10 11 10 5 0 8 -4 4 -9 -3 -5 -1 -12 4 -15 5 -3 11 3 14 14 3 11 1
23 -4 26 -15 9 0 24 25 24 17 0 25 -7 29 -25 4 -24 3 -24 -13 -10 -23 21 -27
19 -25 -12 1 -22 7 -29 31 -35 16 -4 -9 -5 -56 -2 -94 4 -97 8 39 -54 40 -18
89 -35 108 -36 18 -2 36 -6 40 -10 14 -14 31 -4 36 22 5 27 6 27 84 26 43 -1
113 -9 155 -18 42 -9 93 -16 113 -16 20 0 66 -7 103 -15 37 -8 88 -17 113 -18
25 -2 51 -7 58 -11 6 -4 11 -1 11 6 0 9 3 9 10 -2 8 -13 10 -12 10 3 0 20 13
22 43 6 22 -12 22 -12 3 9 -14 16 -25 20 -48 15 -26 -5 -29 -3 -26 13 2 13 10
18 26 16 12 -2 22 1 22 7 0 6 -6 8 -14 5 -8 -3 -17 -1 -21 5 -6 11 23 15 85
14 50 -1 58 -3 64 -19 4 -12 2 -15 -9 -10 -11 4 -15 -2 -15 -20 0 -19 -4 -25
-15 -21 -8 4 -17 2 -20 -3 -3 -5 16 -23 42 -39 26 -16 50 -26 53 -22 3 5 14
10 25 12 32 7 29 34 -7 50 -17 7 -33 20 -34 27 -1 7 0 8 3 2 8 -17 33 -11 32
8 0 10 -3 12 -6 5 -3 -10 -8 -9 -19 2 -17 17 -9 39 9 28 7 -4 19 -8 27 -8 43
-4 50 -6 50 -15 0 -5 -10 -9 -21 -7 -12 1 -24 -4 -26 -10 -3 -8 5 -13 21 -13
27 0 96 -25 96 -34 0 -3 -15 -10 -32 -15 l-33 -9 43 -7 c23 -4 42 -10 42 -12
0 -9 -27 -31 -41 -34 -21 -5 -69 10 -69 21 0 6 -11 10 -25 10 -18 0 -23 -4
-19 -15 4 -8 16 -15 29 -15 13 0 26 -7 29 -16 3 -9 11 -12 18 -8 9 5 9 3 -1
-9 -19 -24 -88 -22 -130 4 -36 22 -58 16 -27 -7 26 -18 11 -32 -17 -16 -15 9
-13 5 7 -13 26 -24 30 -25 38 -11 12 21 28 11 21 -13 -4 -15 2 -21 26 -26 19
-4 28 -11 25 -17 -5 -7 0 -9 14 -6 12 4 24 2 27 -2 3 -5 14 -8 25 -7 13 1 16
5 9 13 -7 8 -1 13 21 16 18 3 30 0 30 -6 0 -6 11 -23 25 -38 23 -25 24 -28 10
-62 -17 -40 -20 -90 -5 -81 6 3 15 26 21 51 6 25 19 49 29 54 15 8 19 4 24
-20 3 -18 12 -30 21 -30 8 0 15 -6 15 -13 0 -20 -21 -36 -39 -30 -13 4 -13 2
2 -7 20 -13 22 -43 3 -59 -7 -6 -21 -37 -30 -69 -10 -31 -19 -63 -22 -69 -2
-7 -8 -13 -13 -13 -10 0 -9 19 2 37 10 16 -11 27 -27 14 -9 -8 -12 -6 -12 11
1 12 -6 22 -15 23 -14 2 -17 -10 -21 -67 -5 -59 -14 -87 -57 -174 -42 -85 -60
-111 -97 -137 -41 -29 -202 -116 -249 -134 -17 -6 -14 -8 13 -11 21 -2 46 4
66 16 32 19 93 38 109 34 4 -1 7 2 7 7 0 5 9 7 21 4 13 -4 27 2 40 16 11 11
27 21 37 20 14 0 14 -2 2 -7 -8 -4 -15 -16 -15 -27 0 -11 7 -23 15 -27 12 -5
12 -7 -2 -7 -26 -1 -22 -28 5 -35 32 -8 37 -7 35 6 -2 6 5 14 15 16 16 3 17 1
5 -18 -11 -18 -19 -20 -58 -15 -32 4 -41 3 -30 -4 13 -9 13 -11 -1 -11 -10 0
-19 -12 -23 -31 -7 -36 -10 -36 -129 0 -82 24 -80 13 10 -53 80 -59 219 -197
368 -366 66 -74 306 -323 534 -553 l415 -417 22 60 c12 33 26 66 31 72 5 7 27
37 49 66 67 91 197 177 329 218 94 29 313 27 420 -5 164 -48 289 -119 394
-223 209 -208 279 -485 180 -715 -12 -27 -14 -41 -6 -36 6 4 93 75 192 158
293 244 677 560 826 681 47 38 154 125 237 194 l152 125 -122 117 c-68 65
-130 118 -139 118 -25 0 -96 -27 -124 -47 -14 -10 -57 -62 -95 -115 -92 -128
-163 -185 -300 -241 -85 -35 -182 -57 -250 -56 l-55 0 74 24 c40 13 93 27 117
31 24 3 80 25 125 48 64 32 94 56 138 106 l56 65 -75 -68 c-72 -64 -149 -110
-207 -123 -16 -3 -37 -9 -48 -14 -60 -25 -219 -32 -340 -15 -25 4 -36 3 -30
-3 14 -14 76 -32 126 -38 60 -7 62 -14 3 -14 -63 0 -176 18 -188 31 -6 5 -21
9 -35 9 -94 1 -350 141 -463 254 -125 125 -232 325 -247 461 -23 198 34 347
184 483 76 69 132 92 315 132 21 5 27 9 15 10 -39 4 27 17 82 16 28 -1 49 3
46 8 -3 5 9 6 28 2 19 -4 71 -13 117 -20 l84 -13 -49 47 c-78 76 -316 303
-498 476 -94 89 -297 283 -453 432 -156 150 -287 272 -291 272 -5 0 -28 -17
-52 -38 -57 -50 -71 -54 -86 -24 -14 27 -9 42 13 42 8 0 14 8 14 19 0 10 10
25 21 33 12 8 20 20 17 28 -5 17 -49 -26 -149 -147 -40 -48 -82 -97 -93 -109
-12 -12 -29 -32 -39 -45 -10 -13 -40 -53 -68 -89 -28 -36 -55 -73 -60 -82 -5
-10 -14 -18 -19 -18 -5 0 -76 46 -157 101 -129 89 -157 104 -213 115 -82 16
-126 32 -231 83 -156 75 -243 158 -327 311 -46 84 -47 86 -47 177 0 51 0 93 0
93 0 -1 -103 -61 -230 -134z m1565 -421 c0 -8 -10 -20 -22 -26 -12 -7 -29 -21
-38 -31 -14 -18 -17 -18 -29 -4 -17 20 -4 38 21 30 18 -5 20 -3 15 17 -8 32 9
52 34 38 10 -5 19 -16 19 -24z m-2130 -5 c0 -23 -10 -26 -28 -8 -18 18 -15 28
8 28 13 0 20 -7 20 -20z m178 -8 c10 -14 9 -18 -9 -24 -15 -6 -27 -4 -38 5 -9
8 -21 12 -28 10 -22 -8 -24 17 -1 26 28 12 59 4 76 -17z m126 0 c7 -12 -4 -52
-14 -52 -5 0 -12 9 -15 21 -4 12 -12 18 -21 15 -8 -3 -14 -1 -14 3 0 18 54 28
64 13z m157 -33 c24 -24 19 -35 -9 -20 -15 8 -22 8 -25 -2 -6 -16 -41 4 -45
27 -5 24 53 21 79 -5z m1557 -50 c-2 -6 -8 -10 -13 -10 -5 0 -11 4 -13 10 -2
6 4 11 13 11 9 0 15 -5 13 -11z m-1198 -23 c0 -2 -9 -6 -20 -9 -11 -3 -20 -1
-20 4 0 5 9 9 20 9 11 0 20 -2 20 -4z m-925 -37 c-11 -17 -35 -9 -35 11 0 18
3 19 20 10 11 -6 18 -15 15 -21z m613 19 c7 -7 12 -20 12 -30 0 -15 -5 -17
-25 -12 -20 5 -24 3 -19 -10 10 -27 -20 -18 -33 9 -9 20 -8 28 4 40 18 18 45
19 61 3z m207 -8 c-3 -5 -12 -10 -20 -10 -7 0 -27 -22 -44 -50 -17 -27 -35
-50 -41 -50 -16 0 54 94 81 107 29 15 32 16 24 3z m-655 -30 c0 -5 -7 -10 -16
-10 -8 0 -12 5 -9 10 3 6 10 10 16 10 5 0 9 -4 9 -10z m290 -5 c0 -8 -2 -15
-4 -15 -2 0 -6 7 -10 15 -3 8 -1 15 4 15 6 0 10 -7 10 -15z m-130 -45 c0 -5
-7 -10 -16 -10 -8 0 -12 5 -9 10 3 6 10 10 16 10 5 0 9 -4 9 -10z m130 0 c0
-5 -4 -10 -9 -10 -6 0 -13 5 -16 10 -3 6 1 10 9 10 9 0 16 -4 16 -10z m560
-40 c0 -5 -7 -10 -15 -10 -8 0 -15 5 -15 10 0 6 7 10 15 10 8 0 15 -4 15 -10z
m20 -280 c0 -5 -7 -7 -15 -4 -8 4 -15 8 -15 10 0 2 7 4 15 4 8 0 15 -4 15 -10z
m-140 -10 c0 -5 -5 -10 -11 -10 -5 0 -7 5 -4 10 3 6 8 10 11 10 2 0 4 -4 4
-10z m47 -16 c-3 -3 -12 -4 -19 -1 -8 3 -5 6 6 6 11 1 17 -2 13 -5z m233 -64
c0 -5 -5 -10 -11 -10 -5 0 -7 5 -4 10 3 6 8 10 11 10 2 0 4 -4 4 -10z m1585
-140 c25 -26 30 -28 38 -14 17 29 73 46 117 34 113 -30 164 -168 76 -205 -18
-8 -39 -21 -46 -30 -38 -45 -45 -42 -163 71 -62 59 -114 112 -116 117 -3 10
46 57 60 57 3 0 18 -14 34 -30z m-1480 -180 c-6 -36 -5 -41 19 -50 14 -5 26
-14 26 -20 0 -14 -9 -13 -26 5 -13 12 -20 8 -56 -31 -44 -48 -98 -83 -98 -64
0 6 10 21 23 34 12 13 39 41 60 63 21 22 40 53 42 69 5 36 4 34 11 34 3 0 3
-18 -1 -40z m1397 30 c84 -24 132 -98 104 -163 -37 -90 -183 -89 -243 2 -13
19 -23 46 -23 62 0 47 55 97 120 108 3 1 22 -4 42 -9z m-193 -194 l113 -113
-36 -28 -37 -28 -112 109 c-62 60 -116 112 -122 117 -12 10 42 57 65 57 9 0
66 -51 129 -114z m-249 -30 c9 -12 17 -13 36 -4 21 10 28 8 49 -12 29 -27 31
-38 9 -54 -13 -10 -12 -15 11 -36 22 -20 29 -22 45 -12 16 10 24 8 46 -11 49
-42 11 -97 -66 -97 -26 0 -95 48 -121 84 -4 5 -12 5 -19 1 -15 -9 -60 33 -60
56 0 10 -4 21 -10 24 -17 11 -11 42 13 58 28 20 51 21 67 3z m-1250 -126 c0
-5 -8 -10 -17 -10 -15 0 -16 2 -3 10 19 12 20 12 20 0z m1176 -46 c66 -32 99
-107 70 -162 -71 -137 -326 -26 -261 112 29 61 119 84 191 50z m-1176 -50 c0
-2 -11 -4 -25 -4 -14 0 -25 4 -25 9 0 4 11 6 25 3 14 -2 25 -6 25 -8z m970
-165 c45 -39 80 -78 78 -85 -2 -8 -18 -24 -35 -35 l-32 -21 -54 51 c-52 49
-87 65 -87 39 0 -7 23 -36 51 -64 l51 -52 -36 -27 -36 -27 -90 82 c-49 46 -90
89 -90 96 0 13 46 54 62 54 5 0 21 14 35 30 20 24 33 30 64 30 34 0 49 -9 119
-71z m-1020 31 c0 -5 -2 -10 -4 -10 -3 0 -8 5 -11 10 -3 6 -1 10 4 10 6 0 11
-4 11 -10z m537 -51 c36 -13 73 -48 73 -68 0 -11 9 -17 28 -17 75 -3 72 -1 72
-47 0 -24 -5 -48 -11 -54 -8 -8 1 -13 37 -18 27 -4 58 -9 68 -12 17 -5 18 -1
12 36 -5 36 -4 41 13 41 24 0 31 -19 31 -83 0 -84 -57 -146 -150 -166 -79 -17
-210 13 -181 42 6 6 21 5 42 -2 17 -6 41 -11 53 -11 19 0 21 5 18 55 l-4 55
-37 0 c-43 0 -105 30 -109 54 -3 12 4 16 25 16 26 1 25 2 -11 15 -91 32 -119
115 -53 155 37 23 45 24 84 9z"/>
<path d="M3877 5126 c-7 -18 24 -46 51 -46 27 0 28 21 4 43 -23 21 -48 22 -55
3z"/>
<path d="M3643 4963 c-20 -8 -15 -31 11 -48 45 -30 78 9 34 39 -24 17 -26 17
-45 9z"/>
<path d="M3093 4583 c-16 -6 -17 -35 -1 -51 17 -17 58 -15 65 5 4 10 -2 23
-16 35 -24 19 -28 20 -48 11z"/>
<path d="M2430 4347 c0 -18 21 -37 41 -37 18 0 33 26 23 41 -8 14 -64 11 -64
-4z"/>
<path d="M2565 4240 c-3 -5 -1 -10 4 -10 6 0 11 5 11 10 0 6 -2 10 -4 10 -3 0
-8 -4 -11 -10z"/>
<path d="M2528 4233 c7 -3 16 -2 19 1 4 3 -2 6 -13 5 -11 0 -14 -3 -6 -6z"/>
<path d="M2631 4116 c2 -60 10 -66 52 -45 32 17 77 61 77 76 0 8 -12 13 -27
13 -16 0 -45 3 -66 6 l-38 7 2 -57z"/>
<path d="M2920 6522 c0 -5 7 -13 16 -16 10 -4 14 -1 12 6 -5 15 -28 23 -28 10z"/>
<path d="M2301 6484 c-28 -29 -32 -38 -20 -45 8 -5 18 -9 23 -9 5 0 3 -6 -3
-14 -9 -11 -7 -15 11 -19 28 -8 41 1 35 23 -3 11 1 21 8 24 7 2 15 13 17 24 4
15 1 18 -14 14 -17 -4 -19 -1 -13 17 10 31 -6 26 -44 -15z"/>
<path d="M2623 6486 c-13 -15 -7 -26 14 -26 7 0 13 9 13 20 0 23 -10 25 -27 6z"/>
<path d="M2435 6480 c-3 -5 1 -10 9 -10 9 0 16 5 16 10 0 6 -4 10 -9 10 -6 0
-13 -4 -16 -10z"/>
<path d="M2080 6435 c-9 -10 -9 -15 -1 -15 6 0 11 5 11 12 0 9 3 9 12 0 16
-16 28 -15 28 3 0 8 -8 15 -19 15 -10 0 -24 -7 -31 -15z"/>
<path d="M2312 6360 c7 -11 18 -20 25 -20 18 0 16 27 -3 34 -28 11 -34 6 -22
-14z"/>
<path d="M2421 6344 c0 -11 3 -14 6 -6 3 7 2 16 -1 19 -3 4 -6 -2 -5 -13z"/>
<path d="M2315 6310 c3 -5 11 -10 16 -10 6 0 7 5 4 10 -3 6 -11 10 -16 10 -6
0 -7 -4 -4 -10z"/>
<path d="M2363 6292 c10 -10 17 -33 17 -51 0 -20 4 -30 10 -26 6 4 17 1 25 -5
12 -10 18 -10 30 0 13 11 13 14 -1 27 -8 9 -13 22 -10 29 4 11 -1 13 -18 8
-18 -4 -27 0 -36 15 -6 12 -16 21 -22 21 -6 0 -4 -8 5 -18z"/>
<path d="M2287 6256 c-6 -16 2 -28 14 -20 12 7 11 34 0 34 -5 0 -11 -6 -14
-14z"/>
<path d="M2340 6263 c0 -6 -3 -18 -6 -27 -7 -18 4 -20 26 -6 13 8 13 11 -2 27
-10 9 -18 12 -18 6z"/>
<path d="M3200 6203 c-16 -77 -40 -122 -92 -171 -66 -62 -97 -84 -168 -119
-56 -27 -61 -32 -36 -32 16 -1 34 6 42 16 11 16 17 16 45 6 38 -15 49 -10 42
16 -4 15 1 20 24 23 20 2 28 8 28 23 0 13 8 21 23 23 12 2 22 8 22 14 0 13 77
88 90 88 6 0 10 10 10 21 0 12 8 27 17 34 15 11 16 16 4 38 -7 14 -11 29 -7
35 3 5 -3 17 -13 26 -19 17 -20 16 -31 -41z"/>
<path d="M2917 6244 c-8 -8 1 -24 14 -24 5 0 9 7 9 15 0 15 -12 20 -23 9z"/>
<path d="M2690 6220 c0 -13 5 -20 13 -17 6 2 12 10 12 17 0 7 -6 15 -12 18 -8
2 -13 -5 -13 -18z"/>
<path d="M3070 6221 c0 -5 -3 -16 -6 -25 -4 -11 -1 -16 10 -16 10 0 16 9 16
25 0 14 -4 25 -10 25 -5 0 -10 -4 -10 -9z"/>
<path d="M2190 6199 c-15 -28 -4 -38 15 -13 17 22 19 34 5 34 -5 0 -14 -9 -20
-21z"/>
<path d="M2484 6184 c22 -8 42 -12 45 -8 10 9 -23 24 -54 23 -29 0 -29 -1 9
-15z"/>
<path d="M2575 6180 c3 -5 8 -10 11 -10 2 0 4 5 4 10 0 6 -5 10 -11 10 -5 0
-7 -4 -4 -10z"/>
<path d="M2454 6155 c18 -14 18 -15 2 -15 -9 0 -15 -4 -11 -9 3 -5 1 -12 -5
-16 -5 -3 -10 -11 -10 -16 0 -11 55 16 65 31 10 16 -14 40 -39 40 -21 -1 -21
-1 -2 -15z"/>
<path d="M2670 6156 c0 -8 5 -18 10 -21 6 -3 10 3 10 14 0 12 -4 21 -10 21 -5
0 -10 -6 -10 -14z"/>
<path d="M2346 6139 c5 -9 -1 -10 -20 -5 -19 5 -26 3 -26 -9 0 -8 0 -18 -1
-22 -1 -17 21 -13 40 6 23 23 27 41 10 41 -5 0 -7 -5 -3 -11z"/>
<path d="M2735 6130 c-3 -5 1 -20 9 -31 14 -21 15 -21 14 10 -1 31 -11 40 -23
21z"/>
<path d="M2573 6115 c-3 -9 -3 -18 0 -21 9 -9 27 6 27 22 0 19 -19 18 -27 -1z"/>
<path d="M2524 6102 c-5 -4 -21 -24 -33 -45 l-24 -39 24 4 c21 3 24 -1 27 -34
4 -49 26 -49 30 -1 1 23 -4 43 -15 55 -17 19 -17 20 0 29 9 6 17 17 17 24 0
16 -9 19 -26 7z"/>
<path d="M2666 6075 c-3 -8 -1 -15 4 -15 6 0 10 7 10 15 0 8 -2 15 -4 15 -2 0
-6 -7 -10 -15z"/>
<path d="M2580 6060 c0 -5 5 -10 11 -10 6 0 31 -18 57 -40 25 -22 48 -38 51
-35 3 4 -1 10 -8 14 -7 5 -11 15 -9 22 8 24 -33 59 -69 59 -18 0 -33 -4 -33
-10z"/>
<path d="M2735 6060 c-11 -5 -16 -9 -11 -9 5 -1 3 -8 -4 -16 -22 -26 22 -18
70 13 5 3 -22 22 -30 21 -3 0 -14 -4 -25 -9z"/>
<path d="M2730 6000 c0 -5 7 -7 15 -4 8 4 15 8 15 10 0 2 -7 4 -15 4 -8 0 -15
-4 -15 -10z"/>
<path d="M2557 5963 c6 -14 43 -18 43 -4 0 5 -11 11 -24 13 -17 4 -23 1 -19
-9z"/>
<path d="M0 5882 c0 -18 44 -101 72 -137 13 -16 141 -146 284 -287 216 -214
264 -256 282 -251 23 6 20 23 -4 23 -30 0 -535 518 -600 615 -19 27 -34 44
-34 37z"/>
<path d="M2720 5856 c0 -2 7 -6 15 -10 8 -3 15 -1 15 4 0 6 -7 10 -15 10 -8 0
-15 -2 -15 -4z"/>
<path d="M533 5729 l-53 -31 28 -34 c18 -23 32 -32 44 -28 26 8 42 -5 27 -22
-9 -11 -5 -20 20 -46 21 -22 34 -29 41 -22 17 17 23 77 11 121 -11 39 -45 94
-59 92 -4 0 -31 -14 -59 -30z m87 -79 c0 -5 -4 -10 -10 -10 -5 0 -10 5 -10 10
0 6 5 10 10 10 6 0 10 -4 10 -10z"/>
<path d="M865 5616 c-9 -13 -20 -52 -26 -87 -7 -35 -18 -72 -27 -81 -33 -38 7
-15 48 28 25 25 57 52 71 59 18 10 27 22 27 39 0 14 -4 23 -9 20 -5 -3 -9 1
-9 9 0 7 -11 19 -25 25 -34 15 -32 16 -50 -12z"/>
<path d="M1804 5544 c3 -9 6 -21 6 -27 0 -7 5 -4 11 6 11 18 5 37 -13 37 -5 0
-7 -7 -4 -16z"/>
<path d="M677 5533 c-4 -3 -7 -13 -7 -22 1 -13 3 -13 11 2 11 19 8 33 -4 20z"/>
<path d="M1750 5530 c0 -5 5 -10 11 -10 5 0 7 5 4 10 -3 6 -8 10 -11 10 -2 0
-4 -4 -4 -10z"/>
<path d="M1995 5530 c27 -12 35 -12 35 0 0 6 -12 10 -27 9 -25 0 -26 -1 -8 -9z"/>
<path d="M4776 5467 c-13 -9 -46 -12 -109 -10 -65 2 -101 -1 -123 -12 -24 -11
-38 -12 -66 -3 -20 6 -44 7 -55 3 -10 -5 -22 -7 -27 -6 -20 5 -116 4 -121 0
-5 -6 371 -381 466 -466 58 -52 59 -53 199 -68 l55 -7 59 89 c33 48 72 106 88
128 15 22 40 64 55 93 14 29 41 70 59 91 36 41 35 51 -4 51 -15 0 -26 -7 -29
-20 -7 -26 -35 -26 -58 0 -10 11 -23 19 -29 17 -6 -3 -18 -1 -27 4 -9 5 -27 2
-44 -7 -24 -12 -32 -12 -55 0 -24 11 -31 11 -52 -2 -14 -8 -33 -12 -42 -9 -21
8 -46 66 -46 108 0 33 -21 37 -26 5 -4 -30 -12 -29 -19 3 -7 34 -21 38 -49 18z"/>
<path d="M1120 5371 c0 -5 5 -13 10 -16 6 -3 10 -2 10 4 0 5 -4 13 -10 16 -5
3 -10 2 -10 -4z"/>
<path d="M1340 5339 c7 -12 17 -18 27 -15 8 3 19 6 24 6 5 0 9 7 9 15 0 11
-11 15 -35 15 -33 0 -35 -2 -25 -21z"/>
<path d="M1220 5314 c0 -8 5 -12 10 -9 6 4 8 11 5 16 -9 14 -15 11 -15 -7z"/>
<path d="M1130 5281 c0 -12 5 -21 10 -21 6 0 10 6 10 14 0 8 -4 18 -10 21 -5
3 -10 -3 -10 -14z"/>
<path d="M1171 5284 c0 -11 3 -14 6 -6 3 7 2 16 -1 19 -3 4 -6 -2 -5 -13z"/>
<path d="M7256 5260 c-28 -14 -42 -17 -47 -9 -5 8 -8 8 -13 0 -4 -6 -3 -11 2
-11 12 0 5 -94 -7 -98 -6 -2 -11 -9 -11 -16 0 -7 -20 -26 -45 -44 -25 -17 -45
-39 -45 -47 0 -9 -5 -13 -11 -10 -6 4 -8 14 -5 22 5 12 0 13 -27 8 -17 -4 -47
-13 -64 -21 -28 -11 -33 -11 -33 2 0 7 -8 14 -18 14 -21 0 -52 -30 -52 -50 0
-21 -38 -95 -58 -112 -9 -9 -34 -18 -54 -22 -34 -6 -38 -5 -38 13 0 11 5 23
10 26 17 11 11 50 -10 62 -15 10 -21 10 -27 -1 -4 -7 -21 -17 -37 -23 -24 -8
-33 -5 -52 14 -21 21 -32 23 -102 21 -66 -1 -82 1 -107 20 -17 12 -39 23 -50
25 -11 2 -27 7 -35 10 -39 14 -65 15 -80 3 -8 -8 -29 -17 -47 -21 -25 -5 -36
-2 -53 15 -17 17 -28 20 -48 14 -15 -4 -30 -7 -34 -6 -5 1 -8 -2 -8 -7 0 -15
-32 -22 -45 -11 -8 6 -42 16 -77 21 -59 9 -68 8 -108 -13 -44 -23 -79 -74 -83
-118 -1 -22 -6 -27 -72 -83 -46 -39 -124 -76 -174 -83 -61 -8 -131 -64 -177
-143 -10 -16 -32 -35 -48 -42 -91 -34 -143 -73 -210 -161 -15 -20 -44 -43 -64
-51 -20 -8 -64 -39 -98 -69 -105 -94 -117 -100 -197 -102 -58 -2 -133 -18
-156 -33 -11 -7 36 -73 54 -75 11 -2 20 -7 20 -13 0 -19 17 -38 24 -27 4 7 39
8 106 2 111 -10 174 -4 182 16 6 16 33 19 33 4 0 -13 21 -13 40 0 13 8 13 11
1 19 -11 7 -10 11 7 20 11 6 33 11 47 11 21 0 26 -4 21 -16 -3 -9 -6 -22 -6
-29 0 -8 -15 -17 -35 -21 -19 -3 -36 -9 -36 -13 -9 -41 -3 -56 21 -58 52 -3
110 -21 110 -34 0 -5 8 -9 18 -9 10 0 33 -13 52 -30 42 -35 52 -37 48 -7 -2
16 -9 22 -26 21 -18 0 -22 4 -20 20 2 15 9 20 26 19 16 -2 22 2 22 17 0 25 17
26 23 3 3 -12 5 -9 6 8 1 30 -54 113 -69 104 -6 -3 -10 0 -11 7 0 7 -2 30 -4
51 -4 36 -3 38 43 59 102 46 118 54 154 76 21 12 43 22 50 22 13 0 106 -88
492 -469 148 -146 287 -289 308 -318 77 -101 99 -221 58 -312 -27 -58 -143
-171 -178 -172 -15 -1 -49 -2 -76 -3 l-48 -1 -2 -75 c-1 -41 -5 -81 -9 -88 -5
-7 -25 -20 -46 -28 -20 -8 -45 -28 -54 -44 -10 -16 -39 -44 -65 -62 -26 -18
-58 -42 -71 -54 -13 -12 -29 -20 -35 -18 -10 4 -305 -243 -492 -412 -45 -41
-115 -102 -156 -136 -70 -60 -171 -146 -350 -301 -43 -38 -84 -70 -91 -71 -7
-1 -36 -10 -66 -20 -107 -36 -261 -9 -375 67 -28 19 -272 257 -541 531 -270
273 -506 507 -527 521 -42 28 -141 130 -253 260 -114 131 -396 412 -424 420
-22 7 -23 5 -17 -27 3 -18 10 -105 16 -193 11 -190 19 -221 75 -301 43 -60
117 -134 134 -134 14 0 48 46 77 106 15 30 30 57 35 59 4 3 31 -21 61 -52 29
-32 108 -114 175 -183 68 -69 123 -130 123 -134 0 -5 -20 -33 -45 -62 -25 -29
-42 -58 -39 -66 3 -7 37 -39 75 -71 98 -83 307 -344 360 -449 45 -91 65 -118
86 -118 7 0 49 34 92 75 80 77 105 89 116 56 3 -10 17 -22 31 -25 15 -4 95
-76 189 -172 l164 -166 -31 -16 c-17 -9 -76 -44 -132 -77 -55 -34 -140 -82
-188 -108 -47 -26 -88 -53 -91 -60 -5 -15 0 -57 19 -157 8 -41 17 -168 19
-282 5 -199 5 -208 -15 -228 -12 -12 -15 -20 -7 -20 17 0 14 -49 -4 -61 -8 -5
-25 -9 -38 -9 -19 0 -22 4 -17 24 5 19 1 25 -19 28 -13 3 -26 0 -29 -6 -3 -7
-5 -7 -5 2 -1 6 -10 12 -21 12 -11 0 -20 5 -20 11 0 8 -4 8 -15 -1 -8 -6 -19
-9 -25 -5 -14 9 -68 -13 -95 -38 -12 -11 -28 -16 -42 -12 -12 3 -25 0 -29 -6
-4 -7 -9 -7 -13 -2 -11 16 -84 62 -92 58 -4 -3 -9 1 -12 9 -8 20 -45 26 -61
11 -7 -8 -16 -12 -19 -9 -3 3 -22 -2 -42 -10 -21 -9 -48 -16 -61 -16 -17 0
-22 -4 -17 -16 4 -10 1 -15 -8 -14 -24 3 -59 -12 -59 -25 0 -8 -10 -12 -24
-11 -14 2 -30 0 -36 -4 -6 -4 -48 0 -93 10 -91 18 -140 18 -162 0 -8 -7 -15
-9 -15 -4 0 4 -10 -2 -22 -13 -13 -11 -33 -24 -45 -27 -12 -4 -23 -17 -25 -29
-2 -12 -9 -21 -16 -19 -6 1 -12 -7 -12 -18 0 -11 -7 -20 -15 -20 -8 0 -15 -4
-15 -9 0 -5 -9 -13 -20 -16 -13 -4 -20 -15 -20 -31 0 -13 -5 -24 -11 -24 -5 0
-8 -4 -5 -8 4 -7 -35 -49 -41 -44 -8 6 -23 1 -19 -7 4 -5 2 -21 -4 -36 -7 -19
-7 -31 1 -41 6 -7 12 -25 14 -39 1 -14 12 -35 23 -46 12 -10 19 -26 16 -34 -4
-9 0 -15 7 -15 9 -1 6 -8 -8 -19 -18 -15 -21 -25 -16 -54 5 -33 4 -35 -16 -30
-13 3 -21 1 -21 -6 0 -7 -5 -9 -10 -6 -6 3 -10 2 -10 -4 0 -6 10 -13 23 -16
12 -3 465 -4 1007 -3 l984 3 49 60 c49 61 107 163 107 189 0 18 94 132 116
140 9 4 23 1 31 -5 11 -9 19 -7 36 10 31 28 87 29 94 1 3 -11 8 -18 12 -15 4
2 20 -10 35 -26 l29 -30 -23 -24 c-13 -13 -27 -22 -32 -19 -13 8 -68 -6 -68
-17 0 -10 -171 -179 -181 -179 -4 0 -23 -20 -43 -45 l-37 -45 589 0 589 0 11
26 12 25 33 -18 c17 -10 34 -20 37 -24 3 -3 95 -6 205 -8 193 -3 199 -2 184
16 -9 10 -42 63 -74 118 -31 55 -61 105 -66 110 -14 18 -28 95 -18 101 6 3 6
15 2 27 -4 12 -7 40 -8 63 0 36 2 40 20 36 23 -6 45 -26 45 -41 0 -5 5 -13 10
-16 15 -9 12 32 -3 47 -20 20 -39 59 -33 66 4 3 13 -3 21 -14 17 -23 19 -15 4
23 -15 39 -38 194 -31 212 4 12 7 11 13 -5 4 -10 8 27 8 84 1 73 -2 101 -10
96 -8 -4 -10 9 -8 42 4 77 0 116 -11 109 -5 -3 -10 -22 -10 -41 0 -19 -4 -34
-10 -34 -14 0 -13 77 2 82 6 2 9 11 6 19 -4 10 -9 6 -18 -14 -15 -30 -38 -29
-74 2 -40 35 -62 120 -35 136 21 14 1 92 -42 165 -59 98 -137 152 -239 163
-47 6 -61 3 -99 -18 -24 -14 -46 -24 -48 -21 -3 2 3 18 11 35 9 16 16 43 16
59 0 16 9 58 20 92 11 34 20 80 20 102 0 51 -33 114 -69 132 -26 14 -32 13
-77 -9 -64 -31 -193 -65 -246 -65 -29 0 -66 -12 -114 -35 -82 -40 -146 -50
-152 -23 -4 23 84 117 153 162 28 19 63 51 76 71 26 39 333 299 451 381 40 29
103 79 140 113 36 33 70 61 76 61 5 0 58 -49 118 -108 60 -60 123 -118 139
-129 41 -28 137 -47 203 -39 35 4 59 2 68 -5 8 -6 44 -13 81 -16 93 -6 100 -9
79 -32 -9 -10 -14 -25 -11 -33 4 -11 -10 -28 -45 -53 -28 -20 -57 -50 -66 -66
-8 -16 -20 -29 -28 -29 -7 0 -31 -13 -54 -29 -32 -24 -41 -27 -46 -15 -10 25
-81 -20 -126 -80 -28 -37 -46 -53 -58 -49 -12 3 -21 -5 -28 -25 -6 -17 -24
-38 -40 -48 -16 -9 -40 -28 -54 -40 -43 -40 -103 -88 -163 -133 l-58 -42 117
-122 c65 -67 123 -123 129 -125 11 -3 85 63 85 75 0 4 27 34 60 69 33 34 60
68 60 76 0 7 19 34 43 59 23 26 49 61 59 77 9 17 34 42 55 55 42 26 63 48 118
117 40 52 41 53 77 84 15 14 30 37 34 53 4 15 18 41 31 57 16 20 23 37 19 51
-4 14 0 28 9 35 19 16 19 25 -2 46 -13 13 -14 19 -5 22 20 6 14 22 -10 23 -14
1 -8 5 16 10 38 9 181 -2 194 -15 3 -4 -4 -24 -16 -45 -12 -21 -22 -51 -22
-65 0 -33 -34 -100 -66 -133 -13 -13 -43 -49 -66 -80 -66 -91 -165 -213 -231
-286 -33 -37 -67 -77 -75 -90 -8 -12 -20 -26 -27 -32 -6 -5 -31 -36 -56 -69
-24 -32 -53 -70 -64 -85 -11 -15 -46 -53 -77 -86 -32 -33 -58 -67 -58 -77 0
-24 41 -128 51 -128 12 0 50 54 99 140 50 87 116 178 233 323 46 56 112 147
147 202 67 105 250 456 250 480 0 18 22 23 102 21 45 -1 73 -7 85 -18 10 -8
32 -22 48 -31 17 -8 41 -27 55 -42 29 -32 97 -65 155 -75 102 -19 289 -61 375
-85 305 -85 311 -87 450 -92 132 -5 171 -2 525 42 66 8 183 22 260 30 77 9
176 21 219 26 44 5 111 9 150 9 39 0 128 5 199 12 l127 12 0 1173 c0 1005 -2
1173 -14 1173 -8 0 -16 5 -18 11 -3 8 -14 8 -41 1 -29 -8 -37 -8 -37 3 0 7 -7
16 -16 19 -10 4 -19 -4 -28 -24 -7 -17 -15 -27 -19 -24 -12 12 -37 -18 -37
-43 0 -13 -5 -33 -10 -43 -9 -16 -15 -17 -40 -8 -17 5 -30 13 -30 18 0 8 -38
23 -52 21 -5 -1 -8 3 -8 7 0 24 -37 48 -74 47 -31 0 -40 4 -47 22 -8 21 -10
21 -36 8 -38 -20 -60 -19 -73 5 -14 26 -75 51 -120 50 -19 0 -42 -1 -50 -1
-34 0 -97 19 -130 39 -19 12 -43 22 -53 22 -14 0 -17 5 -12 21 6 18 5 19 -14
10 -17 -9 -22 -8 -31 8 -5 11 -27 25 -47 30 -36 10 -59 7 -148 -19 -16 -5 -56
-8 -88 -7 -63 3 -79 15 -75 55 2 19 -6 29 -40 48 -23 13 -51 24 -62 24 -11 0
-20 5 -20 10 0 7 -18 8 -50 4 -35 -5 -50 -3 -50 5 0 10 -55 11 -88 2 -1 -1 2
-10 8 -21 6 -11 16 -18 21 -14 7 4 7 -2 0 -15 -7 -12 -9 -26 -6 -31 3 -6 1
-10 -4 -10 -17 0 -13 -40 5 -47 9 -3 24 -1 33 6 9 6 34 20 56 31 32 15 41 16
47 6 14 -24 -6 -108 -25 -108 -25 0 -46 -13 -50 -31 -22 -90 -29 -112 -36
-117 -4 -3 -20 -27 -35 -55 -16 -27 -30 -52 -32 -53 -7 -9 -44 11 -44 24 0 9
5 12 13 8 9 -5 9 -4 0 6 -11 12 -50 7 -131 -18 -18 -6 -30 -7 -27 -2 6 9 -23
22 -35 15 -4 -2 -13 -18 -20 -35 -15 -37 -53 -49 -79 -26 -10 9 -25 16 -32 14
-7 -2 -15 7 -17 18 -2 16 -8 20 -23 17 -10 -3 -19 -11 -19 -18 0 -6 -9 -22
-19 -34 -18 -21 -20 -21 -25 -3 -4 10 -17 25 -31 32 -30 16 -88 2 -172 -42
-58 -30 -129 -41 -141 -22 -4 6 -20 14 -37 18 -43 11 -58 25 -44 42 17 21 -5
42 -47 46 l-35 3 -4 62 c-5 73 2 83 81 118 58 26 89 63 79 95 -17 53 30 129
125 200 59 45 91 63 129 75 22 7 23 5 16 -27 -17 -83 -90 -188 -131 -188 -7 0
-16 -11 -20 -25 -3 -14 -16 -32 -27 -40 -38 -26 -9 -27 55 -2 112 45 176 76
183 87 4 6 14 9 23 6 10 -3 40 9 69 27 171 106 374 247 355 247 -6 0 -14 -1
-15 -2 -2 -2 -10 2 -18 9 -9 7 -46 11 -100 10 -92 -2 -89 -5 -62 49 7 14 8 26
1 38 -7 12 -7 26 1 43 26 57 1 84 -82 85 -29 0 -37 4 -35 17 4 24 -11 41 -36
41 -13 0 -31 9 -41 20 -19 21 -74 40 -115 40 -14 -1 -43 -10 -64 -20z m-181
-280 c-3 -6 -13 -10 -21 -10 -17 0 -19 37 -1 43 14 5 31 -19 22 -33z m-45
-199 c-20 -41 -40 -54 -40 -27 0 8 5 18 10 21 6 3 10 13 10 22 0 18 33 46 38
33 2 -5 -6 -27 -18 -49z m-261 -297 c24 -20 31 -34 31 -62 0 -21 -5 -44 -10
-52 -8 -13 -11 -12 -25 5 -15 20 -65 119 -65 129 0 15 42 3 69 -20z m1277
-129 c5 -44 -43 -126 -84 -145 -20 -9 -35 -25 -38 -40 -9 -34 -133 -160 -151
-153 -8 3 -12 12 -9 19 3 7 1 16 -5 20 -7 4 -6 10 1 19 6 7 10 17 9 21 -4 21
2 34 16 34 8 0 25 21 38 48 15 31 31 48 45 50 29 4 85 61 78 78 -3 8 -9 21
-12 29 -3 8 -1 15 5 15 7 0 22 9 34 20 32 31 69 23 73 -15z m-746 -180 c0 -8
-3 -15 -7 -15 -5 0 -18 -3 -30 -6 -19 -5 -23 -2 -23 15 0 17 6 21 30 21 20 0
30 -5 30 -15z m108 -31 c-10 -10 -28 6 -28 24 0 15 1 15 17 -1 9 -9 14 -19 11
-23z m-2283 -24 c3 -5 1 -10 -4 -10 -6 0 -11 5 -11 10 0 6 2 10 4 10 3 0 8 -4
11 -10z m2535 -24 c0 -7 -9 -16 -20 -19 -25 -6 -26 1 -2 19 22 17 22 17 22 0z
m-160 -5 c0 -6 15 -7 34 -4 28 4 36 1 45 -16 9 -16 9 -21 -1 -22 -7 0 -51 -2
-97 -5 l-84 -4 19 21 c28 31 84 51 84 30z m-2340 -131 c0 -5 -4 -10 -10 -10
-5 0 -10 5 -10 10 0 6 5 10 10 10 6 0 10 -4 10 -10z m-340 -2860 c0 -5 -21
-26 -46 -47 -26 -21 -54 -47 -63 -57 -9 -11 -28 -31 -42 -45 -15 -14 -33 -39
-42 -56 -29 -58 -63 -85 -105 -85 -51 0 -58 -9 -25 -33 20 -13 23 -17 8 -13
-11 3 -59 10 -106 16 -78 10 -90 10 -120 -7 l-34 -18 58 -3 c65 -3 75 -16 20
-26 -58 -9 -68 -8 -91 14 l-22 21 -9 -23 c-9 -23 -30 -210 -24 -217 1 -2 26
20 55 48 67 67 100 84 164 84 37 0 59 -6 82 -23 48 -35 47 -47 -5 -107 -27
-29 -70 -82 -98 -117 -27 -35 -69 -86 -92 -113 -44 -52 -53 -73 -31 -73 7 0
-19 -31 -57 -70 -77 -77 -101 -85 -140 -46 -34 34 -75 120 -75 158 0 20 -13
54 -35 88 -51 80 -58 99 -63 166 l-4 61 37 17 c55 27 203 134 239 175 11 11
24 21 30 21 6 0 38 18 71 40 33 22 64 40 68 40 4 0 35 18 68 41 81 54 318 181
332 176 6 -2 27 2 46 9 44 16 51 17 51 4z m458 -146 c-20 -19 -50 -54 -65 -78
-15 -23 -32 -43 -38 -44 -33 -7 -53 -17 -72 -35 -13 -12 -23 -15 -23 -8 0 6 7
14 15 17 8 4 15 12 15 19 0 7 17 28 37 47 20 18 62 56 92 85 36 33 59 48 66
42 6 -6 -4 -22 -27 -45z m150 24 c7 -7 12 -37 12 -68 0 -46 -6 -65 -31 -103
-34 -52 -48 -59 -50 -24 -1 16 -2 18 -6 5 -5 -20 -44 -34 -68 -24 -8 3 -20 -3
-27 -12 -24 -32 -88 -76 -98 -66 -18 18 8 75 54 120 25 24 53 55 62 69 9 14
21 25 26 25 5 0 28 20 51 45 44 47 56 52 75 33z m465 -265 c3 -111 9 -158 31
-241 15 -57 25 -110 22 -117 -5 -13 -45 -10 -47 4 0 3 -2 15 -3 26 -2 11 -13
45 -26 75 -12 30 -28 75 -36 100 -17 58 -28 210 -14 210 5 0 10 11 10 25 0 14
7 28 15 31 8 4 12 10 9 15 -3 5 4 9 15 9 19 0 20 -8 24 -137z m-923 68 c0 -5
-9 -19 -20 -32 -21 -26 -27 -11 -10 22 11 19 30 26 30 10z m100 -10 c0 -5 -7
-11 -15 -15 -9 -3 -15 0 -15 9 0 8 7 15 15 15 8 0 15 -4 15 -9z m-550 -51 c0
-5 -6 -10 -14 -10 -8 0 -18 5 -21 10 -3 6 3 10 14 10 12 0 21 -4 21 -10z m554
-212 c121 -91 122 -92 108 -144 -11 -40 -10 -47 8 -66 23 -25 25 -34 9 -43
-11 -7 -49 22 -49 37 0 14 -98 177 -131 219 -53 67 -37 66 55 -3z m796 -80 c0
-15 -20 -8 -30 11 -17 33 -11 47 10 21 11 -14 20 -28 20 -32z m150 -243 c11
-22 34 -62 50 -90 16 -27 30 -54 30 -59 0 -12 -32 31 -63 84 -47 81 -54 95
-62 120 -7 24 -7 24 9 5 9 -11 25 -38 36 -60z"/>
<path d="M2036 5254 c-8 -22 -4 -25 11 -9 7 8 9 16 4 19 -5 3 -12 -1 -15 -10z"/>
<path d="M1512 5239 c2 -6 8 -10 13 -10 5 0 11 4 13 10 2 6 -4 11 -13 11 -9 0
-15 -5 -13 -11z"/>
<path d="M1563 5243 c9 -2 23 -2 30 0 6 3 -1 5 -18 5 -16 0 -22 -2 -12 -5z"/>
<path d="M2016 5212 c-3 -6 3 -12 15 -15 12 -3 19 -1 16 6 -5 15 -24 20 -31 9z"/>
<path d="M1094 5192 c-7 -24 -13 -24 -59 -7 -16 6 -18 5 -8 -5 6 -7 9 -19 6
-26 -3 -9 2 -14 15 -14 11 0 22 -5 24 -11 5 -16 78 -2 78 14 0 7 -11 26 -25
42 l-25 30 -6 -23z"/>
<path d="M2005 5174 c4 -11 10 -27 12 -36 8 -29 19 -21 18 14 0 24 -5 34 -19
36 -15 3 -17 0 -11 -14z"/>
<path d="M2066 5173 c-6 -14 -5 -15 5 -6 7 7 10 15 7 18 -3 3 -9 -2 -12 -12z"/>
<path d="M1175 5143 c0 -22 -6 -28 -34 -35 -19 -5 -30 -13 -25 -16 6 -4 13
-14 16 -23 9 -24 86 -34 108 -14 15 14 30 11 30 -6 0 -4 -21 -17 -46 -29 -32
-16 -42 -26 -35 -33 16 -16 51 -19 51 -4 0 8 3 8 9 -2 5 -8 16 -11 27 -7 16 6
16 7 0 19 -11 8 -15 19 -10 30 9 24 23 21 33 -5 22 -59 23 -68 7 -68 -23 0
-20 -21 3 -27 11 -3 22 -12 25 -20 10 -26 26 -3 26 39 0 31 -6 45 -26 61 l-27
21 22 17 c11 9 21 22 21 27 0 5 7 13 16 16 9 4 14 10 10 14 -11 10 -80 9 -87
-2 -9 -12 -51 13 -46 28 3 6 -2 21 -10 31 -11 17 -15 18 -23 6 -6 -11 -12 -12
-22 -3 -11 9 -14 6 -13 -15z m160 -63 c3 -5 -1 -10 -10 -10 -9 0 -13 5 -10 10
3 6 8 10 10 10 2 0 7 -4 10 -10z"/>
<path d="M1615 5160 c3 -5 11 -10 16 -10 6 0 7 5 4 10 -3 6 -11 10 -16 10 -6
0 -7 -4 -4 -10z"/>
<path d="M650 5154 c0 -13 243 -254 258 -254 6 0 22 -12 36 -26 17 -19 29 -25
43 -19 17 6 16 8 -4 16 -12 4 -31 26 -43 49 -23 45 -27 47 -46 23 -13 -16 -24
-7 -129 102 -63 66 -114 115 -115 109z"/>
<path d="M1563 5125 c0 -22 2 -30 4 -17 2 12 2 30 0 40 -3 9 -5 -1 -4 -23z"/>
<path d="M1699 5073 c-5 -36 -3 -90 5 -100 11 -16 66 -17 66 -2 0 6 -7 9 -15
5 -18 -7 -41 29 -24 40 6 3 16 1 22 -5 16 -16 37 -14 37 4 0 9 -17 20 -45 27
-34 9 -42 15 -33 25 7 9 7 13 -1 13 -6 0 -12 -3 -12 -7z"/>
<path d="M6960 5070 c0 -5 7 -10 15 -10 8 0 15 5 15 10 0 6 -7 10 -15 10 -8 0
-15 -4 -15 -10z"/>
<path d="M1650 5041 c0 -5 -9 -7 -20 -4 -36 10 -72 -47 -37 -60 24 -9 65 21
65 48 0 14 -2 25 -4 25 -2 0 -4 -4 -4 -9z"/>
<path d="M1237 4938 c19 -21 31 -24 14 -4 -9 11 -9 15 1 19 7 3 3 4 -9 4 -21
-1 -21 -2 -6 -19z"/>
<path d="M1617 4940 c7 -29 22 -50 34 -50 15 0 10 13 -16 45 -23 28 -24 29
-18 5z"/>
<path d="M1395 4942 c-12 -12 -4 -53 15 -72 25 -25 90 -28 90 -4 0 11 -5 14
-16 10 -21 -8 -34 1 -27 20 4 11 9 12 18 4 11 -9 12 -7 8 8 -5 19 -75 47 -88
34z"/>
<path d="M4388 4863 c7 -3 16 -2 19 1 4 3 -2 6 -13 5 -11 0 -14 -3 -6 -6z"/>
<path d="M4485 4813 c-16 -2 -39 -8 -50 -13 -18 -8 -93 -19 -157 -23 -14 -1
-25 -4 -23 -6 2 -2 -26 -18 -63 -36 -67 -32 -172 -125 -172 -152 0 -7 2 -13 4
-13 3 0 35 28 87 76 24 22 78 8 85 -22 7 -26 32 -31 65 -14 43 23 1 61 -50 45
-12 -4 -21 -2 -21 4 0 6 5 11 10 11 6 0 10 5 10 10 0 7 -7 7 -21 0 -18 -10
-40 -7 -28 4 27 24 97 57 131 62 24 4 51 14 61 22 14 13 21 13 41 3 19 -11 32
-10 72 4 33 11 63 14 92 10 27 -4 42 -2 42 4 0 6 -12 11 -26 11 -14 0 -33 4
-42 8 -9 4 -30 6 -47 5z"/>
<path d="M4621 4787 c-7 -9 4 -13 41 -14 58 -3 59 1 6 15 -27 7 -40 7 -47 -1z"/>
<path d="M4760 4756 c0 -2 7 -7 16 -10 8 -3 12 -2 9 4 -6 10 -25 14 -25 6z"/>
<path d="M1065 4724 c12 -23 12 -32 -1 -64 -19 -47 -28 -162 -23 -282 2 -57
-13 -122 -33 -136 -10 -7 -18 -19 -18 -27 0 -8 -16 -26 -35 -41 -19 -14 -35
-30 -35 -33 0 -4 22 -18 50 -31 27 -13 61 -35 75 -50 24 -25 26 -34 25 -116 0
-49 1 -134 2 -189 1 -55 0 -136 -3 -180 -3 -45 -1 -87 5 -96 6 -12 5 -34 -6
-70 -8 -30 -15 -81 -14 -113 l1 -59 70 -29 c39 -15 80 -39 91 -52 19 -22 20
-29 11 -65 -9 -34 -8 -43 7 -60 15 -16 17 -31 13 -68 -4 -37 -1 -56 16 -85 11
-21 24 -38 29 -38 4 0 8 -11 8 -25 0 -27 -45 -62 -128 -99 -37 -17 -62 -49
-49 -63 3 -3 72 -8 154 -13 177 -9 172 -11 208 102 27 86 32 184 14 253 -6 22
-15 78 -19 125 -8 96 -31 200 -42 200 -14 0 -48 64 -48 90 0 44 -27 132 -68
220 -21 47 -44 112 -51 145 -7 33 -28 105 -46 160 -18 55 -33 110 -33 122 0
11 -10 51 -21 88 -43 140 -17 244 85 333 29 26 54 50 54 54 0 4 -10 23 -22 43
-17 31 -23 34 -30 21 -5 -9 -13 -16 -18 -16 -4 0 -37 30 -72 66 -35 36 -75 75
-90 85 l-27 20 14 -27z"/>
<path d="M4660 4725 c-28 -30 -26 -76 4 -102 26 -23 36 -20 36 8 0 12 6 16 20
12 27 -7 36 -23 19 -34 -11 -7 -9 -9 7 -9 28 0 58 32 43 47 -13 13 5 27 36 27
24 1 33 18 14 27 -8 3 -25 12 -39 19 -14 8 -46 17 -72 20 -41 5 -51 3 -68 -15z
m100 -55 c0 -5 -5 -10 -11 -10 -5 0 -7 5 -4 10 3 6 8 10 11 10 2 0 4 -4 4 -10z"/>
<path d="M4348 4674 c-10 -3 -18 -10 -18 -15 0 -9 1 -10 65 -13 22 -1 53 -11
69 -21 21 -14 28 -15 24 -5 -12 36 -93 67 -140 54z"/>
<path d="M4570 4651 c0 -22 25 -39 38 -27 8 8 -10 38 -26 44 -7 2 -12 -6 -12
-17z"/>
<path d="M7524 4644 c-7 -3 -9 -14 -7 -25 5 -17 11 -20 34 -15 19 3 29 1 33
-10 3 -8 10 -13 15 -9 13 8 2 35 -14 35 -7 0 -18 7 -25 15 -13 16 -17 17 -36
9z"/>
<path d="M4298 4590 c2 -18 12 -32 23 -35 11 -4 31 -24 46 -46 28 -42 38 -47
47 -24 4 11 11 13 30 5 26 -9 43 1 31 19 -3 5 -1 12 5 16 12 8 12 16 0 35 -9
13 -11 13 -19 1 -14 -21 -44 6 -38 34 3 18 -1 21 -21 19 -28 -3 -33 -6 -36
-31 -3 -20 -27 -25 -33 -5 -3 6 0 12 7 12 6 0 8 5 5 10 -4 6 -10 8 -15 5 -5
-3 -11 -1 -15 5 -12 20 -21 9 -17 -20z"/>
<path d="M7621 4593 c-14 -32 -14 -33 8 -33 20 0 71 36 71 50 0 4 -15 8 -34 7
-26 -1 -37 -7 -45 -24z"/>
<path d="M4140 4570 c0 -7 24 -20 36 -20 13 0 1 19 -16 23 -11 3 -20 2 -20 -3z"/>
<path d="M7068 4573 c7 -3 16 -2 19 1 4 3 -2 6 -13 5 -11 0 -14 -3 -6 -6z"/>
<path d="M7669 4556 c-1 -6 -1 -17 1 -25 1 -7 -9 -24 -21 -37 -13 -14 -25 -36
-26 -50 -4 -23 -1 -25 19 -19 60 19 148 75 148 95 0 19 -119 55 -121 36z m21
-66 c0 -5 -2 -10 -4 -10 -3 0 -8 5 -11 10 -3 6 -1 10 4 10 6 0 11 -4 11 -10z"/>
<path d="M4033 4548 c-40 -20 -42 -68 -3 -68 24 0 36 -18 22 -32 -8 -8 -16 -7
-27 2 -14 11 -19 7 -16 -12 0 -4 -6 -5 -14 -2 -10 4 -15 0 -15 -14 0 -11 -3
-29 -6 -39 -5 -15 -3 -14 13 4 21 25 39 30 71 19 17 -6 27 -2 41 15 13 16 23
20 37 15 18 -7 18 -8 2 -17 -21 -12 -24 -29 -4 -29 27 0 66 41 66 68 -1 22 -2
24 -10 10 -6 -9 -18 -15 -27 -13 -63 13 -73 17 -67 26 3 6 17 8 30 5 20 -5 26
-1 35 20 5 15 6 31 1 36 -14 14 -105 19 -129 6z"/>
<path d="M4598 4503 c6 -2 18 -2 25 0 6 3 1 5 -13 5 -14 0 -19 -2 -12 -5z"/>
<path d="M4250 4496 c0 -2 9 -6 20 -9 11 -3 20 -1 20 4 0 5 -9 9 -20 9 -11 0
-20 -2 -20 -4z"/>
<path d="M4510 4486 c9 -12 7 -17 -9 -28 -23 -14 -29 -48 -8 -48 6 0 19 4 27
10 8 5 17 5 20 1 3 -5 15 -11 27 -15 16 -5 26 0 43 24 l21 30 -26 10 c-14 5
-40 10 -56 10 -16 0 -29 5 -29 10 0 6 -5 10 -11 10 -8 0 -8 -4 1 -14z"/>
<path d="M4325 4480 c-3 -5 1 -10 10 -10 9 0 13 5 10 10 -3 6 -8 10 -10 10 -2
0 -7 -4 -10 -10z"/>
<path d="M7425 4430 c-4 -6 -1 -17 5 -25 7 -8 9 -15 5 -15 -4 0 -2 -7 6 -16 8
-10 21 -13 36 -9 13 3 23 1 23 -6 0 -13 25 -39 39 -39 6 0 16 10 22 23 7 12
17 25 23 29 6 5 1 8 -11 8 -13 0 -23 6 -23 13 -1 14 -68 47 -98 47 -11 0 -24
-5 -27 -10z"/>
<path d="M4515 4400 c-3 -5 -15 -10 -26 -10 -25 0 -24 -8 5 -44 16 -19 30 -27
40 -23 18 7 22 27 6 27 -5 0 -10 4 -10 10 0 5 7 7 15 4 10 -4 15 0 15 14 0 11
-7 23 -16 26 -21 8 -22 8 -29 -4z"/>
<path d="M3905 4380 c3 -5 10 -10 16 -10 5 0 9 5 9 10 0 6 -7 10 -16 10 -8 0
-12 -4 -9 -10z"/>
<path d="M3950 4341 c-7 -14 -6 -21 3 -25 8 -3 7 -8 -5 -16 -11 -7 -18 -23
-18 -42 0 -39 39 -110 58 -103 7 2 23 -1 35 -9 19 -11 41 -13 93 -7 18 2 26
68 14 107 -13 38 -69 74 -114 74 -16 0 -27 7 -31 20 -8 25 -21 26 -35 1z m74
-56 c37 -16 41 -22 28 -42 -13 -21 -47 -9 -46 16 1 18 -3 22 -17 18 -19 -5
-25 4 -12 16 8 9 5 9 47 -8z m16 -77 c0 -7 -11 -14 -24 -14 -17 -1 -23 2 -19
12 6 17 43 19 43 2z"/>
<path d="M4290 4300 c0 -5 5 -10 11 -10 5 0 7 5 4 10 -3 6 -8 10 -11 10 -2 0
-4 -4 -4 -10z"/>
<path d="M3835 4290 c3 -5 8 -10 11 -10 2 0 4 5 4 10 0 6 -5 10 -11 10 -5 0
-7 -4 -4 -10z"/>
<path d="M4364 4276 c-8 -22 14 -56 36 -56 16 0 40 26 40 43 0 4 -57 27 -67
27 -2 0 -6 -6 -9 -14z"/>
<path d="M4180 4249 c0 -21 26 -43 40 -34 5 3 10 17 10 30 0 20 -5 24 -25 23
-16 -2 -25 -8 -25 -19z"/>
<path d="M3851 4194 c0 -11 3 -14 6 -6 3 7 2 16 -1 19 -3 4 -6 -2 -5 -13z"/>
<path d="M4450 4196 c0 -15 24 -28 34 -19 7 7 -13 33 -25 33 -5 0 -9 -6 -9
-14z"/>
<path d="M4280 4180 c0 -5 5 -10 10 -10 6 0 10 5 10 10 0 6 -4 10 -10 10 -5 0
-10 -4 -10 -10z"/>
<path d="M4381 4171 c-12 -22 -5 -27 19 -11 11 7 12 12 3 21 -8 8 -14 6 -22
-10z"/>
<path d="M5286 4175 c-8 -21 1 -35 20 -35 10 0 14 8 12 22 -4 27 -23 34 -32
13z"/>
<path d="M4160 4101 c-10 -19 -9 -26 2 -37 11 -12 17 -12 32 -1 17 12 17 14
-2 37 l-19 24 -13 -23z"/>
<path d="M5315 4109 c-4 -6 -3 -15 3 -21 6 -6 11 -4 15 6 7 18 -9 31 -18 15z"/>
<path d="M4274 4082 c4 -11 2 -23 -4 -27 -7 -5 -5 -12 7 -21 16 -12 16 -13 1
-14 -9 0 -20 5 -23 10 -5 8 -11 7 -21 -1 -22 -18 1 -28 45 -22 44 7 50 11 31
23 -13 8 -12 10 3 10 26 0 21 16 -14 41 -31 22 -31 22 -25 1z"/>
<path d="M4395 4075 c-26 -25 -29 -38 -19 -95 5 -29 13 -38 46 -54 47 -22 125
-18 143 8 15 20 26 21 19 1 -4 -9 3 -18 18 -24 13 -5 30 -16 37 -24 11 -14 8
-21 -18 -46 -17 -17 -31 -38 -31 -46 0 -13 -8 -15 -43 -10 -40 6 -45 4 -63
-22 -29 -43 -44 -73 -36 -73 4 0 13 -12 20 -27 20 -45 57 -65 123 -69 43 -2
59 1 59 11 0 7 7 18 15 25 12 10 12 16 4 26 -24 29 -4 41 67 38 43 -1 75 3 88
11 18 11 26 11 52 0 31 -13 32 -14 21 -54 -9 -31 -14 -38 -24 -29 -8 6 -33 8
-60 5 -25 -3 -59 0 -76 5 -22 8 -31 8 -38 -3 -12 -19 22 -51 52 -50 13 1 54 1
91 1 37 -1 77 4 90 11 13 7 33 12 45 10 13 -1 33 5 45 13 12 9 30 16 40 16 10
0 20 10 24 25 3 14 10 23 14 20 16 -10 20 12 6 30 -13 18 -14 18 -25 -3 -6
-12 -21 -22 -31 -22 -11 0 -20 -7 -20 -15 0 -9 -10 -20 -22 -25 -14 -5 -17 -9
-8 -10 12 0 12 -2 1 -9 -13 -8 -65 11 -75 28 -3 4 24 20 60 36 35 15 62 30 59
33 -2 3 4 17 15 32 11 16 20 32 20 37 0 5 11 20 25 33 14 14 25 32 23 43 -5
30 -22 22 -42 -19 -10 -21 -22 -46 -26 -54 -4 -8 -15 -17 -26 -20 -10 -3 -19
-12 -19 -20 0 -8 -10 -16 -22 -18 -17 -3 -23 2 -23 16 0 65 -54 116 -135 126
-22 2 -42 5 -45 6 -8 3 -24 7 -37 8 -23 3 -14 42 12 54 14 6 25 15 25 20 0 11
-17 10 -25 -2 -3 -5 -13 -10 -22 -10 -11 0 -14 6 -10 22 6 20 5 20 -11 4 -13
-13 -14 -18 -4 -25 26 -16 2 -36 -47 -38 -46 -1 -48 -1 -48 28 0 29 12 40 19
18 2 -7 13 -9 26 -5 27 9 29 26 3 26 -10 0 -22 7 -25 16 -4 11 -10 13 -19 6
-6 -5 -22 -13 -34 -16 -20 -6 -23 -4 -23 19 0 47 -69 95 -137 95 -8 0 -25 -11
-38 -25z m5 -29 c0 -3 -4 -8 -10 -11 -5 -3 -10 -1 -10 4 0 6 5 11 10 11 6 0
10 -2 10 -4z m150 -86 c0 -5 -4 -10 -10 -10 -5 0 -10 5 -10 10 0 6 5 10 10 10
6 0 10 -4 10 -10z m-85 -20 c-3 -5 -13 -10 -21 -10 -8 0 -12 5 -9 10 3 6 13
10 21 10 8 0 12 -4 9 -10z m275 -70 c0 -5 -5 -10 -11 -10 -5 0 -7 5 -4 10 3 6
8 10 11 10 2 0 4 -4 4 -10z m-40 -16 c0 -11 -5 -14 -16 -10 -9 3 -18 6 -20 6
-3 0 -2 5 1 10 10 16 35 12 35 -6z m48 -27 c-11 -9 -14 -22 -11 -40 3 -16 1
-27 -6 -27 -5 0 -8 6 -5 14 3 7 -2 20 -10 29 -21 21 -20 25 7 30 39 8 42 7 25
-6z m-65 -77 c3 -11 1 -20 -4 -20 -5 0 -9 5 -9 10 0 6 -3 9 -7 9 -20 -3 -26 2
-13 11 22 14 27 12 33 -10z m-139 -39 c3 -5 -7 -11 -22 -14 -31 -6 -37 -3 -27
12 8 13 42 14 49 2z m526 -55 c0 -2 -7 -6 -15 -10 -8 -3 -15 -1 -15 4 0 6 7
10 15 10 8 0 15 -2 15 -4z"/>
<path d="M4240 4064 c0 -8 5 -12 10 -9 6 4 8 11 5 16 -9 14 -15 11 -15 -7z"/>
<path d="M4010 4051 c0 -5 5 -13 10 -16 6 -3 10 -2 10 4 0 5 -4 13 -10 16 -5
3 -10 2 -10 -4z"/>
<path d="M4875 4000 c3 -5 8 -10 11 -10 2 0 4 5 4 10 0 6 -5 10 -11 10 -5 0
-7 -4 -4 -10z"/>
<path d="M4260 3973 c0 -7 4 -13 8 -13 5 0 16 6 25 13 16 11 15 12 -8 12 -14
0 -25 -6 -25 -12z"/>
<path d="M4321 3964 c0 -11 3 -14 6 -6 3 7 2 16 -1 19 -3 4 -6 -2 -5 -13z"/>
<path d="M3964 3925 c21 -42 53 -81 61 -74 3 4 -3 17 -14 30 -12 13 -30 35
-41 49 l-21 25 15 -30z"/>
<path d="M4195 3943 c-40 -10 -65 -53 -30 -53 8 0 15 -5 15 -11 0 -6 -9 -8
-20 -4 -25 8 -25 3 2 -44 23 -40 70 -74 92 -65 7 3 21 -6 30 -20 9 -15 13 -26
9 -26 -5 0 0 -5 10 -11 25 -15 29 -8 12 23 -14 28 -9 38 26 51 9 3 19 19 22
36 4 20 13 31 23 31 14 0 14 3 4 15 -9 11 -16 12 -25 5 -10 -8 -15 -6 -20 9
-16 50 -86 80 -150 64z m112 -95 c-3 -7 -5 -2 -5 12 0 14 2 19 5 13 2 -7 2
-19 0 -25z m-77 12 c0 -5 -5 -10 -11 -10 -5 0 -7 5 -4 10 3 6 8 10 11 10 2 0
4 -4 4 -10z"/>
<path d="M5070 3942 c0 -12 19 -26 26 -19 2 2 -2 10 -11 17 -9 8 -15 8 -15 2z"/>
<path d="M4960 3860 c0 -5 5 -10 10 -10 6 0 10 5 10 10 0 6 -4 10 -10 10 -5 0
-10 -4 -10 -10z"/>
<path d="M5185 3840 c4 -6 11 -8 16 -5 14 9 11 15 -7 15 -8 0 -12 -5 -9 -10z"/>
<path d="M5226 3803 c-6 -14 -5 -15 5 -6 7 7 10 15 7 18 -3 3 -9 -2 -12 -12z"/>
<path d="M5160 3780 c-8 -5 -10 -10 -5 -10 6 0 17 5 25 10 8 5 11 10 5 10 -5
0 -17 -5 -25 -10z"/>
<path d="M4347 3739 c7 -7 15 -10 18 -7 3 3 -2 9 -12 12 -14 6 -15 5 -6 -5z"/>
<path d="M4505 3546 c39 -17 92 -30 82 -20 -10 10 -78 34 -97 33 -8 0 -1 -6
15 -13z"/>
<path d="M3540 3434 c0 -6 6 -17 14 -23 12 -10 17 -8 25 8 15 26 15 26 -14 26
-14 0 -25 -5 -25 -11z"/>
<path d="M3620 3441 c0 -5 7 -14 15 -21 14 -11 14 -15 -2 -32 -13 -15 -15 -23
-6 -37 7 -11 8 -23 2 -34 -8 -14 -6 -15 20 -6 20 7 36 7 48 0 16 -9 15 -11 -9
-20 -39 -15 -35 -29 16 -51 24 -11 48 -25 54 -32 11 -15 34 -144 30 -173 -7
-48 20 -19 51 55 32 78 34 81 64 78 17 -2 33 -9 35 -17 3 -10 0 -12 -14 -7
-16 6 -15 4 4 -17 12 -13 22 -31 22 -40 0 -9 5 -17 12 -17 9 0 9 -3 0 -12 -13
-13 -42 5 -42 27 0 7 -6 17 -13 23 -11 9 -13 2 -14 -36 -1 -26 -3 -56 -5 -67
-2 -13 2 -19 10 -17 8 1 16 -7 19 -18 7 -26 29 -26 36 0 3 11 10 20 16 20 6 0
11 -9 11 -20 0 -11 -7 -20 -15 -20 -8 0 -15 -7 -15 -15 0 -8 -7 -15 -15 -15
-8 0 -15 -4 -15 -9 0 -4 -19 -5 -42 0 -24 4 -46 8 -49 9 -4 0 -18 11 -32 25
-14 15 -28 22 -31 16 -4 -6 -23 -4 -51 6 -58 19 -90 11 -103 -26 -12 -34 -4
-48 13 -24 12 16 14 16 29 0 21 -21 36 -22 36 -3 0 8 7 17 16 20 22 9 24 8 24
-10 0 -8 -4 -12 -10 -9 -5 3 -10 1 -10 -4 0 -6 7 -11 15 -11 18 0 19 -12 4
-27 -13 -13 17 -66 32 -57 13 8 29 -42 26 -81 -1 -19 -7 -37 -14 -39 -17 -7 8
-57 27 -54 23 4 40 -11 40 -34 0 -15 -5 -19 -20 -15 -11 3 -18 1 -14 -4 9 -15
56 -10 68 7 7 9 18 12 29 8 16 -6 17 -8 2 -24 -15 -16 -13 -20 15 -44 21 -17
43 -26 66 -26 27 0 37 -5 43 -22 10 -27 61 -77 61 -60 0 6 -4 14 -10 17 -5 3
-10 11 -10 17 0 6 8 4 18 -4 18 -16 87 -14 77 3 -3 4 -12 6 -20 2 -8 -3 -15
-1 -15 5 0 5 -11 13 -25 16 -15 4 -24 13 -23 24 4 53 -3 73 -29 83 -47 17
-123 73 -118 87 7 19 -32 14 -40 -5 -5 -14 -12 -7 -31 32 -26 56 -29 76 -13
92 18 18 47 3 54 -28 4 -16 13 -29 20 -29 8 0 20 -9 28 -20 8 -11 17 -17 20
-14 8 8 -9 42 -35 71 -11 12 -17 26 -13 32 10 17 25 13 25 -7 0 -11 11 -24 25
-30 15 -7 25 -20 25 -33 0 -12 8 -23 20 -26 12 -3 20 -14 20 -27 0 -24 28 -70
56 -91 28 -21 54 -19 54 5 0 14 7 20 23 20 12 0 27 4 33 8 16 11 26 73 14 87
-8 10 -4 20 13 39 26 28 39 34 31 13 -3 -10 5 -13 31 -13 26 1 35 5 35 19 0 9
-5 17 -12 17 -6 0 -8 3 -5 7 4 3 16 -2 27 -12 20 -18 21 -18 40 1 27 27 17 74
-16 74 -25 0 -33 -15 -11 -23 9 -4 9 -6 0 -6 -18 -1 -44 41 -34 53 6 7 4 18
-4 29 -11 15 -9 22 18 49 17 16 41 31 52 32 38 2 11 66 -27 66 -16 0 -19 -5
-15 -21 4 -15 2 -19 -9 -15 -8 3 -14 -1 -14 -8 0 -8 -9 -24 -19 -37 -16 -19
-22 -22 -32 -11 -10 9 -10 15 -1 24 21 21 14 39 -12 32 -19 -4 -26 -1 -31 15
-3 11 -1 29 4 40 15 28 14 33 -9 26 -23 -7 -76 36 -66 54 12 18 23 13 30 -14
4 -14 13 -25 21 -25 22 0 18 11 -15 47 -17 18 -30 41 -30 52 0 24 -16 36 -23
19 -3 -7 -6 -3 -6 9 -1 12 -6 25 -13 29 -8 5 -9 2 -5 -9 3 -10 2 -17 -3 -17
-6 0 -10 5 -10 10 0 6 -4 10 -10 10 -18 0 -10 -22 10 -27 16 -4 18 -8 9 -19
-6 -8 -8 -14 -3 -15 5 0 0 -4 -11 -8 -12 -5 -23 -4 -27 2 -4 7 -12 0 -19 -15
-11 -25 -44 -42 -61 -32 -4 3 -8 18 -8 35 0 22 -5 29 -19 29 -10 0 -24 7 -31
14 -8 11 -18 12 -36 5 -14 -5 -29 -9 -34 -9 -13 0 -1 32 17 47 12 9 8 13 -20
22 -19 7 -43 21 -52 31 -23 25 -99 70 -119 70 -10 0 -13 6 -9 16 3 9 0 20 -8
25 -18 11 -49 12 -49 0z m175 -229 c-3 -3 -11 0 -18 7 -9 10 -8 11 6 5 10 -3
15 -9 12 -12z m16 -55 c-13 -12 -20 -15 -15 -7 12 22 28 39 33 34 3 -3 -6 -15
-18 -27z m299 -17 c0 -5 -5 -10 -11 -10 -5 0 -7 5 -4 10 3 6 8 10 11 10 2 0 4
-4 4 -10z m92 -107 c26 -32 42 -83 29 -96 -6 -6 -11 -19 -11 -29 0 -10 -5 -18
-11 -18 -5 0 -7 -4 -4 -10 3 -5 0 -7 -8 -4 -8 3 -18 1 -22 -5 -6 -11 -65 -16
-65 -6 0 3 7 17 17 31 12 18 18 22 24 12 6 -9 12 -8 28 6 32 29 35 53 12 92
-12 19 -21 37 -21 40 0 10 18 3 32 -13z m-249 -18 c-3 -8 -9 -15 -14 -15 -10
0 -12 24 -3 33 11 11 24 -3 17 -18z m37 5 c0 -5 -5 -10 -11 -10 -5 0 -7 5 -4
10 3 6 8 10 11 10 2 0 4 -4 4 -10z m10 -105 c0 -8 -4 -15 -10 -15 -5 0 -10 7
-10 15 0 8 5 15 10 15 6 0 10 -7 10 -15z m209 -109 c9 -10 8 -16 -4 -26 -18
-15 -20 -13 -29 18 -8 25 14 31 33 8z m-299 -166 c0 -5 -7 -10 -16 -10 -8 0
-12 5 -9 10 3 6 10 10 16 10 5 0 9 -4 9 -10z m150 -84 c0 -18 -37 -17 -65 1
-18 12 -15 13 23 13 30 0 42 -4 42 -14z"/>
<path d="M23 3392 l-23 -3 0 -1695 0 -1694 124 0 c90 0 134 4 161 16 169 70
466 72 711 4 64 -18 103 -20 428 -20 317 0 357 2 346 15 -7 8 -10 24 -7 35 3
11 1 23 -5 26 -5 3 -7 17 -4 29 3 13 2 25 -3 27 -4 2 -11 13 -15 24 -6 18 2
27 43 52 39 25 48 35 44 51 -4 15 -1 21 11 21 9 0 17 5 17 10 1 6 2 14 3 20 0
5 9 18 18 29 26 31 40 61 28 61 -5 0 -10 9 -10 20 0 11 -4 20 -10 20 -5 0 -10
11 -10 25 0 14 -4 25 -10 25 -5 0 -10 6 -10 14 0 8 -14 19 -30 25 -17 5 -30
15 -30 21 0 6 5 8 10 5 11 -7 13 5 5 27 -5 11 -28 14 -108 12 -56 -1 -104 2
-107 6 -8 11 -50 22 -50 13 0 -4 -25 -6 -55 -5 -34 3 -61 -1 -70 -8 -8 -7 -15
-8 -15 -4 0 5 -13 15 -29 22 -39 17 -71 46 -71 65 0 8 -13 21 -30 29 -16 7
-30 15 -30 18 0 3 -10 6 -21 7 -27 2 -102 84 -131 142 -12 24 -33 58 -48 75
-15 17 -29 39 -33 48 -4 10 -13 18 -22 18 -8 0 -15 8 -15 18 0 10 -11 28 -25
40 -32 28 -38 16 -32 -59 3 -30 1 -59 -5 -66 -6 -8 -3 -21 9 -39 17 -27 17
-28 0 -21 -10 4 -21 7 -23 7 -2 0 -4 6 -4 13 0 7 -12 20 -27 29 -58 34 -72 59
-79 138 -3 41 -12 89 -19 105 -8 17 -21 62 -30 100 -9 39 -21 79 -26 90 -18
38 -19 67 -4 61 21 -8 19 24 -2 71 -18 38 -27 51 -73 103 -14 16 -30 34 -36
42 -6 7 -32 30 -57 51 -63 51 -103 136 -118 252 -10 81 -9 105 11 230 31 192
37 270 19 260 -7 -5 -35 -10 -61 -11 -42 -1 -53 3 -78 27 -16 16 -36 29 -44
29 -9 0 -15 4 -13 9 2 11 -62 71 -76 71 -6 0 -7 3 -4 7 4 3 2 12 -4 20 -8 8
-8 13 -1 13 13 0 8 45 -7 64 -7 8 -10 19 -7 25 3 5 0 23 -8 41 -11 27 -11 41
1 93 8 34 18 66 22 72 5 5 7 19 5 30 -1 10 2 25 7 31 9 11 23 129 19 164 -1 8
-3 35 -4 60 -2 25 -13 65 -24 90 -12 25 -22 55 -22 68 0 13 -4 21 -9 17 -6 -3
-14 2 -19 12 -10 17 -49 23 -99 15z"/>
<path d="M3508 3388 c7 -7 12 -20 12 -29 0 -9 7 -30 15 -45 9 -17 11 -30 5
-32 -14 -5 -12 -66 2 -80 16 -16 38 -15 38 2 0 8 12 24 28 35 l27 21 -36 -6
-36 -6 3 56 c3 51 1 57 -26 76 -31 22 -51 27 -32 8z"/>
<path d="M3810 3361 c0 -6 5 -13 10 -16 6 -3 10 1 10 9 0 9 -4 16 -10 16 -5 0
-10 -4 -10 -9z"/>
<path d="M3860 3330 c0 -5 9 -14 20 -20 11 -6 20 -7 20 -3 0 5 -9 14 -20 21
-11 7 -20 8 -20 2z"/>
<path d="M3590 3300 c0 -5 5 -10 11 -10 5 0 7 5 4 10 -3 6 -8 10 -11 10 -2 0
-4 -4 -4 -10z"/>
<path d="M3495 3277 c-10 -15 -16 -30 -13 -32 8 -9 40 33 36 47 -3 8 -11 2
-23 -15z"/>
<path d="M4050 3260 c0 -5 5 -10 10 -10 6 0 10 5 10 10 0 6 -4 10 -10 10 -5 0
-10 -4 -10 -10z"/>
<path d="M3420 3250 c-14 -4 -51 -8 -83 -9 -65 -1 -79 -16 -53 -55 21 -33 53
-42 75 -22 10 9 29 16 42 16 13 -1 36 1 52 4 31 5 47 -14 47 -54 0 -13 11 -13
30 0 13 9 13 12 -1 23 -9 7 -20 27 -23 45 -4 17 -14 32 -21 32 -7 0 -15 7 -19
15 -6 16 -9 17 -46 5z"/>
<path d="M3995 3230 c-3 -5 -1 -10 4 -10 6 0 11 5 11 10 0 6 -2 10 -4 10 -3 0
-8 -4 -11 -10z"/>
<path d="M4050 3229 c0 -5 5 -7 10 -4 6 3 10 8 10 11 0 2 -4 4 -10 4 -5 0 -10
-5 -10 -11z"/>
<path d="M3580 3133 c0 -10 5 -25 10 -33 8 -12 10 -9 10 12 0 15 -4 30 -10 33
-5 3 -10 -2 -10 -12z"/>
<path d="M3440 3120 c0 -5 5 -10 10 -10 6 0 10 5 10 10 0 6 -4 10 -10 10 -5 0
-10 -4 -10 -10z"/>
<path d="M3415 3090 c-10 -16 4 -30 31 -30 27 0 33 24 8 34 -22 8 -32 8 -39
-4z"/>
<path d="M3507 3094 c-4 -4 -7 -15 -7 -25 0 -19 -63 -79 -84 -79 -20 0 -40 27
-26 35 13 8 13 45 -1 45 -5 0 -7 -4 -4 -10 3 -5 -1 -10 -9 -10 -9 0 -16 -8
-16 -17 0 -23 -31 -106 -43 -114 -15 -11 3 -49 23 -49 25 0 35 17 20 35 -9 11
-6 14 18 13 37 -1 52 8 52 33 0 11 5 17 10 14 6 -3 10 1 10 10 0 10 11 3 31
-20 17 -19 40 -35 50 -35 22 0 23 -1 8 -34 -12 -26 -34 -25 -57 3 -11 14 -14
14 -31 -6 -14 -16 -21 -19 -30 -10 -8 8 -11 7 -11 -4 0 -9 12 -26 26 -40 16
-15 23 -31 20 -43 -3 -13 8 -31 35 -58 21 -21 39 -43 39 -48 0 -6 5 -10 10
-10 6 0 10 -7 10 -14 0 -8 11 -27 25 -42 14 -15 25 -32 25 -39 0 -14 52 -65
67 -65 6 0 13 7 16 15 5 11 12 8 35 -14 30 -31 106 -51 124 -33 11 11 -29 54
-87 94 -19 12 -35 29 -35 36 0 6 -4 12 -10 12 -5 0 -10 -5 -10 -11 0 -7 -10
-9 -25 -7 -14 3 -28 1 -31 -3 -3 -5 -14 -9 -25 -9 -23 0 -27 41 -5 59 7 6 11
21 9 34 -6 36 9 50 41 37 28 -10 27 -33 -2 -28 -10 2 -18 -5 -20 -17 -4 -15
-2 -17 10 -8 10 9 19 7 38 -7 14 -11 28 -20 33 -20 9 0 -2 50 -15 67 -7 8 -3
10 11 6 16 -4 23 1 31 22 15 39 12 56 -10 62 -11 3 -20 12 -20 19 0 8 -4 14
-10 14 -14 0 -12 38 3 43 6 2 9 7 5 11 -9 10 -46 -15 -51 -34 -2 -10 -18 -20
-34 -23 -32 -6 -57 -46 -46 -73 4 -12 2 -15 -8 -12 -8 2 -15 14 -17 25 -2 11
-14 25 -28 31 -13 7 -24 16 -24 22 0 5 -6 10 -14 10 -17 0 -41 28 -32 37 4 4
16 2 26 -5 29 -18 41 -15 72 20 33 38 37 63 8 55 -30 -8 -24 10 10 28 l29 15
-18 33 c-9 17 -28 37 -42 44 -13 7 -26 19 -29 28 -3 9 -9 13 -13 9z m18 -44
c3 -5 1 -10 -4 -10 -6 0 -11 5 -11 10 0 6 2 10 4 10 3 0 8 -4 11 -10z m172
-255 c-4 -8 -11 -15 -17 -15 -7 0 -7 6 0 21 13 23 26 19 17 -6z m-187 -35 c0
-5 -2 -10 -4 -10 -3 0 -8 5 -11 10 -3 6 -1 10 4 10 6 0 11 -4 11 -10z"/>
<path d="M3826 3012 c-8 -22 12 -82 26 -82 11 0 8 29 -6 70 -12 33 -13 34 -20
12z"/>
<path d="M3594 2865 c-10 -8 -14 -15 -8 -15 5 0 19 7 30 15 10 8 14 15 8 15
-5 0 -19 -7 -30 -15z"/>
<path d="M3373 2839 c-1 -13 5 -23 18 -26 10 -3 19 -10 19 -16 0 -6 2 -8 5 -5
6 6 -27 68 -35 68 -3 0 -6 -9 -7 -21z"/>
<path d="M3975 2681 c-3 -5 8 -19 25 -31 l30 -21 0 30 c0 26 -4 31 -24 31 -14
0 -27 -4 -31 -9z"/>
<path d="M4259 2656 c-14 -20 -15 -56 -1 -56 16 1 29 17 35 41 9 35 -13 44
-34 15z"/>
<path d="M4107 2552 c22 -56 32 -66 73 -69 38 -3 40 -1 30 17 -6 11 -16 20
-22 20 -7 0 -3 6 8 14 25 19 20 22 -43 29 -46 5 -51 4 -46 -11z"/>
<path d="M3824 2553 c4 -5 13 -8 19 -8 7 0 11 -8 9 -16 -1 -9 9 -24 23 -33 23
-15 26 -15 31 -1 11 27 -23 65 -58 65 -17 0 -28 -3 -24 -7z"/>
<path d="M3930 2490 c0 -13 34 -30 59 -30 32 0 25 14 -12 28 -40 15 -47 15
-47 2z"/>
<path d="M4045 2238 c-22 -5 -51 -11 -64 -14 l-24 -5 23 -25 c13 -13 28 -24
34 -24 6 0 31 18 56 40 46 41 43 45 -25 28z"/>
<path d="M1695 1813 c-5 -26 -2 -40 11 -54 16 -18 16 -19 -2 -19 -18 -1 -18
-1 -1 -11 9 -5 22 -7 27 -4 6 3 10 2 10 -4 0 -5 -5 -13 -10 -16 -6 -4 -9 -20
-6 -35 3 -23 0 -31 -16 -35 -23 -8 -35 -35 -58 -145 -11 -47 -30 -121 -43
-165 -29 -93 -43 -185 -30 -185 12 0 12 -2 13 -121 0 -31 5 -78 11 -105 5 -27
11 -75 12 -107 1 -44 6 -61 20 -68 9 -6 15 -15 11 -20 -3 -6 5 -19 18 -30 l23
-21 5 22 c5 19 7 20 25 6 11 -9 28 -16 38 -16 9 0 17 -8 17 -17 0 -15 2 -16
10 -3 8 12 10 12 10 -5 0 -17 2 -17 10 -5 9 13 10 13 10 0 1 -11 7 -8 21 9 11
13 18 29 16 35 -2 6 6 19 17 29 12 10 15 16 8 12 -7 -4 -16 4 -23 22 -8 22
-12 25 -20 13 -8 -11 -9 -1 -6 35 3 27 10 51 15 53 6 2 8 10 5 18 -3 8 1 20
10 27 10 8 16 33 19 77 2 46 8 70 20 81 10 9 15 18 12 21 -3 3 -5 30 -6 59 0
29 -4 64 -10 78 -5 14 -11 55 -14 90 -3 36 -10 71 -15 78 -6 7 -9 26 -7 43 3
16 2 30 -1 30 -3 0 -7 28 -8 63 -1 35 -7 74 -13 88 -16 36 -37 71 -47 78 -4 3
-14 22 -21 41 -12 31 -16 47 -21 85 0 6 -10 16 -20 22 -17 11 -20 8 -26 -24z"/>
<path d="M8109 1451 c6 -10 7 -21 4 -25 -3 -3 -2 -6 4 -6 6 0 27 -21 46 -47
40 -56 227 -275 299 -350 97 -103 155 -213 159 -302 2 -32 -7 -245 -15 -360
-2 -24 3 -68 11 -98 12 -46 12 -57 -1 -81 -26 -50 -53 -117 -59 -149 l-6 -33
79 0 c77 0 91 5 71 25 -5 6 -16 37 -24 71 -11 51 -11 67 0 99 7 21 20 46 28
55 8 9 15 21 15 26 0 5 9 16 20 24 11 8 20 22 20 32 0 22 59 78 83 78 9 0 17
4 17 9 0 11 56 32 64 24 3 -4 6 -1 6 5 0 28 28 7 73 -53 26 -35 47 -66 47 -70
0 -3 14 -24 30 -47 17 -22 30 -49 30 -60 0 -10 4 -18 8 -18 5 0 14 -17 20 -37
23 -79 23 -94 2 -130 l-21 -36 106 5 c135 7 203 37 252 110 45 68 53 122 53
362 l0 213 -42 7 c-24 4 -44 6 -46 6 -2 -1 -13 5 -25 13 -12 8 -47 15 -77 16
-79 3 -112 7 -140 19 -14 5 -27 9 -30 9 -20 -1 -81 28 -100 48 -13 14 -29 25
-35 25 -7 0 -30 16 -51 35 -21 19 -41 35 -44 35 -16 0 -182 117 -240 169 -71
63 -118 143 -128 215 -6 48 -35 111 -55 119 -17 6 -66 -3 -73 -14 -3 -5 -15
-9 -28 -9 -12 0 -26 -3 -30 -7 -13 -14 -90 -1 -140 23 -27 13 -57 24 -65 24
-14 0 -14 1 -1 10 12 8 11 10 -7 10 -13 0 -23 5 -23 11 0 6 -7 9 -15 5 -8 -3
-15 -1 -15 4 0 6 -5 10 -10 10 -7 0 -7 -6 -1 -19z"/>
<path d="M870 1116 c0 -9 5 -16 10 -16 6 0 10 4 10 9 0 6 -4 13 -10 16 -5 3
-10 -1 -10 -9z"/>
<path d="M2990 660 c0 -5 5 -10 11 -10 5 0 7 5 4 10 -3 6 -8 10 -11 10 -2 0
-4 -4 -4 -10z"/>
<path d="M4609 193 c-13 -16 -12 -17 4 -4 16 13 21 21 13 21 -2 0 -10 -8 -17
-17z"/>
<path d="M4500 87 c-60 -59 -78 -83 -66 -85 17 -4 32 11 120 113 65 76 34 60
-54 -28z"/>
<path d="M2129 9 c-10 -6 -4 -9 19 -9 17 0 32 2 32 4 0 9 -39 13 -51 5z"/>
</g>
</svg>
