<?xml version="1.0" standalone="no"?>
<!DOCTYPE svg PUBLIC "-//W3C//DTD SVG 20010904//EN"
 "http://www.w3.org/TR/2001/REC-SVG-20010904/DTD/svg10.dtd">
<svg version="1.0" xmlns="http://www.w3.org/2000/svg"
 width="953.000000pt" height="805.000000pt" viewBox="0 0 953.000000 805.000000"
 preserveAspectRatio="xMidYMid meet">

<g transform="translate(0.000000,805.000000) scale(0.100000,-0.100000)"
fill="#000000" stroke="none">
<path d="M464 8038 c2 -7 6 -21 11 -31 4 -10 5 -21 1 -24 -3 -3 -1 -13 6 -20
6 -8 12 -28 13 -44 1 -17 6 -34 12 -37 6 -4 14 -34 18 -67 4 -33 8 -73 11 -90
2 -16 5 -45 7 -64 2 -19 12 -40 22 -47 16 -12 16 -14 3 -19 -10 -4 -14 -14
-11 -26 6 -21 23 -26 23 -7 0 6 6 3 14 -8 9 -12 11 -23 5 -30 -10 -13 -2 -44
12 -44 5 0 7 -11 3 -24 -9 -35 2 -49 28 -35 18 10 20 9 15 -6 -4 -9 -7 -21 -7
-27 0 -7 -5 -7 -13 1 -19 15 -28 3 -14 -20 8 -12 15 -15 23 -8 9 7 14 4 19
-10 3 -12 4 -25 0 -31 -3 -5 -1 -19 5 -30 9 -16 8 -25 -1 -36 -14 -17 4 -44
30 -45 11 0 9 -3 -6 -9 -13 -5 -23 -14 -23 -19 0 -14 32 -29 48 -24 9 4 11 -3
8 -23 -3 -15 -1 -33 5 -40 6 -7 8 -23 4 -34 -4 -14 -1 -28 11 -41 10 -11 12
-19 6 -19 -14 0 -16 -36 -3 -45 5 -3 16 2 25 10 9 9 17 11 21 5 3 -5 3 -10 -2
-10 -4 0 -1 -5 7 -10 9 -6 11 -13 5 -17 -15 -12 -16 -30 -1 -42 15 -12 46 -5
46 11 0 5 7 3 15 -6 17 -16 45 -11 45 8 0 7 -6 18 -12 24 -10 10 -10 15 2 22
11 7 17 4 24 -13 16 -43 24 -52 45 -50 12 2 21 -2 21 -8 0 -5 4 -8 9 -4 6 3 9
-7 8 -22 -2 -24 2 -29 25 -31 22 -3 27 -9 30 -35 2 -26 9 -34 37 -43 19 -6 29
-14 23 -18 -5 -3 -16 -4 -24 -1 -9 4 -14 -2 -15 -15 -1 -16 1 -18 17 -10 13 7
21 5 31 -6 8 -9 23 -14 39 -12 24 4 26 1 26 -26 -1 -25 4 -32 22 -34 22 -3 26
3 22 45 -1 17 3 21 14 17 8 -3 14 -16 13 -32 -1 -18 4 -27 16 -30 25 -5 34 28
12 44 -18 14 -18 14 1 16 10 0 31 0 47 -1 20 -2 30 4 36 21 8 18 10 19 10 5 1
-23 27 -33 45 -18 11 9 19 9 34 0 16 -10 23 -10 35 0 18 14 30 1 21 -23 -5
-12 -10 -13 -25 -5 -11 5 -24 7 -29 4 -15 -9 -12 -35 5 -41 11 -5 13 -10 5
-19 -6 -7 -13 -30 -16 -51 -2 -22 -18 -68 -35 -104 -43 -90 -68 -195 -80 -329
-6 -63 -12 -118 -15 -123 -9 -14 -24 2 -24 26 0 12 -6 31 -14 41 -8 11 -12 25
-9 31 2 7 0 15 -5 18 -6 3 -15 -28 -21 -73 -15 -102 2 -326 26 -353 9 -10 11
-18 5 -18 -15 0 -8 -33 9 -39 19 -8 23 -31 5 -31 -7 0 -16 -10 -19 -21 -5 -20
-11 -21 -54 -16 -27 3 -69 13 -93 21 -58 20 -67 9 -60 -70 l5 -59 75 -16 c41
-9 81 -18 89 -20 18 -6 16 22 26 -569 4 -250 8 -474 10 -498 3 -51 2 -51 -115
-85 -100 -30 -408 -136 -465 -161 -22 -10 -62 -26 -90 -36 -59 -21 -191 -78
-256 -109 -52 -25 -123 -91 -146 -136 -9 -16 -30 -50 -47 -75 -17 -25 -61
-105 -98 -178 l-68 -133 0 -724 c0 -710 0 -723 19 -718 11 3 22 11 25 18 9 26
211 40 340 24 102 -13 248 -63 311 -108 141 -100 196 -195 179 -313 -9 -60
-11 -64 -43 -74 -39 -13 -29 -25 28 -31 55 -6 75 -9 91 -15 51 -19 271 -42
495 -53 106 -5 576 16 695 30 118 15 233 37 320 60 52 15 149 37 215 50 66 12
158 34 205 49 47 14 141 37 210 50 69 14 145 32 170 41 66 23 145 74 162 104
19 32 33 218 18 223 -18 6 -1 35 23 42 12 3 36 6 54 6 17 0 35 4 38 10 3 6 -3
10 -13 10 -22 0 -26 31 -40 360 -8 178 -6 200 15 200 8 0 22 9 31 19 13 16 32
20 88 23 42 1 77 -2 85 -8 27 -22 59 -24 210 -15 85 6 206 13 269 16 63 3 142
8 175 10 33 3 105 7 160 10 55 3 120 7 145 10 45 5 311 20 515 30 205 9 330
16 390 20 33 2 123 7 200 10 77 4 147 8 155 10 20 5 443 33 600 40 36 1 67 4
70 5 3 1 17 3 32 4 15 0 27 6 25 11 -2 11 -52 11 -407 2 -380 -11 -566 -18
-680 -27 -58 -4 -170 -8 -250 -9 -80 -1 -176 -4 -215 -6 -38 -2 -155 -7 -260
-10 -241 -7 -947 -42 -1126 -55 -76 -6 -144 -7 -153 -4 -17 6 -17 -2 0 411 4
82 11 148 18 157 11 15 101 24 396 42 58 3 111 9 117 13 15 8 -13 54 -86 141
-54 64 -57 67 -181 144 -183 113 -220 133 -337 180 -65 26 -201 88 -303 139
l-185 92 -12 76 c-15 94 -52 198 -63 178 -4 -8 -10 -63 -12 -124 -4 -93 -9
-118 -31 -161 -52 -101 -176 -224 -226 -224 -15 0 -32 -5 -39 -12 -8 -8 -16
-8 -30 3 -131 96 -337 268 -427 357 -74 73 -155 175 -155 195 0 8 -7 20 -15
27 -8 7 -15 9 -15 5 0 -4 -7 -2 -15 5 -9 7 -13 20 -10 27 5 15 -18 45 -32 42
-16 -4 -42 13 -37 24 2 7 -10 20 -27 29 -22 13 -29 23 -25 36 4 11 -2 23 -15
32 -12 8 -34 28 -49 44 -26 27 -28 34 -28 127 -1 53 -8 135 -15 181 -8 45 -20
119 -27 163 -22 149 -22 150 24 120 15 -10 34 -13 55 -9 30 6 32 9 27 37 -3
16 -6 39 -6 51 0 11 -10 34 -23 50 l-23 29 4 -35 c7 -59 -32 -77 -148 -68 -70
5 -152 90 -165 171 l-6 34 15 -32 c8 -18 20 -33 26 -33 14 0 13 13 -5 46 -19
37 -19 59 1 117 15 44 18 47 50 47 39 0 40 -4 13 -45 -30 -48 -40 -76 -34 -96
8 -25 82 -60 110 -53 13 3 27 -1 34 -10 8 -9 24 -16 37 -16 32 0 32 29 -1 64
-28 31 -33 77 -10 100 8 8 15 22 15 31 0 12 5 15 16 11 9 -3 22 -6 29 -6 8 0
25 -12 39 -26 20 -23 29 -26 59 -20 19 4 38 14 41 23 8 20 12 17 -70 54 -78
36 -74 51 5 19 80 -31 87 -29 95 31 5 38 14 57 32 71 13 11 22 23 19 28 -6 9
12 23 33 26 8 2 22 10 33 20 10 9 22 14 26 11 10 -10 33 13 33 34 0 20 38 51
52 43 4 -3 11 8 14 25 5 25 18 35 80 65 40 20 88 51 106 69 18 18 47 39 63 45
31 12 153 11 217 -3 29 -6 41 -4 54 10 16 16 16 18 -7 41 -18 17 -45 27 -105
38 -83 14 -189 54 -166 63 6 3 12 11 12 19 0 8 -6 11 -15 8 -10 -4 -15 0 -15
11 0 9 9 19 20 22 11 3 17 9 14 14 -7 12 26 59 42 59 8 0 19 11 24 24 11 29
21 32 125 41 44 4 86 12 94 18 11 9 15 9 18 0 6 -16 73 -17 73 -2 0 12 50 4
60 -9 3 -4 17 -13 33 -19 15 -7 27 -19 27 -28 0 -10 10 -15 34 -15 18 0 46 -7
62 -14 33 -18 134 -169 134 -202 0 -24 -8 -28 -73 -39 -27 -4 -41 -13 -49 -31
-6 -13 -8 -27 -4 -32 4 -4 43 -8 86 -8 88 -2 94 -4 121 -48 17 -27 19 -28 19
-9 0 12 -5 34 -10 49 -8 21 -6 38 10 81 11 29 20 62 20 73 0 13 14 27 39 39
52 27 181 168 220 240 73 138 12 255 -183 352 -228 111 -478 111 -724 -2 -206
-95 -406 -253 -746 -592 -115 -114 -172 -165 -179 -158 -11 11 66 94 278 301
267 261 428 387 606 477 50 25 88 47 86 49 -2 3 -65 33 -138 67 -74 34 -143
67 -154 74 -21 12 -22 58 -24 726 l-1 227 -939 0 c-746 0 -939 -3 -937 -12z
m326 -1038 c0 -5 -2 -10 -4 -10 -3 0 -8 5 -11 10 -3 6 -1 10 4 10 6 0 11 -4
11 -10z m90 -60 c0 -16 -26 -17 -45 -3 -17 13 -17 15 -2 10 9 -4 17 -2 17 3 0
5 7 7 15 4 8 -4 15 -10 15 -14z m1664 1 c3 -5 -1 -14 -9 -21 -8 -7 -15 -10
-15 -7 0 3 -12 0 -27 -8 -27 -14 -43 -12 -43 7 0 5 7 8 15 4 8 -3 15 -1 15 4
0 6 7 10 16 10 8 0 12 5 9 10 -3 6 3 10 14 10 11 0 22 -4 25 -9z m-110 -66
c-25 -19 -34 -19 -34 1 0 10 6 14 15 10 10 -3 15 1 15 11 0 13 3 14 12 5 9 -9
8 -15 -8 -27z m-94 -21 c0 -8 -4 -12 -10 -9 -5 3 -10 10 -10 16 0 5 5 9 10 9
6 0 10 -7 10 -16z m48 5 c-2 -6 -8 -10 -13 -10 -5 0 -11 4 -13 10 -2 6 4 11
13 11 9 0 15 -5 13 -11z m-963 -1221 c0 -29 4 -65 9 -80 5 -19 5 -28 -3 -28
-21 0 -34 103 -18 143 10 26 12 21 12 -35z m200 -2832 c16 -12 17 -18 8 -39
-10 -21 -9 -28 5 -39 16 -12 16 -11 2 7 -14 19 -14 19 4 5 18 -14 17 -15 -2
-30 -19 -16 -19 -16 0 -40 18 -22 19 -22 34 -4 14 18 15 18 4 -3 -13 -28 -40
-43 -77 -43 -30 0 -73 24 -73 41 0 5 9 0 20 -11 20 -20 84 -28 94 -11 3 4 -3
16 -14 26 -19 17 -21 17 -40 0 -21 -19 -28 -7 -8 13 9 9 8 16 -5 30 -25 27
-21 37 7 19 13 -9 26 -13 30 -10 3 3 -4 11 -16 17 -30 15 -41 51 -22 71 19 19
25 19 49 1z m705 -1 c0 -9 9 -15 24 -15 32 0 56 -25 56 -59 0 -38 -17 -51 -67
-51 l-43 0 0 39 c0 21 -3 53 -6 70 -6 27 -4 31 15 31 12 0 21 -6 21 -15z
m-212 -68 c3 -62 1 -67 -18 -67 -18 0 -20 6 -20 71 0 62 2 70 18 67 14 -3 18
-16 20 -71z m-91 37 c13 -13 14 -20 5 -35 -16 -26 -15 -39 4 -39 9 0 14 -7 12
-17 -2 -11 -12 -18 -27 -18 -20 0 -26 8 -37 45 -21 70 3 105 43 64z m229 -19
c21 -33 6 -71 -31 -81 -34 -8 -53 0 -67 30 -16 36 11 76 52 76 21 0 35 -8 46
-25z m-468 -7 c7 -7 12 -31 12 -55 0 -36 -3 -43 -20 -43 -16 0 -20 7 -20 35 0
19 -4 35 -10 35 -5 0 -10 -16 -10 -35 0 -28 -4 -35 -20 -35 -17 0 -20 7 -20
49 0 53 -4 50 66 60 5 0 15 -4 22 -11z m148 -13 c15 -23 15 -27 0 -49 -29 -45
-86 -42 -101 4 -18 58 67 96 101 45z"/>
<path d="M1590 2780 c0 -13 5 -20 13 -17 6 2 12 10 12 17 0 7 -6 15 -12 18 -8
2 -13 -5 -13 -18z"/>
<path d="M2342 2734 c4 -21 22 -23 26 -1 2 10 -3 17 -13 17 -10 0 -15 -6 -13
-16z"/>
<path d="M2197 2743 c-4 -3 -7 -12 -7 -20 0 -15 26 -18 34 -4 7 11 -18 33 -27
24z"/>
<path d="M1874 2719 c-8 -14 11 -33 25 -25 11 7 4 36 -9 36 -5 0 -12 -5 -16
-11z"/>
<path d="M3420 8018 c-36 -17 -103 -49 -148 -71 l-84 -40 25 -23 c18 -16 28
-38 32 -71 3 -27 10 -55 15 -64 5 -10 5 -20 -1 -26 -14 -14 0 -43 22 -43 10 0
19 5 19 12 0 6 6 4 13 -6 8 -10 12 -29 9 -41 -5 -27 21 -40 39 -19 9 11 8 18
-5 33 -16 17 -16 19 2 24 29 7 49 -8 34 -26 -12 -14 -7 -47 8 -47 17 0 33 30
22 43 -7 8 -7 17 2 28 10 15 14 15 31 3 13 -10 22 -11 32 -3 18 16 16 36 -4
49 -17 11 -17 11 0 6 11 -4 17 0 17 11 0 9 3 13 7 9 4 -4 7 -21 8 -39 0 -23 5
-33 19 -35 25 -5 44 14 29 29 -27 27 -3 36 95 34 61 -2 99 1 104 8 4 7 11 7
22 -3 14 -11 19 -10 34 4 23 20 32 20 32 1 0 -17 9 -19 29 -6 8 5 14 26 14 53
0 24 6 49 13 56 10 9 12 6 11 -16 -2 -21 3 -28 21 -30 12 -2 22 2 22 9 0 8 4
8 13 1 16 -13 103 -10 117 4 9 9 9 17 1 32 -10 19 -8 20 21 17 17 -3 37 0 44
6 20 17 34 1 28 -30 -5 -23 -2 -29 14 -33 25 -7 40 22 19 37 -12 9 -12 12 0
24 8 7 12 22 10 32 -3 11 -1 17 4 13 5 -3 9 -14 9 -25 0 -14 7 -19 24 -19 14
0 28 5 31 10 4 6 12 4 22 -5 11 -12 19 -13 28 -5 7 6 25 8 40 4 17 -4 30 -2
35 6 6 9 12 9 30 0 24 -13 36 -6 42 25 2 11 12 21 23 24 20 3 20 3 0 -18 -16
-19 -17 -24 -5 -32 26 -16 45 -5 45 26 l0 29 63 -1 c34 -1 65 3 67 8 3 4 17 3
30 -3 18 -8 28 -8 38 0 7 6 18 7 26 3 21 -13 49 -1 54 23 4 21 4 21 6 -1 0
-13 7 -23 14 -23 22 0 40 18 34 34 -4 9 -2 16 4 16 5 0 14 -11 19 -25 5 -14
14 -25 19 -25 12 0 32 26 25 33 -3 3 -2 13 3 22 9 15 11 15 24 -1 9 -11 9 -15
2 -10 -14 8 -17 -3 -7 -28 9 -22 44 -21 44 2 0 10 -5 23 -12 30 -9 9 -6 12 13
12 23 0 25 -3 21 -30 -5 -33 -1 -35 29 -19 16 8 18 13 8 25 -12 15 -12 15 41
20 19 1 36 8 38 14 3 7 9 5 16 -6 11 -14 16 -15 35 -4 16 8 26 9 34 1 13 -13
47 4 47 24 0 13 -116 15 -902 15 l-903 -1 -65 -31z m615 -137 c-3 -5 5 -12 17
-14 16 -3 13 -5 -11 -6 -29 -1 -32 1 -21 14 14 16 25 21 15 6z m-55 -9 c0 -13
-12 -22 -22 -16 -10 6 -1 24 13 24 5 0 9 -4 9 -8z m-122 -62 c15 0 15 -1 0
-17 -14 -13 -20 -14 -32 -4 -12 10 -13 16 -3 26 7 7 14 9 15 4 2 -5 11 -9 20
-9z m-80 -21 c-2 -7 -10 -4 -18 7 -9 11 -10 15 -2 10 7 -4 12 -2 13 6 0 10 2
10 6 1 2 -7 3 -18 1 -24z m-68 11 c0 -5 -4 -10 -9 -10 -6 0 -13 5 -16 10 -3 6
1 10 9 10 9 0 16 -4 16 -10z"/>
<path d="M5302 8033 c4 -24 39 -29 51 -8 8 14 11 15 18 4 7 -11 9 -10 9 4 0
13 -9 17 -41 17 -33 0 -40 -3 -37 -17z"/>
<path d="M5915 8040 c-3 -5 1 -10 9 -10 8 0 18 5 21 10 3 6 -1 10 -9 10 -8 0
-18 -4 -21 -10z"/>
<path d="M5970 8038 c0 -4 9 -8 20 -8 11 0 20 4 20 9 0 6 -9 9 -20 8 -11 -1
-20 -5 -20 -9z"/>
<path d="M6058 8043 c7 -3 16 -2 19 1 4 3 -2 6 -13 5 -11 0 -14 -3 -6 -6z"/>
<path d="M6180 8039 c0 -5 5 -7 10 -4 6 3 10 8 10 11 0 2 -4 4 -10 4 -5 0 -10
-5 -10 -11z"/>
<path d="M6907 8044 c-11 -11 3 -24 18 -18 8 4 12 10 9 15 -6 11 -18 12 -27 3z"/>
<path d="M7165 8040 c-3 -5 -4 -10 -1 -10 2 0 11 -3 20 -6 11 -4 16 -1 16 10
0 18 -25 22 -35 6z"/>
<path d="M7226 8041 c-9 -13 19 -32 38 -25 25 10 19 34 -8 34 -14 0 -27 -4
-30 -9z"/>
<path d="M7297 8044 c-10 -11 3 -24 24 -24 10 0 19 7 19 15 0 15 -31 21 -43 9z"/>
<path d="M7360 8030 c0 -17 6 -20 35 -18 40 2 52 -6 36 -25 -16 -21 -4 -46 20
-40 26 7 35 23 18 33 -10 7 -10 11 0 24 19 23 31 10 24 -24 -5 -26 -2 -30 15
-30 27 0 37 17 21 36 -11 13 -10 18 4 25 9 5 14 16 11 24 -5 12 -26 15 -95 15
-83 0 -89 -1 -89 -20z"/>
<path d="M7557 8044 c-10 -10 2 -24 22 -24 10 0 18 7 18 15 0 15 -28 21 -40 9z"/>
<path d="M7780 8040 c-9 -6 -10 -10 -3 -10 6 0 15 5 18 10 8 12 4 12 -15 0z"/>
<path d="M7830 8035 c0 -8 4 -15 8 -15 5 0 9 7 9 15 0 8 -4 15 -9 15 -4 0 -8
-7 -8 -15z"/>
<path d="M6770 8036 c0 -2 7 -7 16 -10 8 -3 12 -2 9 4 -6 10 -25 14 -25 6z"/>
<path d="M5110 7981 c0 -26 10 -32 26 -16 18 18 18 22 -6 28 -14 4 -20 0 -20
-12z"/>
<path d="M5186 7975 c-8 -23 -8 -24 12 -21 9 2 17 9 17 16 0 20 -22 23 -29 5z"/>
<path d="M5310 7974 c0 -9 5 -14 12 -12 18 6 21 28 4 28 -9 0 -16 -7 -16 -16z"/>
<path d="M7362 7968 c3 -24 17 -32 36 -20 18 12 4 42 -20 42 -14 0 -19 -6 -16
-22z"/>
<path d="M4578 7918 c-7 -19 2 -38 17 -38 18 0 26 15 19 34 -7 19 -30 21 -36
4z"/>
<path d="M4650 7905 c0 -29 15 -33 29 -6 11 20 5 31 -16 31 -7 0 -13 -11 -13
-25z"/>
<path d="M4855 7920 c-3 -5 1 -10 10 -10 9 0 13 5 10 10 -3 6 -8 10 -10 10 -2
0 -7 -4 -10 -10z"/>
<path d="M4710 7910 c0 -5 8 -10 18 -10 15 0 15 -2 2 -11 -13 -9 -13 -10 0 -6
24 6 25 37 1 37 -12 0 -21 -4 -21 -10z"/>
<path d="M7426 7905 c-3 -8 -1 -15 4 -15 6 0 10 4 10 10 0 5 7 6 17 3 11 -4
14 -3 9 5 -10 17 -33 15 -40 -3z"/>
<path d="M4793 7895 c0 -8 4 -12 9 -9 5 3 6 10 3 15 -9 13 -12 11 -12 -6z"/>
<path d="M4112 7838 c2 -15 10 -23 23 -23 30 0 27 39 -3 43 -20 3 -23 0 -20
-20z"/>
<path d="M4253 7844 c-8 -22 15 -43 27 -24 6 9 6 16 0 18 -6 2 -8 8 -4 13 3 5
0 9 -6 9 -6 0 -13 -7 -17 -16z"/>
<path d="M4317 7846 c-3 -8 0 -19 7 -26 10 -8 15 -6 20 6 7 17 0 34 -14 34 -4
0 -10 -6 -13 -14z"/>
<path d="M4384 7849 c-8 -14 11 -33 25 -25 6 4 11 11 11 16 0 13 -29 20 -36 9z"/>
<path d="M4463 7843 c-18 -6 -16 -23 1 -23 17 0 30 16 19 23 -5 2 -14 2 -20 0z"/>
<path d="M4510 7834 c0 -9 5 -14 12 -12 18 6 21 28 4 28 -9 0 -16 -7 -16 -16z"/>
<path d="M4580 7839 c0 -5 5 -7 10 -4 6 3 10 8 10 11 0 2 -4 4 -10 4 -5 0 -10
-5 -10 -11z"/>
<path d="M3923 7793 c-18 -6 -16 -40 1 -46 16 -6 33 11 32 32 -1 16 -15 22
-33 14z"/>
<path d="M3984 7786 c-7 -19 3 -36 22 -36 10 0 14 8 12 22 -4 26 -26 36 -34
14z"/>
<path d="M4053 7770 c1 -12 8 -20 19 -20 11 0 16 7 15 20 -1 12 -8 20 -19 20
-11 0 -16 -7 -15 -20z"/>
<path d="M4117 7775 c-4 -8 -2 -17 4 -21 12 -7 41 15 33 27 -8 14 -31 11 -37
-6z"/>
<path d="M4200 7781 c13 -9 12 -11 -3 -11 -10 0 -15 -4 -12 -10 3 -5 12 -10
20 -10 17 0 13 33 -6 38 -11 3 -11 1 1 -7z"/>
<path d="M3582 7708 c2 -15 10 -23 23 -23 30 0 27 39 -3 43 -20 3 -23 0 -20
-20z"/>
<path d="M3650 7705 c0 -20 4 -26 18 -23 9 2 17 12 17 23 0 11 -8 21 -17 23
-14 3 -18 -3 -18 -23z"/>
<path d="M3786 7713 c-4 -9 -3 -20 2 -25 11 -11 36 17 27 32 -9 15 -22 12 -29
-7z"/>
<path d="M3717 7713 c-11 -10 13 -32 29 -26 20 8 17 33 -4 33 -10 0 -22 -3
-25 -7z"/>
<path d="M3857 7714 c-13 -13 -7 -24 14 -24 11 0 19 5 17 12 -5 14 -22 21 -31
12z"/>
<path d="M3997 7714 c-8 -8 1 -24 12 -24 4 0 8 7 8 15 0 16 -9 20 -20 9z"/>
<path d="M3267 7664 c-4 -4 -7 -16 -7 -26 0 -20 25 -25 36 -7 8 13 -19 43 -29
33z"/>
<path d="M3450 7641 c0 -23 21 -33 36 -17 15 16 6 36 -17 36 -12 0 -19 -7 -19
-19z"/>
<path d="M3520 7640 c0 -15 5 -20 18 -18 9 2 17 10 17 18 0 8 -8 16 -17 18
-13 2 -18 -3 -18 -18z"/>
<path d="M3597 7653 c-12 -12 -7 -30 8 -30 8 0 12 4 9 9 -3 4 0 8 6 8 6 0 8 5
5 10 -7 12 -19 13 -28 3z"/>
<path d="M3720 7635 c0 -8 5 -15 10 -15 6 0 10 7 10 15 0 8 -4 15 -10 15 -5 0
-10 -7 -10 -15z"/>
<path d="M3333 7593 c-18 -6 -16 -33 1 -33 19 0 31 19 20 30 -5 4 -15 5 -21 3z"/>
<path d="M3395 7580 c3 -5 8 -10 11 -10 2 0 4 5 4 10 0 6 -5 10 -11 10 -5 0
-7 -4 -4 -10z"/>
<path d="M692 7116 c7 -8 15 -12 17 -11 5 6 -10 25 -20 25 -5 0 -4 -6 3 -14z"/>
<path d="M752 6915 c-11 -13 -10 -15 7 -15 14 0 19 5 15 15 -7 18 -6 18 -22 0z"/>
<path d="M807 6846 c-3 -8 0 -17 8 -20 15 -5 39 17 28 27 -11 12 -31 8 -36 -7z"/>
<path d="M864 6849 c-7 -12 15 -31 28 -23 4 3 8 12 8 20 0 17 -26 19 -36 3z"/>
<path d="M810 6779 c0 -12 5 -19 12 -17 18 6 20 25 3 31 -10 5 -15 0 -15 -14z"/>
<path d="M1142 6653 c2 -10 10 -18 17 -18 8 0 15 8 17 18 1 11 -4 17 -18 17
-13 0 -18 -6 -16 -17z"/>
<path d="M1333 6659 c-16 -16 -5 -39 19 -39 14 0 19 6 16 22 -4 25 -19 33 -35
17z"/>
<path d="M1394 6656 c-8 -21 2 -35 24 -32 9 2 17 11 17 22 0 23 -33 31 -41 10z"/>
<path d="M2460 6047 c-70 -16 -154 -66 -158 -95 -2 -13 -8 -19 -17 -15 -8 3
-22 -3 -32 -12 -16 -17 -15 -18 31 -11 63 10 76 15 76 32 0 8 9 14 19 14 27 0
52 11 46 20 -3 4 2 13 10 20 12 10 18 10 30 0 8 -7 15 -19 15 -26 0 -10 13
-14 45 -14 38 0 45 3 45 19 0 11 5 23 10 26 6 4 10 -6 10 -22 0 -23 7 -31 41
-45 41 -17 41 -18 26 -41 -15 -23 -14 -25 9 -37 13 -8 27 -24 31 -38 5 -20 10
-22 32 -16 14 3 44 10 66 14 22 5 41 13 43 18 2 6 10 8 17 6 8 -3 20 -2 27 2
9 6 6 10 -12 14 -26 6 -42 47 -40 107 0 28 -4 33 -27 39 -15 3 -33 13 -39 21
-7 7 -26 18 -43 23 -27 7 -33 6 -42 -13 -7 -12 -13 -24 -15 -25 -1 -2 -16 6
-32 18 -37 27 -99 33 -172 17z m88 -53 c-4 -3 -17 -2 -30 2 -22 7 -22 7 -3 14
20 8 44 -4 33 -16z"/>
<path d="M3038 6008 c-26 -9 -27 -11 -13 -31 8 -12 15 -29 15 -39 0 -15 8 -18
44 -18 23 0 57 -5 75 -11 18 -6 34 -9 37 -6 3 3 -3 25 -14 50 -17 39 -25 45
-65 56 -25 6 -47 11 -49 10 -2 0 -15 -5 -30 -11z m57 -48 c11 -19 -5 -30 -25
-18 -14 9 -16 14 -7 20 16 10 25 10 32 -2z"/>
<path d="M2125 5900 c-3 -5 3 -10 14 -10 11 0 23 5 26 10 3 6 -3 10 -14 10
-11 0 -23 -4 -26 -10z"/>
<path d="M2131 5182 c5 -40 -7 -52 -41 -45 -27 5 -30 3 -30 -21 0 -27 26 -36
46 -16 6 6 10 3 10 -10 0 -15 -5 -18 -23 -14 -13 4 -23 2 -23 -4 0 -5 12 -12
28 -15 15 -3 39 -9 54 -12 25 -7 28 -4 38 35 10 37 9 44 -7 56 -10 7 -22 14
-27 14 -5 0 -3 7 4 15 10 12 10 18 0 30 -19 23 -32 18 -29 -13z"/>
<path d="M2065 5179 c-12 -18 3 -22 20 -5 14 14 14 16 1 16 -8 0 -18 -5 -21
-11z"/>
<path d="M2060 4926 c0 -9 7 -19 15 -23 25 -9 27 2 5 22 -18 17 -20 17 -20 1z"/>
<path d="M2060 4856 c0 -15 24 -28 34 -19 13 14 5 33 -14 33 -11 0 -20 -6 -20
-14z"/>
<path d="M2134 4837 c4 -24 3 -36 -5 -39 -23 -8 3 -30 28 -25 15 3 27 -1 30
-9 2 -7 12 -10 21 -7 10 4 7 -2 -7 -16 -22 -22 -22 -24 -5 -42 16 -17 16 -19
1 -19 -19 0 -23 -30 -6 -47 8 -8 8 -17 0 -32 -9 -17 -8 -22 8 -31 11 -5 30 -9
43 -7 17 1 23 -3 22 -15 -1 -10 2 -16 6 -13 5 3 11 -1 14 -7 5 -10 7 -10 12 0
8 17 24 15 24 -3 0 -8 6 -15 13 -16 97 -6 147 -4 177 8 27 11 32 16 20 23 -13
8 -11 12 8 26 16 11 22 23 18 37 -3 11 -1 29 5 39 7 13 6 18 -3 18 -8 0 -78
32 -156 70 -78 39 -148 70 -156 70 -7 0 -19 7 -26 15 -16 20 -54 20 -47 1 4
-10 1 -13 -9 -9 -16 6 -19 23 -4 23 18 0 11 19 -11 31 -21 11 -21 9 -15 -24z"/>
<path d="M2144 4724 c3 -9 6 -18 6 -20 0 -3 5 -2 10 1 16 10 12 35 -6 35 -11
0 -14 -5 -10 -16z"/>
<path d="M2155 4660 c-3 -5 -1 -10 4 -10 6 0 11 5 11 10 0 6 -2 10 -4 10 -3 0
-8 -4 -11 -10z"/>
<path d="M7705 4536 c-21 -15 -12 -36 16 -36 12 0 19 7 19 19 0 27 -13 33 -35
17z"/>
<path d="M7650 4526 c0 -9 5 -16 10 -16 6 0 10 4 10 9 0 6 -4 13 -10 16 -5 3
-10 -1 -10 -9z"/>
<path d="M7366 4472 c-7 -11 19 -36 32 -30 5 1 1 11 -8 21 -10 10 -21 14 -24
9z"/>
<path d="M7430 4460 c-9 -16 -8 -22 5 -26 21 -8 39 10 32 30 -9 22 -24 20 -37
-4z"/>
<path d="M7630 4439 c-9 -32 -14 -38 -24 -30 -15 13 -46 4 -46 -13 0 -6 -7 -3
-14 7 -12 15 -18 17 -36 7 -12 -6 -20 -19 -18 -28 4 -19 65 -35 72 -18 3 8 5
7 5 -1 1 -18 -14 -24 -47 -17 -22 5 -34 14 -41 35 -12 34 -51 42 -51 10 0 -11
5 -23 11 -26 20 -13 -23 -34 -49 -24 -29 11 -42 -15 -19 -38 15 -15 15 -18 -1
-29 -16 -12 -15 -14 7 -30 l24 -17 -23 -9 c-13 -5 -31 -6 -42 -2 -23 7 -49
-12 -41 -32 3 -9 13 -12 30 -8 19 5 24 3 21 -7 -3 -8 -15 -16 -27 -17 -20 -3
-23 -8 -18 -38 5 -27 1 -37 -16 -49 -20 -14 -22 -13 -29 5 -9 25 -24 26 -32 3
-5 -11 0 -23 15 -34 17 -12 19 -20 12 -35 -6 -10 -11 -36 -11 -56 -1 -28 3
-38 18 -43 25 -8 25 -16 0 -38 -23 -19 -19 -40 5 -30 19 7 19 -11 0 -27 -22
-19 -18 -27 16 -34 28 -5 30 -8 24 -35 -4 -17 -2 -32 5 -36 8 -5 8 -11 -1 -21
-12 -15 -6 -44 11 -44 5 0 10 6 10 13 1 21 36 61 44 48 4 -6 0 -14 -8 -17 -9
-4 -16 -18 -16 -34 0 -15 -9 -35 -20 -45 -18 -16 -20 -16 -20 -2 0 10 -4 17
-10 17 -11 0 -13 -33 -4 -67 7 -26 54 -33 54 -9 0 27 19 26 32 -1 9 -20 26
-32 58 -41 25 -8 54 -17 65 -22 47 -20 204 -50 231 -43 14 3 24 -1 28 -13 5
-13 9 -15 14 -7 4 7 22 15 41 18 18 3 40 12 48 20 8 8 22 15 31 15 10 0 23 14
30 30 13 28 35 39 45 23 5 -10 -1 12 -9 31 -4 10 2 16 18 18 18 2 23 9 23 33
1 24 5 31 25 33 37 5 46 19 26 41 -14 16 -15 19 -2 24 8 3 17 1 20 -6 3 -9 7
-9 14 1 5 7 18 15 28 16 14 2 18 10 16 28 -4 37 24 45 31 9 3 -16 13 -31 21
-34 21 -8 20 7 -1 28 -16 16 -16 18 0 27 20 10 23 32 5 26 -7 -3 -18 1 -25 7
-15 15 -35 90 -31 117 2 16 -3 21 -26 24 -35 4 -40 8 -41 42 0 22 -4 27 -23
24 -16 -1 -22 2 -19 10 2 7 10 12 17 10 11 -2 9 12 -7 54 -2 6 5 14 16 17 23
6 29 43 9 50 -10 3 -9 8 2 22 9 11 10 16 3 11 -17 -10 -18 45 -1 62 15 15 -2
35 -23 27 -16 -6 -41 -55 -28 -55 5 0 9 -26 8 -57 0 -32 -3 -51 -6 -43 -3 8
-12 23 -21 33 -14 15 -13 17 1 17 21 0 21 10 2 36 -8 10 -15 31 -15 47 0 15
-4 27 -9 27 -5 0 -11 -12 -14 -27 l-3 -28 -14 35 c-8 19 -13 39 -12 44 5 17
-20 37 -33 26 -9 -7 -16 -6 -25 5 -15 18 -50 20 -50 3 0 -9 -3 -9 -8 -2 -4 6
-16 14 -27 18 -18 7 -18 8 5 20 16 8 33 10 48 4 19 -7 21 -5 13 10 -7 12 -23
18 -56 20 -53 2 -65 7 -65 29 0 10 6 13 16 9 20 -8 35 1 28 17 -6 17 -75 21
-85 5 -7 -10 -11 -10 -21 0 -20 20 -27 14 -38 -29z m58 -25 c-3 -14 -5 -12
-10 9 -3 19 -2 25 4 19 6 -6 8 -18 6 -28z m-68 -44 c0 -5 -4 -10 -10 -10 -5 0
-10 5 -10 10 0 6 5 10 10 10 6 0 10 -4 10 -10z m66 -67 c-11 -11 -19 6 -11 24
8 17 8 17 12 0 3 -10 2 -21 -1 -24z m-186 -9 c0 -8 -10 -14 -25 -14 -29 0 -33
15 -8 29 21 11 33 6 33 -15z m-64 -12 c-9 -9 -37 8 -31 18 5 8 11 7 21 -1 8
-6 12 -14 10 -17z m384 2 c0 -8 -4 -12 -10 -9 -5 3 -10 10 -10 16 0 5 5 9 10
9 6 0 10 -7 10 -16z m140 -126 c0 -19 -16 -5 -17 14 -2 18 0 20 7 8 5 -8 10
-18 10 -22z m-666 -150 c1 -28 6 -34 34 -43 17 -5 32 -15 32 -23 0 -10 -6 -12
-17 -7 -10 5 -29 9 -43 10 -22 1 -26 7 -30 48 -4 28 -2 48 5 50 15 6 18 1 19
-35z m196 12 c0 -5 -4 -10 -10 -10 -5 0 -10 5 -10 10 0 6 5 10 10 10 6 0 10
-4 10 -10z m615 -120 c3 -5 1 -10 -4 -10 -6 0 -11 5 -11 10 0 6 2 10 4 10 3 0
8 -4 11 -10z m-795 -10 c0 -5 -5 -10 -11 -10 -5 0 -7 5 -4 10 3 6 8 10 11 10
2 0 4 -4 4 -10z m44 -25 c-4 -8 -8 -15 -10 -15 -2 0 -4 7 -4 15 0 8 4 15 10
15 5 0 7 -7 4 -15z m12 -79 c-1 -52 -10 -66 -25 -38 -8 16 -7 28 7 51 9 17 18
31 18 31 1 0 1 -20 0 -44z m724 34 c0 -5 -2 -10 -4 -10 -3 0 -8 5 -11 10 -3 6
-1 10 4 10 6 0 11 -4 11 -10z m48 -15 c-1 -14 -6 -25 -11 -25 -5 0 -6 7 -3 16
3 9 6 20 6 25 0 5 2 9 5 9 3 0 4 -11 3 -25z"/>
<path d="M7496 4455 c-7 -20 23 -33 35 -14 6 11 11 11 21 1 19 -19 48 -15 48
8 0 13 -7 20 -20 20 -11 0 -20 -5 -20 -12 0 -9 -3 -9 -12 0 -17 17 -45 15 -52
-3z"/>
<path d="M7300 4390 c0 -17 3 -19 19 -8 21 13 19 28 -5 28 -8 0 -14 -9 -14
-20z"/>
<path d="M7366 4402 c-2 -4 -1 -14 4 -22 7 -11 11 -11 24 -1 9 7 13 17 10 22
-7 11 -31 12 -38 1z"/>
<path d="M7320 4331 c0 -6 5 -13 10 -16 6 -3 10 1 10 9 0 9 -4 16 -10 16 -5 0
-10 -4 -10 -9z"/>
<path d="M7245 4320 c3 -5 8 -10 11 -10 2 0 4 5 4 10 0 6 -5 10 -11 10 -5 0
-7 -4 -4 -10z"/>
<path d="M8020 4310 c0 -5 5 -10 11 -10 5 0 7 5 4 10 -3 6 -8 10 -11 10 -2 0
-4 -4 -4 -10z"/>
<path d="M7251 4262 c-13 -25 2 -38 19 -16 9 10 10 18 3 25 -8 8 -14 5 -22 -9z"/>
<path d="M7300 4270 c-13 -9 -12 -12 4 -25 27 -21 38 -19 34 7 -4 25 -17 32
-38 18z"/>
<path d="M7175 4200 c3 -5 10 -10 16 -10 5 0 9 5 9 10 0 6 -7 10 -16 10 -8 0
-12 -4 -9 -10z"/>
<path d="M7254 4196 c-8 -22 -2 -27 16 -16 12 7 12 12 3 21 -10 10 -14 9 -19
-5z"/>
<path d="M7242 4128 c-16 -16 -15 -28 3 -28 8 0 15 9 15 20 0 23 -2 24 -18 8z"/>
<path d="M7160 4060 c0 -5 5 -10 10 -10 6 0 10 5 10 10 0 6 -4 10 -10 10 -5 0
-10 -4 -10 -10z"/>
<path d="M8490 4024 c-41 -8 -120 -16 -175 -18 -162 -6 -171 -11 -159 -103 6
-53 21 -76 45 -71 7 2 15 -10 19 -27 4 -22 13 -32 35 -39 38 -13 38 -13 30
-25 -4 -8 -11 -6 -22 4 -12 12 -18 13 -29 4 -31 -25 -7 -55 30 -37 13 7 21 6
27 -3 6 -10 13 -10 34 -1 18 8 31 9 39 3 18 -15 40 4 33 28 -3 12 -1 24 5 27
14 9 148 11 142 3 -2 -3 14 -3 36 1 41 8 55 -4 43 -36 -4 -12 0 -15 17 -12 28
4 40 28 14 28 -9 0 -14 3 -10 7 9 9 78 16 129 13 6 -1 21 0 32 2 15 2 20 -3
21 -22 2 -40 3 -41 25 -30 16 9 18 14 8 26 -15 18 -6 29 17 20 9 -3 14 -12 11
-20 -3 -8 0 -21 6 -30 10 -13 14 -13 31 -1 16 12 17 17 6 30 -10 12 -10 15 4
15 9 0 16 -8 16 -20 0 -24 29 -38 40 -20 5 7 6 20 2 28 -3 9 -1 13 5 9 6 -4
14 -1 17 5 3 7 2 0 -1 -16 -5 -24 -3 -28 11 -23 9 4 16 1 17 -6 0 -7 7 3 15
21 14 32 34 36 34 6 0 -8 9 -14 20 -14 14 0 20 7 20 21 0 12 5 19 13 17 6 -3
12 -11 12 -19 0 -7 8 -15 18 -17 15 -3 18 0 12 17 -4 13 -2 21 5 21 6 0 8 -5
4 -11 -4 -7 0 -9 14 -5 16 6 19 3 16 -11 -4 -14 0 -19 14 -19 13 0 19 6 17 17
-3 12 3 16 19 15 22 -1 34 -26 13 -26 -6 0 -8 -3 -4 -6 9 -9 48 6 42 17 -4 5
0 16 9 24 9 9 17 11 21 5 3 -6 15 -6 29 0 13 5 33 6 44 3 22 -5 48 28 37 50
-4 6 1 3 9 -7 9 -11 16 -23 16 -26 0 -4 7 -7 16 -7 11 0 14 7 11 24 -2 13 0
23 4 23 5 0 9 11 9 25 0 20 -5 25 -26 25 -14 0 -64 11 -112 24 -48 14 -150 34
-227 46 -77 11 -153 25 -170 29 -30 9 -74 16 -170 26 -56 6 -196 24 -235 29
-14 2 -59 -2 -100 -10z m-140 -264 c0 -5 -5 -10 -11 -10 -5 0 -7 5 -4 10 3 6
8 10 11 10 2 0 4 -4 4 -10z"/>
<path d="M7182 3860 c7 -10 14 -18 15 -16 6 6 -9 36 -18 36 -5 0 -4 -9 3 -20z"/>
<path d="M7191 3784 c0 -11 3 -14 6 -6 3 7 2 16 -1 19 -3 4 -6 -2 -5 -13z"/>
<path d="M8563 3749 c-16 -16 -5 -39 18 -39 22 0 25 22 6 39 -10 8 -16 8 -24
0z"/>
<path d="M7235 3740 c-7 -12 12 -40 26 -40 5 0 9 11 9 25 0 25 -23 35 -35 15z"/>
<path d="M8427 3730 c7 -27 18 -33 33 -15 15 18 5 35 -20 35 -13 0 -17 -5 -13
-20z"/>
<path d="M8492 3733 c5 -26 38 -29 38 -4 0 15 -6 21 -21 21 -14 0 -19 -5 -17
-17z"/>
<path d="M8697 3744 c-14 -14 -7 -35 11 -32 9 2 17 10 17 17 0 16 -18 25 -28
15z"/>
<path d="M8771 3731 c-8 -5 -9 -11 -3 -15 5 -3 12 1 16 9 6 17 6 18 -13 6z"/>
<path d="M8231 3677 c-11 -14 -3 -31 15 -34 17 -3 24 35 9 41 -8 3 -18 -1 -24
-7z"/>
<path d="M8080 3672 c0 -12 19 -26 26 -19 2 2 -2 10 -11 17 -9 8 -15 8 -15 2z"/>
<path d="M8167 3665 c-8 -18 11 -31 25 -17 11 11 3 32 -12 32 -4 0 -10 -7 -13
-15z"/>
<path d="M8294 3669 c-8 -14 11 -33 25 -25 16 10 13 36 -3 36 -8 0 -18 -5 -22
-11z"/>
<path d="M8230 3595 c0 -8 4 -15 9 -15 5 0 11 7 15 15 3 9 0 15 -9 15 -8 0
-15 -7 -15 -15z"/>
<path d="M6990 3460 c0 -19 3 -21 12 -12 9 9 9 15 0 24 -9 9 -12 7 -12 -12z"/>
<path d="M6986 3413 c-9 -9 -7 -33 3 -33 12 0 22 28 12 34 -5 3 -11 3 -15 -1z"/>
<path d="M6980 3336 c0 -8 5 -18 10 -21 6 -3 10 3 10 14 0 12 -4 21 -10 21 -5
0 -10 -6 -10 -14z"/>
<path d="M6713 2883 c-20 -7 -15 -23 7 -23 11 0 20 4 20 9 0 13 -12 19 -27 14z"/>
<path d="M6765 2880 c-17 -28 60 -69 94 -50 25 13 28 45 5 54 -26 10 -92 7
-99 -4z"/>
<path d="M5100 2281 c0 -14 30 -42 39 -37 4 3 15 -6 25 -20 11 -13 26 -24 35
-24 32 -1 -22 -30 -55 -30 -32 0 -53 -14 -36 -24 4 -2 54 -7 110 -10 96 -5
102 -4 117 17 28 40 19 64 -35 91 -28 14 -57 23 -65 20 -8 -4 -15 -1 -15 6 0
8 -11 11 -30 8 -17 -3 -33 -1 -36 4 -7 11 -54 10 -54 -1z"/>
<path d="M4446 2237 c-15 -36 -62 -80 -80 -74 -6 2 -13 17 -16 33 -5 25 -10
29 -35 27 -17 -1 -64 -4 -105 -6 -41 -3 -89 -12 -106 -21 -38 -19 -136 -125
-128 -137 3 -5 -11 -16 -30 -26 -21 -9 -36 -25 -38 -37 -2 -11 -15 -27 -30
-34 -23 -11 -26 -18 -26 -60 0 -26 5 -51 11 -55 9 -6 9 -10 0 -14 -16 -6 -17
-39 -3 -48 8 -5 7 -11 -1 -21 -11 -14 -19 -79 -11 -101 2 -7 15 -13 28 -13 13
0 24 -4 24 -10 0 -5 -9 -10 -20 -10 -23 0 -27 -25 -5 -34 17 -6 21 -36 5 -36
-13 0 -13 -37 0 -45 8 -5 7 -11 0 -20 -9 -11 -6 -19 14 -36 14 -13 26 -31 26
-40 0 -10 6 -22 13 -26 8 -4 18 -15 23 -24 5 -9 46 -56 92 -103 45 -48 82 -93
82 -101 0 -7 14 -23 30 -35 19 -13 30 -30 30 -45 0 -18 6 -24 27 -27 25 -3 28
-7 28 -40 0 -20 -3 -34 -7 -31 -5 2 -8 10 -8 18 0 13 -29 28 -46 24 -5 -2 -28
3 -51 10 -28 7 -40 16 -37 25 7 18 -15 34 -51 38 -25 2 -29 7 -27 26 2 15 -2
22 -15 23 -26 2 -36 4 -56 13 -11 5 -23 4 -29 -2 -7 -7 -18 -5 -36 4 -15 8
-32 14 -38 14 -7 0 -14 7 -18 15 -3 8 -16 15 -29 15 -13 0 -28 5 -34 11 -30
30 -66 -24 -52 -76 11 -36 3 -65 -17 -65 -8 0 -14 -4 -14 -10 0 -5 6 -10 13
-10 7 0 13 -9 14 -21 1 -14 -3 -19 -13 -15 -26 10 -46 -5 -40 -29 4 -15 1 -25
-8 -28 -17 -7 -26 1 -26 22 0 9 -5 23 -10 31 -9 13 -12 13 -24 -3 -14 -18 -15
-18 -26 2 -12 23 -36 28 -42 10 -3 -9 -9 -9 -24 -1 -10 5 -32 8 -48 5 -27 -6
-28 -5 -21 26 6 27 4 31 -15 31 -16 0 -21 -6 -20 -22 1 -13 -1 -33 -5 -46 -8
-23 -8 -23 -22 -2 -17 25 -38 26 -53 3 -11 -17 -11 -17 -6 -1 5 18 -10 19 -45
4 -8 -4 -29 0 -45 9 -16 8 -24 15 -18 15 18 0 24 38 7 44 -9 4 -17 -1 -20 -14
l-5 -20 -18 20 c-9 11 -27 20 -39 20 -15 0 -21 6 -21 21 0 12 -9 30 -21 40
l-21 18 25 6 c14 4 35 4 45 0 27 -8 36 9 16 30 -11 11 -20 13 -27 6 -12 -12
-37 10 -37 33 0 9 -5 16 -11 16 -6 0 -9 -7 -5 -15 3 -8 2 -15 -2 -16 -4 0 -15
-2 -24 -4 -21 -4 -33 11 -18 20 17 11 11 25 -11 25 -17 0 -20 -4 -16 -22 9
-32 -9 -49 -40 -37 -13 5 -29 7 -34 3 -5 -3 -15 -2 -21 2 -24 15 -100 16 -109
2 -6 -10 -13 -10 -26 -2 -10 6 -19 16 -19 23 -3 24 -6 25 -13 6 -6 -15 -17
-20 -42 -20 -29 0 -35 -4 -38 -25 -3 -27 -17 -40 -41 -40 -13 0 -13 1 0 10 8
5 11 12 7 17 -5 4 -16 -2 -25 -13 -14 -16 -27 -20 -69 -19 -29 1 -53 -1 -53
-4 0 -12 16 -28 33 -34 11 -4 17 -14 15 -24 -3 -14 -12 -17 -38 -15 -19 2 -39
8 -44 12 -5 5 -17 5 -28 -1 -23 -12 -48 4 -48 31 0 19 -26 35 -34 21 -3 -5 -7
-22 -8 -40 -1 -17 -6 -31 -10 -31 -9 0 -11 13 -9 46 2 14 -5 23 -18 27 -24 6
-28 -12 -9 -31 9 -9 10 -15 2 -20 -6 -4 -16 -16 -22 -27 -11 -19 -11 -19 -12
3 0 14 -6 22 -18 22 -28 0 -43 -20 -31 -42 8 -14 6 -18 -9 -18 -15 0 -18 5
-15 24 4 20 1 25 -16 23 -22 -1 -29 -21 -11 -32 6 -3 10 -11 10 -16 0 -6 -4
-8 -9 -4 -5 3 -13 -4 -16 -16 -6 -18 -8 -19 -18 -5 -9 11 -24 15 -54 12 -24
-2 -43 1 -43 6 0 5 -8 4 -18 -1 -13 -7 -22 -7 -29 0 -7 7 -17 4 -31 -11 -18
-19 -20 -19 -26 -4 -6 16 -8 16 -22 -2 -14 -17 -15 -17 -10 -1 4 11 2 16 -5
12 -6 -4 -17 1 -25 11 -9 11 -13 13 -9 6 5 -10 0 -11 -21 -6 -26 7 -26 5 -22
-26 3 -18 -1 -48 -7 -67 -10 -30 -13 -32 -18 -14 -3 15 -10 19 -22 15 -13 -5
-14 -9 -3 -15 10 -6 10 -11 1 -20 -10 -10 -15 -6 -23 15 -5 15 -10 31 -10 36
0 4 -15 11 -33 14 -21 4 -39 15 -47 30 -7 14 -18 22 -26 19 -10 -4 -11 -10 -3
-25 16 -29 0 -36 -20 -9 -20 27 -26 21 -29 -29 -2 -19 -8 -45 -14 -57 -6 -13
-9 -25 -6 -28 9 -10 37 6 40 23 2 12 10 6 25 -20 l21 -36 -21 -7 c-12 -5 -26
-8 -32 -9 -17 -2 -35 -24 -36 -43 0 -12 -5 -9 -14 11 -16 37 -50 44 -60 13 -7
-21 -7 -21 -12 -2 -3 11 -9 25 -15 32 -6 7 -5 14 2 18 5 3 10 15 10 26 0 22
-29 26 -49 6 -9 -7 -11 -7 -8 -1 4 7 0 15 -9 18 -14 5 -13 10 10 31 14 13 25
28 24 32 -1 4 4 19 11 31 7 13 10 26 7 29 -8 8 -36 -17 -36 -32 0 -8 -10 -22
-23 -32 -12 -10 -21 -27 -20 -38 2 -12 -7 -27 -23 -38 -25 -19 -25 -19 -31 3
-3 13 -11 19 -19 16 -8 -3 -14 -1 -14 4 0 6 9 10 20 10 11 0 20 7 20 15 0 23
-26 18 -48 -10 -11 -14 -25 -25 -30 -25 -6 0 -19 -17 -29 -37 -21 -45 -38 -65
-48 -55 -5 4 -6 0 -3 -8 7 -19 -17 -54 -30 -46 -6 3 -13 0 -15 -6 -3 -7 -6 -3
-6 10 -1 12 4 22 9 22 6 0 10 7 10 15 0 8 4 15 8 15 5 0 8 10 8 23 -1 15 5 23
21 25 22 3 40 31 25 41 -4 3 -7 32 -7 64 1 58 -10 85 -21 50 -19 -62 -33 -81
-55 -76 -16 4 -20 2 -17 -8 7 -21 -13 -36 -40 -31 -20 4 -23 9 -19 31 4 19 0
30 -13 39 -13 8 -20 8 -22 0 -3 -8 -10 -8 -24 0 -24 13 -64 -9 -64 -34 0 -14
-48 -94 -57 -94 -2 0 -1 11 3 25 5 20 3 25 -12 24 -11 0 -27 -3 -36 -7 -21 -9
-59 -79 -52 -97 3 -7 0 -16 -6 -20 -14 -8 -11 93 3 112 7 10 3 13 -12 13 -28
0 -48 -19 -57 -54 -7 -30 -12 -32 -29 -9 -11 15 -15 13 -33 -23 -11 -23 -28
-41 -36 -41 -19 0 -20 6 -2 30 11 14 11 23 2 42 -13 29 -19 31 -36 10 -7 -9
-21 -13 -30 -10 -20 6 -45 -19 -35 -36 5 -8 0 -9 -16 -4 -20 6 -22 5 -11 -6
17 -18 15 -26 -8 -32 -11 -3 -20 -13 -20 -24 0 -10 -7 -27 -15 -37 -13 -17
-15 -17 -21 -3 -3 9 -12 13 -20 10 -8 -3 -14 -2 -14 1 0 4 14 12 31 18 17 6
26 14 20 17 -6 4 -12 23 -15 44 -2 20 -7 41 -11 47 -11 18 -37 -11 -31 -33 7
-28 -4 -78 -16 -71 -6 4 -13 3 -17 -2 -3 -5 -16 -15 -28 -22 -21 -11 -23 -10
-23 12 0 14 5 28 12 32 6 4 8 3 4 -4 -10 -17 14 -26 29 -11 18 18 24 84 8 84
-6 0 -15 3 -19 7 -4 5 -19 8 -33 8 -42 0 -56 15 -27 28 15 7 23 18 21 29 -1
10 2 26 7 37 13 24 -5 44 -25 28 -8 -7 -18 -8 -23 -4 -4 4 -3 0 4 -9 13 -17 7
-49 -9 -49 -5 0 -9 -6 -9 -14 0 -8 -4 -18 -10 -21 -6 -4 -7 1 -3 11 5 14 3 16
-11 11 -13 -5 -17 -3 -13 7 3 8 1 17 -6 20 -7 4 -1 5 13 3 23 -3 26 0 27 30 0
21 -4 32 -11 30 -6 -3 -10 -10 -8 -16 2 -12 -36 -50 -50 -51 -14 0 -9 24 12
63 11 20 20 44 20 52 0 23 -50 8 -73 -22 -10 -13 -23 -23 -28 -23 -15 0 -10
40 6 46 8 4 15 10 15 16 0 5 -4 6 -10 3 -19 -11 -30 5 -18 25 16 25 5 35 -21
20 -17 -9 -21 -20 -21 -63 0 -33 3 -47 9 -38 5 8 11 9 15 3 3 -5 -1 -15 -9
-22 -13 -11 -15 -62 -15 -341 l0 -329 143 -2 c78 0 153 -2 167 -3 14 -2 64 -4
112 -6 47 -2 96 -6 107 -11 21 -7 30 -48 11 -48 -7 0 -7 -7 0 -20 6 -11 7 -26
3 -33 -4 -6 -9 -37 -10 -67 -1 -72 -1 -70 -16 -70 -8 0 -14 -7 -14 -15 0 -13
205 -15 1779 -15 1494 0 1778 2 1778 14 0 7 -11 68 -25 136 -29 143 -34 293
-10 326 17 26 73 36 117 23 18 -5 78 -14 134 -19 96 -10 105 -9 207 20 59 16
115 30 124 30 9 0 60 -42 113 -94 82 -80 111 -101 201 -145 128 -63 175 -72
398 -74 195 -2 276 11 400 63 36 15 95 40 131 54 36 15 110 50 165 77 55 27
109 49 119 49 19 0 68 36 141 105 24 23 32 35 20 30 -35 -13 -60 -18 -53 -11
3 5 23 14 44 21 l37 13 -52 11 c-28 6 -67 11 -86 11 -19 0 -36 4 -39 8 -3 5 6
26 21 46 20 30 24 46 20 73 -7 43 -6 42 -53 58 -42 14 -57 35 -25 35 11 0 28
12 38 26 9 14 27 30 41 35 13 5 26 18 29 28 3 11 18 25 33 31 15 6 30 21 33
32 4 13 10 17 18 12 8 -5 10 -3 5 5 -5 8 -1 14 12 18 11 3 25 17 31 32 7 14
25 32 41 39 16 8 30 22 32 35 2 12 12 23 26 27 12 3 28 16 35 29 12 25 66 62
80 54 7 -4 37 21 37 31 0 3 -8 6 -17 7 -14 0 -15 2 -3 6 8 3 22 12 32 20 13
12 18 12 24 1 10 -16 10 -14 14 -260 2 -109 7 -195 12 -192 4 3 8 12 8 20 0 8
4 14 9 14 17 0 31 102 28 200 -2 84 6 208 18 280 2 14 1 45 -3 70 l-7 45 -85
-1 c-47 -1 -89 1 -94 4 -23 14 -212 -3 -234 -21 -9 -7 -16 -7 -24 1 -16 16
-44 -2 -52 -32 -4 -17 -11 -23 -21 -20 -8 4 -23 0 -32 -7 -8 -8 -26 -12 -39
-11 -28 4 -45 -25 -23 -39 10 -6 10 -9 2 -9 -14 0 -18 -39 -5 -41 4 -1 17 -3
29 -4 12 -1 30 -5 40 -9 17 -7 17 -8 0 -21 -15 -11 -17 -17 -7 -34 6 -12 7
-27 3 -34 -4 -6 -8 -23 -8 -37 0 -18 -5 -25 -20 -25 -13 0 -21 -8 -23 -23 -3
-21 -1 -23 18 -17 16 5 21 3 18 -6 -3 -8 -13 -16 -24 -18 -24 -4 -35 -21 -28
-44 4 -13 -2 -20 -25 -28 -17 -6 -29 -14 -26 -18 5 -10 -40 -100 -59 -115 -17
-14 -29 -73 -15 -81 6 -4 1 -20 -11 -41 -19 -30 -20 -38 -9 -71 20 -64 38 -79
91 -78 45 0 48 -2 48 -26 0 -42 -67 -81 -152 -87 l-68 -5 -1 34 c-1 19 -1 49
0 67 2 17 -2 32 -7 32 -6 0 -8 9 -5 20 5 19 2 22 -29 24 -7 1 -19 7 -27 14
-12 12 -12 15 0 23 11 7 12 12 2 28 -7 12 -10 33 -7 51 6 27 4 30 -19 30 -14
0 -27 6 -30 13 -3 8 4 13 21 12 33 0 42 30 15 51 -10 8 -12 13 -5 12 8 -2 19
5 25 14 16 24 -6 47 -31 32 -12 -7 -24 -7 -39 1 -21 11 -21 12 -5 30 10 11 11
15 3 10 -11 -6 -13 -4 -8 8 4 11 1 17 -9 17 -8 0 -12 -5 -9 -10 3 -5 2 -10 -3
-10 -6 0 -8 -9 -5 -21 4 -15 0 -22 -15 -26 -26 -6 -37 -32 -17 -39 19 -8 19
-24 0 -24 -8 0 -15 -4 -15 -9 0 -12 -40 -5 -54 9 -5 5 -17 10 -25 10 -8 0 -24
11 -36 24 -25 30 -90 44 -99 21 -3 -9 -1 -25 4 -36 8 -14 7 -19 -1 -19 -7 0
-9 -11 -5 -34 4 -21 2 -37 -4 -41 -16 -10 7 -35 31 -35 11 0 19 -7 19 -15 0
-8 -6 -15 -13 -15 -7 0 -13 -9 -13 -20 0 -15 5 -18 18 -14 12 3 18 0 18 -10 0
-9 -11 -16 -27 -18 -23 -2 -28 -8 -29 -31 -2 -41 -12 -44 -22 -6 -10 40 -41
52 -49 19 l-6 -21 -14 21 c-8 11 -23 20 -34 20 -11 0 -28 14 -39 33 -20 33
-27 77 -11 77 17 0 59 77 76 142 23 86 15 133 -26 156 -16 9 -29 22 -29 29 0
19 -20 26 -36 12 -8 -7 -12 -19 -9 -27 8 -21 -13 -42 -41 -42 -29 0 -32 -20
-4 -27 11 -3 20 -9 20 -14 0 -5 -9 -9 -20 -9 -25 0 -27 -35 -4 -48 15 -8 15
-10 0 -15 -9 -4 -16 -18 -16 -34 -1 -32 -23 -66 -36 -55 -4 4 -3 0 3 -8 26
-34 -31 -57 -81 -33 -19 8 -37 27 -43 44 -14 36 -33 37 -62 3 -22 -26 -25 -26
-104 -20 -91 8 -157 22 -157 35 0 4 25 18 55 31 30 13 55 27 55 31 0 9 88 52
110 53 8 1 14 6 13 13 -1 6 14 19 33 28 19 9 40 27 46 41 6 13 22 31 35 39 12
9 23 21 23 29 0 7 9 21 20 31 11 10 20 24 20 30 0 7 7 18 15 25 23 19 37 85
28 133 -9 42 -9 42 -53 42 -34 0 -47 -5 -55 -20 -15 -30 -87 -99 -116 -112
-14 -6 -37 -9 -52 -6 -18 4 -27 1 -29 -8 -1 -17 -4 -28 -13 -57 -6 -18 -10
-21 -17 -10 -7 9 -8 6 -5 -10 3 -13 3 -21 0 -18 -3 3 -16 -6 -29 -19 -13 -14
-27 -25 -31 -24 -19 3 -46 -2 -40 -7 13 -13 -13 -42 -33 -37 -23 6 -38 -20
-22 -40 8 -10 5 -13 -14 -15 -20 -1 -24 2 -23 21 1 12 1 39 1 60 -2 29 -6 37
-21 37 -11 0 -21 -5 -23 -12 -3 -7 -12 -6 -30 6 -15 10 -29 17 -32 17 -18 -3
-27 0 -22 7 9 14 -23 50 -47 54 -16 2 -23 11 -25 30 -3 22 -10 30 -35 36 -24
7 -31 14 -29 28 3 11 -7 27 -25 41 -15 13 -22 23 -15 23 7 0 10 5 7 10 -4 6
-10 8 -14 5 -5 -2 -13 7 -19 20 -7 14 -8 25 -4 26 4 0 16 2 27 5 47 10 115 14
302 18 190 5 198 6 201 25 3 20 -1 21 -170 22 -242 2 -283 7 -292 37 -8 26 -9
91 -2 156 5 45 12 65 31 82 14 13 22 29 19 37 -3 8 2 17 10 20 9 4 16 13 16
21 0 8 14 24 30 36 17 12 30 30 30 40 0 11 11 27 25 36 14 9 25 23 25 30 0 8
4 22 9 32 5 9 12 25 15 34 7 23 60 44 134 53 62 7 79 18 42 28 -13 3 -18 11
-14 20 9 24 -52 48 -113 46 -43 -2 -57 2 -76 19 -36 34 -74 29 -91 -11z m-532
-342 c-5 -13 -9 -13 -23 -3 -9 7 -18 14 -20 15 -2 2 8 3 22 3 20 0 25 -4 21
-15z m-866 -707 c-3 -7 -18 -14 -34 -16 l-29 -2 25 14 c31 19 43 20 38 4z
m942 -81 c0 -5 -4 -5 -10 -2 -5 3 -10 14 -10 23 0 15 2 15 10 2 5 -8 10 -19
10 -23z m-3040 -193 c0 -3 -7 -12 -15 -20 -16 -17 -18 -14 -9 10 6 15 24 23
24 10z m317 -67 c-6 -20 -27 -19 -27 2 0 14 5 19 15 14 9 -3 14 -10 12 -16z
m-459 -17 c3 -7 0 -10 -6 -6 -6 3 -13 0 -15 -6 -3 -7 -6 -2 -6 10 -1 25 19 26
27 2z m4877 10 c3 -6 -1 -7 -9 -4 -18 7 -21 14 -7 14 6 0 13 -4 16 -10z m10
-29 c-3 -5 -1 -12 5 -16 15 -9 12 -35 -4 -35 -22 0 -28 17 -16 40 6 11 13 20
16 20 3 0 3 -4 -1 -9z m-5495 -15 c0 -8 -4 -18 -10 -21 -5 -3 -10 3 -10 14 0
12 5 21 10 21 6 0 10 -6 10 -14z m90 -15 c0 -16 -13 -19 -42 -9 -18 7 -26 13
-18 18 13 8 60 1 60 -9z m510 5 c0 -3 -4 -8 -10 -11 -5 -3 -10 -1 -10 4 0 6 5
11 10 11 6 0 10 -2 10 -4z m69 -22 c-14 -18 -24 -11 -15 11 3 9 11 13 16 10 8
-5 7 -11 -1 -21z m75 5 c-3 -5 -10 -7 -15 -3 -5 3 -7 10 -3 15 3 5 10 7 15 3
5 -3 7 -10 3 -15z m4765 -70 c-6 -3 -7 -18 -3 -34 4 -18 3 -26 -3 -22 -13 8
-24 73 -16 94 5 12 8 11 19 -8 8 -15 9 -26 3 -30z m-4639 22 c0 -5 -7 -14 -15
-21 -12 -10 -15 -10 -15 2 0 8 3 18 7 21 9 10 23 9 23 -2z m4053 0 c4 -1 3
-10 -3 -20 -15 -28 -13 -37 13 -49 17 -8 18 -11 5 -11 -10 -1 -18 -5 -18 -10
0 -9 -7 -9 -47 4 -22 7 -67 70 -59 84 4 5 70 7 109 2z m642 -11 c3 -5 -1 -10
-9 -10 -9 0 -16 5 -16 10 0 6 4 10 9 10 6 0 13 -4 16 -10z m-4855 -60 c0 -5
-5 -10 -11 -10 -5 0 -7 5 -4 10 3 6 8 10 11 10 2 0 4 -4 4 -10z"/>
<path d="M8092 2213 c-5 -10 -7 -24 -5 -30 3 -7 -2 -13 -10 -13 -10 0 -13 7
-10 19 6 22 -9 34 -31 25 -15 -6 -15 -9 -1 -30 14 -21 14 -24 0 -24 -9 0 -15
-9 -15 -22 0 -13 -5 -30 -11 -38 -8 -12 -9 -9 -5 12 5 20 1 30 -13 37 -10 6
-21 8 -24 5 -7 -7 3 -37 16 -45 5 -4 0 -10 -12 -14 -11 -3 -21 -11 -21 -17 0
-6 -8 -4 -19 6 -16 15 -20 15 -31 1 -7 -8 -9 -22 -6 -31 9 -24 -13 -48 -30
-33 -16 14 -34 3 -34 -20 0 -26 10 -32 33 -20 15 8 22 8 28 -2 4 -7 5 -17 2
-22 -3 -5 -8 -4 -12 2 -4 5 -17 8 -29 4 -31 -8 -27 -49 5 -46 12 1 24 -5 27
-14 9 -21 0 -29 -17 -14 -15 11 -47 5 -47 -9 0 -4 7 -13 15 -20 12 -10 18 -10
32 1 13 11 17 11 20 2 5 -15 39 -17 48 -3 4 7 14 5 27 -4 16 -11 26 -12 41 -5
15 9 18 8 12 -1 -6 -10 3 -11 39 -6 47 7 54 3 35 -24 -8 -11 -12 -12 -16 -2
-5 14 -39 16 -47 3 -9 -14 4 -39 17 -37 7 1 18 5 25 10 7 4 19 3 26 -3 9 -8
18 -7 32 4 19 15 19 15 0 30 -16 12 -17 15 -4 15 9 0 19 6 21 13 3 6 8 -3 12
-21 8 -37 40 -42 40 -7 0 25 16 37 32 24 7 -6 17 -8 23 -4 6 3 40 8 77 10 36
2 68 7 72 12 3 5 16 9 28 9 l22 0 -21 -23 c-12 -13 -32 -23 -44 -23 -13 0 -26
-5 -29 -10 -4 -6 -14 -9 -23 -8 -12 2 -17 -4 -17 -22 0 -18 9 -30 35 -44 32
-17 39 -17 65 -5 36 17 75 73 75 107 0 14 -3 22 -7 19 -3 -4 -13 3 -21 14 -12
18 -13 23 -1 30 8 5 24 9 35 9 12 0 29 11 38 25 9 14 23 25 30 25 21 0 39 28
31 47 -5 10 -7 23 -6 29 2 14 -27 39 -35 31 -4 -3 -15 3 -27 14 -11 10 -28 19
-36 19 -9 0 -22 9 -29 21 -9 14 -21 20 -36 17 -12 -3 -28 1 -34 8 -8 9 -24 11
-43 7 -28 -5 -30 -4 -24 20 6 22 4 25 -14 20 -23 -6 -26 -14 -11 -29 6 -6 2
-10 -14 -12 -19 -1 -22 2 -19 22 5 27 -7 39 -31 30 -19 -7 -21 -30 -3 -37 6
-3 2 -4 -10 -4 -12 1 -19 5 -17 9 3 4 0 17 -6 27 -8 17 -15 19 -35 11 -15 -6
-27 -6 -30 0 -10 16 -34 11 -43 -7z"/>
<path d="M8356 2195 c-4 -10 1 -15 14 -15 11 0 20 7 20 15 0 8 -6 15 -14 15
-8 0 -16 -7 -20 -15z"/>
<path d="M3945 2069 c-4 -6 -5 -12 -2 -15 2 -3 7 2 10 11 7 17 1 20 -8 4z"/>
<path d="M7780 1940 c0 -5 5 -10 10 -10 6 0 10 5 10 10 0 6 -4 10 -10 10 -5 0
-10 -4 -10 -10z"/>
<path d="M3790 1881 c0 -5 7 -11 15 -15 9 -3 15 0 15 9 0 8 -7 15 -15 15 -8 0
-15 -4 -15 -9z"/>
<path d="M7900 1811 c0 -28 17 -35 29 -13 11 21 6 32 -16 32 -7 0 -13 -9 -13
-19z"/>
<path d="M7962 1808 c2 -15 10 -23 23 -23 30 0 27 39 -3 43 -20 3 -23 0 -20
-20z"/>
<path d="M7043 1806 c0 -8 6 -12 14 -9 7 3 13 9 13 14 0 5 -6 9 -13 9 -8 0
-14 -6 -14 -14z"/>
<path d="M7104 1804 c3 -9 6 -18 6 -20 0 -3 4 -3 10 1 11 7 2 35 -12 35 -6 0
-7 -7 -4 -16z"/>
<path d="M7845 1810 c3 -5 10 -10 16 -10 5 0 9 5 9 10 0 6 -7 10 -16 10 -8 0
-12 -4 -9 -10z"/>
<path d="M7100 1746 c0 -8 7 -16 15 -20 10 -4 15 1 15 14 0 11 -7 20 -15 20
-8 0 -15 -6 -15 -14z"/>
<path d="M7964 1748 c-3 -4 4 -8 15 -8 12 0 21 4 21 8 0 5 -7 9 -15 9 -9 0
-18 -4 -21 -9z"/>
<path d="M8030 1750 c0 -5 5 -10 10 -10 6 0 10 5 10 10 0 6 -4 10 -10 10 -5 0
-10 -4 -10 -10z"/>
<path d="M7040 1739 c0 -15 18 -19 23 -6 3 8 -1 14 -9 14 -8 0 -14 -4 -14 -8z"/>
<path d="M3810 1729 c0 -5 5 -7 10 -4 6 3 10 8 10 11 0 2 -4 4 -10 4 -5 0 -10
-5 -10 -11z"/>
<path d="M3803 1675 c0 -18 19 -15 25 3 2 7 -3 12 -10 12 -8 0 -15 -7 -15 -15z"/>
<path d="M7048 1683 c7 -3 16 -2 19 1 4 3 -2 6 -13 5 -11 0 -14 -3 -6 -6z"/>
<path d="M5775 1610 c3 -5 13 -10 21 -10 8 0 12 5 9 10 -3 6 -13 10 -21 10 -8
0 -12 -4 -9 -10z"/>
<path d="M537 1541 c-10 -12 -7 -13 25 -8 21 3 40 1 43 -4 4 -5 13 -5 23 0 9
5 31 6 48 4 18 -3 35 0 38 6 8 13 14 12 -87 15 -58 1 -81 -2 -90 -13z"/>
<path d="M5781 1547 c-12 -15 -5 -27 17 -27 11 0 12 3 3 13 -6 8 -8 17 -4 20
3 4 4 7 1 7 -3 0 -11 -6 -17 -13z"/>
<path d="M730 1540 c0 -5 5 -10 10 -10 6 0 10 5 10 10 0 6 -4 10 -10 10 -5 0
-10 -4 -10 -10z"/>
<path d="M450 1533 c-14 -3 -29 -9 -35 -15 -7 -7 -2 -9 15 -4 14 3 37 6 53 6
15 0 27 5 27 10 0 10 -15 11 -60 3z"/>
<path d="M5063 1465 c0 -8 4 -12 9 -9 4 3 8 9 8 15 0 5 -4 9 -8 9 -5 0 -9 -7
-9 -15z"/>
<path d="M5910 1465 c0 -8 5 -15 10 -15 6 0 10 7 10 15 0 8 -4 15 -10 15 -5 0
-10 -7 -10 -15z"/>
<path d="M6190 1465 c0 -8 2 -15 4 -15 2 0 6 7 10 15 3 8 1 15 -4 15 -6 0 -10
-7 -10 -15z"/>
<path d="M140 1459 c0 -5 5 -7 10 -4 6 3 10 8 10 11 0 2 -4 4 -10 4 -5 0 -10
-5 -10 -11z"/>
<path d="M5847 1423 c-15 -14 -7 -43 12 -43 23 0 34 23 18 39 -13 13 -21 14
-30 4z"/>
<path d="M5905 1420 c-8 -14 3 -30 21 -30 8 0 14 9 14 20 0 21 -24 28 -35 10z"/>
<path d="M60 1385 c-7 -14 -17 -25 -22 -25 -5 0 -7 -4 -3 -10 3 -5 12 -7 20
-4 8 4 12 10 10 15 -3 4 3 14 15 21 23 15 26 28 7 28 -8 0 -20 -11 -27 -25z"/>
<path d="M6045 1400 c3 -5 13 -10 21 -10 8 0 12 5 9 10 -3 6 -13 10 -21 10 -8
0 -12 -4 -9 -10z"/>
<path d="M6052 1368 c-18 -18 -14 -34 8 -35 21 -2 26 13 12 34 -6 10 -11 10
-20 1z"/>
<path d="M5853 1355 c0 -8 7 -17 15 -20 19 -7 24 -2 16 19 -8 20 -31 21 -31 1z"/>
<path d="M5904 1355 c-4 -9 -2 -21 4 -27 15 -15 44 -1 40 19 -4 23 -36 29 -44
8z"/>
<path d="M4792 1344 c4 -21 22 -23 26 -1 2 10 -3 17 -13 17 -10 0 -15 -6 -13
-16z"/>
<path d="M5975 1342 c-11 -11 -4 -22 15 -22 11 0 20 6 20 13 0 13 -25 19 -35
9z"/>
<path d="M8220 1282 c0 -56 26 -135 53 -160 57 -53 141 -29 177 51 23 49 25
81 8 94 -15 11 -188 53 -218 53 -17 0 -20 -7 -20 -38z"/>
<path d="M5976 1294 c-11 -28 -6 -44 13 -44 25 0 34 26 15 45 -19 19 -20 19
-28 -1z"/>
<path d="M5910 1280 c0 -15 5 -20 18 -18 9 2 17 10 17 18 0 8 -8 16 -17 18
-13 2 -18 -3 -18 -18z"/>
<path d="M2800 1270 c0 -11 7 -20 15 -20 8 0 15 6 15 14 0 8 -7 16 -15 20 -10
4 -15 -1 -15 -14z"/>
<path d="M6112 1279 c2 -7 10 -15 17 -17 8 -3 12 1 9 9 -2 7 -10 15 -17 17 -8
3 -12 -1 -9 -9z"/>
<path d="M90 1264 c0 -8 5 -12 10 -9 6 3 10 10 10 16 0 5 -4 9 -10 9 -5 0 -10
-7 -10 -16z"/>
<path d="M5975 1226 c-11 -8 -16 -19 -12 -30 9 -22 41 -17 45 8 6 27 -11 38
-33 22z"/>
<path d="M5906 1221 c-8 -13 20 -45 32 -37 20 12 14 46 -7 46 -11 0 -22 -4
-25 -9z"/>
<path d="M6114 1219 c-8 -14 11 -33 25 -25 6 4 11 11 11 16 0 13 -29 20 -36 9z"/>
<path d="M80 1194 c0 -8 5 -12 10 -9 6 3 10 10 10 16 0 5 -4 9 -10 9 -5 0 -10
-7 -10 -16z"/>
<path d="M2467 1199 c7 -7 15 -10 18 -7 3 3 -2 9 -12 12 -14 6 -15 5 -6 -5z"/>
<path d="M6047 1199 c7 -7 15 -10 18 -7 3 3 -2 9 -12 12 -14 6 -15 5 -6 -5z"/>
<path d="M3920 1196 c0 -2 7 -7 16 -10 8 -3 12 -2 9 4 -6 10 -25 14 -25 6z"/>
<path d="M75 1147 c-5 -12 -7 -40 -4 -62 3 -22 7 -35 8 -30 4 16 11 115 8 115
-1 0 -6 -10 -12 -23z"/>
<path d="M3124 1155 c-3 -8 -3 -19 1 -24 9 -15 44 9 38 26 -7 17 -32 17 -39
-2z"/>
<path d="M5917 1163 c-9 -9 -9 -43 1 -43 18 1 34 19 29 34 -7 17 -19 21 -30 9z"/>
<path d="M6430 1154 c0 -8 5 -12 10 -9 6 3 10 10 10 16 0 5 -4 9 -10 9 -5 0
-10 -7 -10 -16z"/>
<path d="M2192 1146 c1 -10 8 -17 13 -17 15 1 12 24 -3 29 -9 3 -13 -2 -10
-12z"/>
<path d="M2403 1141 c1 -12 7 -21 14 -21 17 0 16 15 -1 30 -12 9 -15 8 -13 -9z"/>
<path d="M3185 1150 c-7 -12 2 -30 16 -30 12 0 12 27 0 35 -5 3 -12 1 -16 -5z"/>
<path d="M3667 1140 c3 -11 9 -17 14 -14 14 8 10 34 -5 34 -9 0 -12 -7 -9 -20z"/>
<path d="M4666 1145 c-3 -8 -1 -17 3 -20 5 -3 11 2 15 10 3 8 1 17 -3 20 -5 3
-11 -2 -15 -10z"/>
<path d="M5970 1146 c6 -8 18 -12 26 -9 23 9 16 23 -12 23 -22 0 -24 -2 -14
-14z"/>
<path d="M5855 1139 c-4 -6 -5 -13 -2 -16 7 -7 27 6 27 18 0 12 -17 12 -25 -2z"/>
<path d="M5847 1081 c-4 -16 9 -31 28 -31 11 0 10 40 -2 44 -20 8 -20 8 -26
-13z"/>
<path d="M3269 1088 c-8 -28 -5 -39 9 -36 22 4 29 38 8 38 -9 0 -16 -1 -17 -2z"/>
<path d="M3317 1083 c-16 -15 -6 -34 15 -31 29 4 38 38 10 38 -10 0 -22 -3
-25 -7z"/>
<path d="M5712 1079 c2 -6 8 -10 13 -10 5 0 11 4 13 10 2 6 -4 11 -13 11 -9 0
-15 -5 -13 -11z"/>
<path d="M1940 1070 c-9 -6 -10 -10 -3 -10 6 0 15 5 18 10 8 12 4 12 -15 0z"/>
<path d="M3450 1070 c0 -5 5 -10 10 -10 6 0 10 5 10 10 0 6 -4 10 -10 10 -5 0
-10 -4 -10 -10z"/>
<path d="M1795 1060 c-8 -13 5 -13 25 0 13 8 13 10 -2 10 -9 0 -20 -4 -23 -10z"/>
<path d="M4110 1060 c0 -5 7 -10 16 -10 8 0 12 5 9 10 -3 6 -10 10 -16 10 -5
0 -9 -4 -9 -10z"/>
<path d="M336 1021 c-4 -7 -5 -15 -2 -18 9 -9 19 4 14 18 -4 11 -6 11 -12 0z"/>
<path d="M1687 1023 c-4 -3 -7 -16 -6 -27 0 -19 1 -19 10 3 10 24 8 36 -4 24z"/>
<path d="M5447 1024 c-3 -4 -2 -16 4 -26 13 -24 33 -10 23 15 -6 18 -16 21
-27 11z"/>
<path d="M5781 1016 c-9 -11 -8 -15 5 -20 23 -9 38 8 21 23 -11 9 -17 8 -26
-3z"/>
<path d="M5840 1009 c0 -25 33 -22 38 4 2 12 -3 17 -17 17 -15 0 -21 -6 -21
-21z"/>
<path d="M250 1000 c0 -5 5 -10 10 -10 6 0 10 5 10 10 0 6 -4 10 -10 10 -5 0
-10 -4 -10 -10z"/>
<path d="M5843 959 c-14 -14 -6 -39 12 -39 18 0 26 15 19 34 -7 19 -16 20 -31
5z"/>
<path d="M5843 880 c-1 -14 4 -20 18 -20 14 0 19 6 17 17 -5 26 -33 28 -35 3z"/>
<path d="M340 876 c0 -9 5 -16 10 -16 6 0 10 4 10 9 0 6 -4 13 -10 16 -5 3
-10 -1 -10 -9z"/>
<path d="M397 814 l-18 -39 21 21 c12 12 20 29 18 39 -2 13 -8 6 -21 -21z"/>
<path d="M1135 830 c-3 -5 1 -10 10 -10 9 0 13 5 10 10 -3 6 -8 10 -10 10 -2
0 -7 -4 -10 -10z"/>
<path d="M5400 814 c0 -8 5 -12 10 -9 6 4 8 11 5 16 -9 14 -15 11 -15 -7z"/>
<path d="M5331 744 c0 -11 3 -14 6 -6 3 7 2 16 -1 19 -3 4 -6 -2 -5 -13z"/>
<path d="M5390 750 c13 -8 13 -10 1 -10 -12 0 -12 -3 -3 -12 10 -10 15 -10 22
2 9 14 -4 30 -25 30 -5 0 -3 -5 5 -10z"/>
<path d="M5830 746 c0 -15 27 -29 34 -18 3 5 -4 13 -15 20 -15 10 -19 10 -19
-2z"/>
<path d="M6401 622 c-22 -40 -12 -66 42 -118 28 -28 79 -71 112 -94 33 -24 71
-53 85 -65 14 -13 53 -31 88 -40 55 -16 64 -16 75 -3 7 8 29 25 50 38 39 23
58 23 144 1 31 -8 49 -8 70 1 15 6 33 12 40 14 6 1 25 12 41 24 32 24 72 30
108 17 19 -7 22 -3 28 33 3 22 11 40 16 40 6 0 10 9 10 19 0 19 52 71 71 71
21 0 7 19 -22 29 -17 6 -28 15 -24 20 3 6 -21 10 -62 9 -37 0 -108 2 -158 5
-49 4 -228 9 -397 13 -301 6 -306 6 -317 -14z"/>
<path d="M7448 630 c-14 -9 -18 -25 -18 -79 0 -65 1 -69 36 -99 20 -18 40 -32
46 -32 5 0 19 -5 30 -11 17 -9 18 -13 7 -21 -11 -7 -11 -11 -1 -15 13 -5 7
-23 -9 -23 -6 0 -7 5 -3 11 4 7 1 10 -7 7 -8 -3 -14 -19 -15 -37 -1 -36 -16
-51 -51 -51 -16 0 -23 -6 -23 -20 0 -12 -10 -25 -25 -32 -13 -6 -22 -15 -19
-20 3 -4 10 -6 15 -3 5 4 9 2 9 -2 0 -5 29 -7 65 -5 56 4 65 2 65 -13 0 -9 -7
-24 -16 -32 -12 -12 -13 -18 -3 -24 10 -6 10 -13 1 -35 -20 -42 -5 -41 15 2
18 37 43 57 43 33 0 -7 -7 -20 -15 -29 -9 -9 -17 -36 -20 -59 l-4 -41 852 0
c469 0 862 3 875 6 25 7 30 24 7 24 -22 0 -19 40 3 40 16 1 16 1 -1 14 -13 10
-18 30 -19 81 -2 36 -6 69 -10 71 -4 3 -3 16 2 29 8 20 6 27 -11 36 -15 7 -24
7 -34 -1 -8 -7 -15 -7 -19 -1 -8 12 -43 2 -50 -14 -3 -8 -13 -11 -26 -8 -16 4
-23 0 -27 -16 -4 -15 -13 -21 -34 -21 -22 0 -32 -7 -41 -25 -6 -14 -34 -36
-67 -52 -31 -15 -61 -34 -66 -41 -20 -25 -114 -16 -180 17 -33 17 -65 31 -71
31 -20 0 -101 39 -114 55 -16 19 -80 37 -94 26 -16 -13 -95 -20 -102 -10 -5 9
6 12 41 10 11 -1 26 3 34 8 21 14 0 35 -49 50 -24 7 -58 29 -79 52 -21 21 -43
39 -47 39 -5 0 -14 12 -21 26 -10 22 -9 29 6 45 14 16 28 18 87 14 38 -2 110
-14 159 -26 50 -11 101 -23 114 -26 14 -2 41 -21 60 -41 19 -20 40 -36 46 -34
7 1 20 -16 31 -39 l18 -42 9 27 c9 27 22 32 46 17 14 -9 42 1 70 27 7 7 24 11
36 8 14 -4 28 0 35 9 7 8 19 15 26 15 20 0 101 76 107 100 9 35 -12 43 -198
70 -38 5 -178 17 -310 25 -132 9 -278 20 -325 25 -273 31 -742 49 -772 30z
m140 -302 c-4 -12 -48 -20 -48 -8 0 12 13 20 33 20 10 0 17 -5 15 -12z m512
-19 c0 -5 -7 -9 -15 -9 -8 0 -15 7 -15 15 0 9 6 12 15 9 8 -4 15 -10 15 -15z
m-400 2 c0 -6 -4 -13 -10 -16 -5 -3 -10 1 -10 9 0 9 5 16 10 16 6 0 10 -4 10
-9z m-120 -141 c0 -11 -4 -20 -10 -20 -5 0 -10 9 -10 20 0 11 5 20 10 20 6 0
10 -9 10 -20z"/>
<path d="M7434 357 c-6 -17 2 -37 16 -37 15 0 19 29 5 40 -12 10 -16 9 -21 -3z"/>
<path d="M7439 74 c-12 -14 -11 -16 5 -13 11 2 21 10 24 17 5 17 -13 15 -29
-4z"/>
<path d="M7391 24 c0 -11 3 -14 6 -6 3 7 2 16 -1 19 -3 4 -6 -2 -5 -13z"/>
<path d="M7423 28 c-10 -17 9 -25 60 -26 43 0 53 3 54 17 1 15 -7 17 -54 17
-30 -1 -57 -4 -60 -8z"/>
</g>
</svg>
